<svg id="svg" version="1.1" xmlns="http://www.w3.org/2000/svg" xmlns:xlink="http://www.w3.org/1999/xlink" width="30" height="30" viewBox="0, 0, 400,380"><g id="svgg"><path id="path0" d="M239.163 9.506 L 239.163 19.011 229.087 19.011 L 219.011 19.011 219.011 29.087 L 219.011 39.163 209.696 39.163 L 200.380 39.163 200.374 49.144 C 200.371 54.766,200.211 59.375,200.008 59.696 C 199.698 60.187,196.926 60.293,180.147 60.456 L 160.646 60.646 160.456 70.039 C 160.315 77.021,160.140 79.558,159.773 79.925 C 159.406 80.292,156.869 80.467,149.887 80.608 L 140.494 80.798 140.393 90.168 C 140.315 97.341,140.174 99.635,139.792 99.952 C 139.469 100.220,136.003 100.403,130.007 100.468 L 120.722 100.570 120.532 109.963 C 120.391 116.945,120.216 119.482,119.849 119.849 C 119.482 120.216,116.945 120.391,109.963 120.532 L 100.570 120.722 100.468 130.007 C 100.402 136.078,100.221 139.467,99.947 139.798 C 99.618 140.194,97.521 140.304,90.334 140.304 C 83.691 140.304,81.014 140.431,80.684 140.760 C 80.355 141.090,80.228 143.767,80.228 150.410 C 80.228 157.597,80.118 159.694,79.722 160.023 C 79.391 160.297,76.002 160.478,69.931 160.544 L 60.646 160.646 60.456 180.038 C 60.352 190.703,60.128 199.644,59.959 199.905 C 59.725 200.266,57.185 200.380,49.407 200.380 L 39.163 200.380 39.163 219.772 L 39.163 239.163 29.373 239.209 C 23.988 239.233,19.456 239.234,19.302 239.210 C 19.147 239.186,19.062 257.602,19.111 280.135 L 19.202 321.103 29.072 321.214 C 34.501 321.276,38.990 321.372,39.047 321.430 C 39.104 321.487,39.164 330.248,39.180 340.900 C 39.211 360.408,39.266 361.274,40.487 361.225 C 40.595 361.220,44.791 361.217,49.810 361.217 L 58.935 361.217 58.935 370.722 L 58.935 380.228 80.038 380.228 L 101.141 380.228 101.141 370.722 L 101.141 361.217 110.741 361.172 C 116.022 361.147,120.464 361.145,120.612 361.167 C 120.760 361.188,120.846 356.632,120.802 351.040 L 120.722 340.875 110.760 340.684 C 103.309 340.542,100.673 340.370,100.303 340.001 C 99.937 339.634,99.761 337.098,99.620 330.115 L 99.430 320.722 89.847 320.532 C 82.905 320.395,80.134 320.211,79.790 319.867 C 79.437 319.513,76.961 319.392,70.076 319.392 L 60.837 319.392 60.824 300.285 C 60.814 284.087,60.727 281.066,60.254 280.441 C 59.514 279.462,59.420 261.264,60.152 260.532 C 60.482 260.203,63.152 260.076,69.772 260.076 C 76.392 260.076,79.062 259.949,79.392 259.620 C 79.735 259.277,79.848 254.367,79.848 239.861 C 79.848 221.167,79.871 220.547,80.583 220.165 C 81.032 219.925,84.889 219.772,90.469 219.772 L 99.620 219.772 99.620 210.529 C 99.620 203.729,99.745 201.117,100.095 200.646 C 100.515 200.081,101.682 199.995,110.076 199.908 L 119.582 199.810 119.772 190.240 C 119.876 184.977,120.104 180.528,120.278 180.354 C 120.452 180.180,124.901 179.952,130.164 179.848 L 139.734 179.658 139.835 170.067 C 139.932 160.902,139.971 160.458,140.702 160.067 C 142.120 159.308,159.461 159.744,160.364 160.562 C 161.226 161.343,180.228 161.561,180.228 160.790 C 180.228 160.582,180.389 160.511,180.585 160.632 C 180.803 160.767,180.955 157.060,180.976 151.075 C 180.995 145.697,181.055 141.252,181.110 141.197 C 181.165 141.141,185.652 141.046,191.080 140.985 L 200.951 140.875 201.052 131.026 C 201.145 122.057,201.094 121.111,200.482 120.435 C 199.885 119.777,199.797 118.655,199.696 110.436 C 199.548 98.406,198.340 99.620,210.456 99.620 L 219.772 99.620 219.772 90.137 C 219.772 82.967,219.888 80.578,220.247 80.346 C 220.509 80.176,229.449 79.952,240.114 79.848 L 259.506 79.658 259.608 70.364 C 259.739 58.435,258.467 59.696,270.370 59.696 C 275.549 59.696,280.056 59.592,280.387 59.465 C 280.912 59.263,280.989 58.083,280.989 50.149 L 280.989 41.065 289.924 41.065 L 298.859 41.065 298.859 49.925 L 298.859 58.786 300.113 60.001 L 301.367 61.217 310.189 61.217 L 319.011 61.217 319.011 69.953 C 319.011 78.014,319.070 78.785,319.770 79.934 C 320.474 81.087,320.530 81.855,320.531 90.399 L 320.532 99.620 340.684 99.620 L 360.837 99.620 360.837 59.483 C 360.837 32.822,360.709 19.426,360.456 19.582 C 360.247 19.711,360.076 19.636,360.076 19.414 C 360.076 19.141,357.007 19.011,350.570 19.011 L 341.065 19.011 341.065 9.506 L 341.065 0.000 290.114 0.000 L 239.163 0.000 239.163 9.506 " stroke="none" fill="#fcf44c" fill-rule="evenodd"></path><path id="path1" d="M119.677 39.426 C 119.065 39.585,119.011 40.380,119.011 49.267 L 119.011 58.935 109.166 58.935 C 100.539 58.935,99.292 59.010,99.090 59.537 C 98.963 59.868,98.859 64.402,98.859 69.613 L 98.859 79.087 89.204 79.087 C 80.751 79.087,79.520 79.162,79.318 79.689 C 79.191 80.020,79.087 84.551,79.087 89.759 L 79.087 99.227 69.106 99.328 L 59.125 99.430 59.027 119.297 L 58.929 139.163 49.521 139.209 C 44.347 139.233,39.900 139.226,39.639 139.192 C 39.262 139.143,39.163 145.396,39.163 169.357 L 39.163 199.585 49.144 199.507 L 59.125 199.430 59.316 179.784 C 59.420 168.979,59.648 159.996,59.822 159.822 C 59.996 159.648,64.484 159.455,69.797 159.392 L 79.455 159.279 79.556 149.506 L 79.658 139.734 89.430 139.632 L 99.203 139.531 99.316 129.827 C 99.411 121.701,99.522 120.065,100.000 119.763 C 100.319 119.562,104.725 119.401,109.981 119.397 L 119.392 119.392 119.397 109.981 C 119.401 104.805,119.537 100.359,119.701 100.102 C 119.921 99.755,122.516 99.607,129.676 99.531 L 139.354 99.430 139.455 89.955 C 139.522 83.743,139.702 80.306,139.977 79.974 C 140.306 79.577,142.446 79.468,149.856 79.468 L 159.316 79.468 159.321 70.057 C 159.325 64.795,159.486 60.395,159.688 60.076 C 159.999 59.583,162.717 59.491,179.644 59.401 L 199.240 59.296 199.240 49.230 L 199.240 39.163 159.791 39.208 C 138.094 39.232,120.043 39.330,119.677 39.426 M280.989 59.492 C 280.989 60.653,279.512 60.837,270.177 60.837 L 260.837 60.837 260.837 69.987 C 260.837 75.567,260.683 79.424,260.443 79.873 C 260.062 80.585,259.438 80.608,240.481 80.608 L 220.913 80.608 220.913 90.087 C 220.913 102.054,222.207 100.760,210.233 100.760 L 200.748 100.760 200.849 110.741 L 200.951 120.722 220.057 120.821 L 239.163 120.920 239.163 130.992 L 239.163 141.065 249.049 141.065 L 258.935 141.065 258.935 151.141 C 258.935 156.683,259.064 161.196,259.221 161.172 C 259.377 161.147,263.912 161.147,269.297 161.172 L 279.087 161.217 279.087 170.152 L 279.087 179.087 219.969 179.087 L 160.850 179.087 160.748 170.057 L 160.646 161.027 150.760 161.027 L 140.875 161.027 140.776 170.532 C 140.689 178.926,140.603 180.094,140.038 180.513 C 139.567 180.863,136.955 180.989,130.155 180.989 L 120.913 180.989 120.913 190.232 C 120.913 197.031,120.787 199.644,120.437 200.114 C 120.018 200.679,118.850 200.765,110.456 200.852 L 100.951 200.951 100.849 210.510 C 100.771 217.843,100.631 220.166,100.248 220.484 C 99.924 220.753,96.409 220.935,90.273 221.001 L 80.798 221.103 80.608 240.875 L 80.418 260.646 70.627 260.748 L 60.837 260.849 60.837 270.919 L 60.837 280.989 69.962 280.989 L 79.087 280.989 79.087 300.173 L 79.087 319.357 89.558 319.469 C 98.367 319.564,100.086 319.672,100.389 320.152 C 100.590 320.471,100.751 324.876,100.755 330.133 L 100.760 339.544 110.453 339.544 C 119.734 339.544,120.166 339.576,120.621 340.304 C 121.074 341.030,121.507 341.065,130.123 341.065 L 139.151 341.065 139.252 351.046 L 139.354 361.027 210.076 361.027 L 280.798 361.027 280.900 351.046 L 281.001 341.065 300.957 341.065 L 320.913 341.065 320.913 331.179 L 320.913 321.293 330.133 321.288 C 335.204 321.285,339.739 321.179,340.209 321.053 L 341.065 320.824 341.065 310.982 L 341.065 301.141 350.951 301.141 L 360.837 301.141 360.837 291.065 L 360.837 280.989 370.913 280.989 L 380.989 280.989 380.989 260.076 L 380.989 239.163 319.962 239.163 L 258.935 239.163 258.935 249.240 L 258.935 259.316 249.049 259.316 L 239.163 259.316 239.163 269.202 L 239.163 279.087 210.076 279.087 L 180.989 279.087 180.989 269.202 L 180.989 259.316 170.913 259.316 L 160.837 259.316 160.837 249.240 L 160.837 239.163 150.951 239.163 L 141.065 239.163 141.065 230.228 L 141.065 221.293 260.076 221.293 C 325.532 221.293,379.130 221.322,379.183 221.357 C 379.235 221.392,379.663 221.215,380.133 220.963 L 380.989 220.506 380.989 190.114 L 380.989 159.723 380.133 159.265 C 379.663 159.013,379.235 158.836,379.183 158.871 C 379.130 158.906,374.981 158.935,369.962 158.935 L 360.837 158.935 360.837 129.848 L 360.837 100.760 340.570 100.760 C 325.315 100.760,320.191 100.648,319.848 100.304 C 319.518 99.974,319.390 97.218,319.386 90.323 C 319.384 85.085,319.278 80.413,319.152 79.943 L 318.923 79.087 310.032 79.087 L 301.141 79.087 301.141 70.143 L 301.141 61.198 300.242 60.856 C 299.748 60.668,299.251 60.159,299.137 59.725 C 298.865 58.685,280.989 58.456,280.989 59.492 " stroke="none" fill="#9ce43c" fill-rule="evenodd"></path><path id="path2" d="" stroke="none" fill="#100ec44" fill-rule="evenodd"></path><path id="path3" d="M199.240 49.230 L 199.240 59.296 179.644 59.401 C 162.717 59.491,159.999 59.583,159.688 60.076 C 159.486 60.395,159.325 64.795,159.321 70.057 L 159.316 79.468 149.856 79.468 C 142.446 79.468,140.306 79.577,139.977 79.974 C 139.702 80.306,139.522 83.743,139.455 89.955 L 139.354 99.430 129.676 99.531 C 122.516 99.607,119.921 99.755,119.701 100.102 C 119.537 100.359,119.401 104.805,119.397 109.981 L 119.392 119.392 109.981 119.397 C 104.725 119.401,100.319 119.562,100.000 119.763 C 99.522 120.065,99.411 121.701,99.316 129.827 L 99.203 139.531 89.430 139.632 L 79.658 139.734 79.556 149.506 L 79.455 159.279 69.797 159.392 C 64.484 159.455,59.996 159.648,59.822 159.822 C 59.648 159.996,59.420 168.979,59.316 179.784 L 59.125 199.430 49.246 199.506 C 42.755 199.556,39.320 199.719,39.233 199.981 C 39.026 200.604,59.555 200.528,59.959 199.905 C 60.128 199.644,60.352 190.703,60.456 180.038 L 60.646 160.646 69.931 160.544 C 76.002 160.478,79.391 160.297,79.722 160.023 C 80.118 159.694,80.228 157.597,80.228 150.410 C 80.228 143.767,80.355 141.090,80.684 140.760 C 81.014 140.431,83.691 140.304,90.334 140.304 C 97.521 140.304,99.618 140.194,99.947 139.798 C 100.221 139.467,100.402 136.078,100.468 130.007 L 100.570 120.722 109.963 120.532 C 116.945 120.391,119.482 120.216,119.849 119.849 C 120.216 119.482,120.391 116.945,120.532 109.963 L 120.722 100.570 130.007 100.468 C 136.003 100.403,139.469 100.220,139.792 99.952 C 140.174 99.635,140.315 97.341,140.393 90.168 L 140.494 80.798 149.887 80.608 C 156.869 80.467,159.406 80.292,159.773 79.925 C 160.140 79.558,160.315 77.021,160.456 70.039 L 160.646 60.646 180.147 60.456 C 196.926 60.293,199.698 60.187,200.008 59.696 C 200.669 58.650,200.481 39.163,199.810 39.163 C 199.317 39.163,199.240 40.535,199.240 49.230 M299.189 59.759 C 299.356 60.212,299.905 60.735,300.409 60.922 C 301.285 61.246,301.276 61.210,300.211 60.098 C 298.886 58.715,298.790 58.683,299.189 59.759 M270.745 59.601 C 258.405 59.739,259.736 58.461,259.607 70.300 L 259.506 79.658 240.114 79.848 C 229.449 79.952,220.509 80.176,220.247 80.346 C 219.888 80.578,219.772 82.967,219.772 90.137 L 219.772 99.620 210.456 99.620 C 198.339 99.620,199.548 98.401,199.696 110.462 C 199.790 118.099,199.911 119.847,200.380 120.316 C 200.887 120.823,200.939 119.768,200.843 110.823 L 200.736 100.760 210.227 100.760 C 222.208 100.760,220.913 102.054,220.913 90.087 L 220.913 80.608 240.481 80.608 C 259.438 80.608,260.062 80.585,260.443 79.873 C 260.683 79.424,260.837 75.567,260.837 69.987 L 260.837 60.837 270.177 60.837 C 279.105 60.837,280.989 60.635,280.989 59.682 C 280.989 59.481,280.860 59.355,280.703 59.404 C 280.547 59.452,276.065 59.541,270.745 59.601 M319.320 89.437 C 319.395 96.003,319.586 99.966,319.842 100.274 C 320.496 101.062,360.837 100.980,360.837 100.190 C 360.837 99.690,358.344 99.620,340.684 99.620 L 320.532 99.620 320.532 90.475 C 320.532 81.940,320.221 79.091,319.287 79.087 C 319.240 79.087,319.255 83.745,319.320 89.437 M140.593 160.154 C 139.999 160.595,139.920 161.629,139.832 170.152 L 139.734 179.658 130.164 179.848 C 124.901 179.952,120.452 180.180,120.278 180.354 C 120.104 180.528,119.876 184.977,119.772 190.240 L 119.582 199.810 110.076 199.908 C 101.682 199.995,100.515 200.081,100.095 200.646 C 99.745 201.117,99.620 203.729,99.620 210.529 L 99.620 219.772 90.469 219.772 C 84.889 219.772,81.032 219.925,80.583 220.165 C 79.871 220.547,79.848 221.167,79.848 239.861 C 79.848 254.367,79.735 259.277,79.392 259.620 C 79.062 259.949,76.392 260.076,69.772 260.076 C 63.152 260.076,60.482 260.203,60.152 260.532 C 59.420 261.264,59.514 279.462,60.254 280.441 C 60.749 281.096,60.814 280.035,60.824 271.014 L 60.837 260.849 70.627 260.748 L 80.418 260.646 80.608 240.875 L 80.798 221.103 90.358 221.001 C 97.691 220.923,100.014 220.783,100.332 220.400 C 100.601 220.076,100.783 216.561,100.849 210.425 L 100.951 200.951 110.456 200.852 C 118.850 200.765,120.018 200.679,120.437 200.114 C 120.787 199.644,120.913 197.031,120.913 190.232 L 120.913 180.989 130.155 180.989 C 136.955 180.989,139.567 180.863,140.038 180.513 C 140.603 180.094,140.689 178.926,140.776 170.532 L 140.875 161.027 150.842 161.027 C 159.702 161.027,160.747 160.963,160.240 160.456 C 159.448 159.664,141.619 159.389,140.593 160.154 M79.772 319.849 C 80.139 320.216,82.711 320.391,89.847 320.532 L 99.430 320.722 99.620 330.115 C 99.761 337.096,99.937 339.634,100.303 340.001 C 100.801 340.498,120.914 341.147,120.913 340.665 C 120.911 339.686,119.578 339.544,110.380 339.544 L 100.760 339.544 100.755 330.133 C 100.751 324.876,100.590 320.471,100.389 320.152 C 100.086 319.673,98.377 319.564,89.654 319.469 C 81.153 319.376,79.369 319.445,79.772 319.849 " stroke="none" fill="#b8ec44" fill-rule="evenodd"></path><path id="path4" d="" stroke="none" fill="#9cf044" fill-rule="evenodd"></path></g></svg>