<svg width="25" height="25" viewBox="0 0 29 29" fill="none" xmlns="http://www.w3.org/2000/svg">
<path d="M24.7068 24.7128H20.4124V17.9836C20.4124 16.379 20.3798 14.3139 18.1745 14.3139C15.9355 14.3139 15.5935 16.06 15.5935 17.8652V24.7128H11.2991V10.875H15.4244V12.7612H15.48C16.0563 11.6737 17.458 10.5258 19.552 10.5258C23.9032 10.5258 24.708 13.3895 24.708 17.1173V24.7128H24.7068ZM6.44887 8.98154C5.06654 8.98154 3.95608 7.86263 3.95608 6.48633C3.95608 5.11125 5.06775 3.99354 6.44887 3.99354C7.82638 3.99354 8.94287 5.11125 8.94287 6.48633C8.94287 7.86263 7.82517 8.98154 6.44887 8.98154ZM8.60213 24.7128H4.29563V10.875H8.60213V24.7128ZM26.8552 0H2.13996C0.957 0 0 0.93525 0 2.08921V26.9108C0 28.066 0.957 29 2.13996 29H26.8516C28.0333 29 29 28.066 29 26.9108V2.08921C29 0.93525 28.0333 0 26.8516 0H26.8552Z" fill="black"/>
</svg>
