<svg width="14" height="14" fill="none" xmlns="http://www.w3.org/2000/svg"><path d="M0 11.316V2.684A2.684 2.684 0 012.684 0h2.842c.58 0 1.053.474 1.053 1.053s-.474 1.052-1.053 1.052H2.684a.584.584 0 00-.579.58v8.63c0 .317.263.58.58.58h8.63a.584.584 0 00.58-.58V8.475c0-.58.473-1.053 1.052-1.053.58 0 1.053.474 1.053 1.053v2.842A2.684 2.684 0 0111.316 14H2.684A2.673 2.673 0 010 11.316zM9.298 0C8.72 0 8.246.474 8.246 1.053s.473 1.052 1.052 1.052h1.105l-4 4a1.07 1.07 0 000 1.491c.404.422 1.07.404 1.492 0l4-4v1.106c0 .579.473 1.052 1.052 1.052.58 0 1.053-.473 1.053-1.052V1.105A1.1 1.1 0 0012.895 0H9.298z" fill="#000"/></svg>