<svg width="38" height="37" viewBox="0 0 38 37" fill="none" xmlns="http://www.w3.org/2000/svg">
<path d="M3.16675 9.25002C3.16675 8.43227 3.50038 7.64801 4.09424 7.06977C4.68811 6.49154 5.49356 6.16669 6.33342 6.16669H31.6668C32.5066 6.16669 33.3121 6.49154 33.9059 7.06977C34.4998 7.64801 34.8334 8.43227 34.8334 9.25002V27.75C34.8334 28.5678 34.4998 29.352 33.9059 29.9303C33.3121 30.5085 32.5066 30.8334 31.6668 30.8334H6.33342C5.49356 30.8334 4.68811 30.5085 4.09424 29.9303C3.50038 29.352 3.16675 28.5678 3.16675 27.75V9.25002ZM8.7385 9.25002L19.0001 17.9928L29.2617 9.25002H8.74008H8.7385ZM31.6668 11.2989L20.0435 21.2026C19.7548 21.4489 19.384 21.5847 19.0001 21.5847C18.6162 21.5847 18.2454 21.4489 17.9567 21.2026L6.33342 11.2989V27.75H31.6668V11.2989Z" fill="black"/>
</svg>
