<svg width="inherit" height="inherit" viewBox="0 0 292 38" fill="none" xmlns="http://www.w3.org/2000/svg">
<path d="M211.275 10.3987C211.376 10.4239 211.471 10.4687 211.554 10.5306C211.638 10.5925 211.709 10.6702 211.762 10.7594C211.816 10.8486 211.851 10.9474 211.866 11.0503C211.882 11.1532 211.876 11.2581 211.851 11.359L208.685 24.0256C208.661 24.128 208.617 24.2247 208.555 24.3099C208.494 24.3952 208.416 24.4673 208.326 24.5222C208.237 24.577 208.137 24.6134 208.033 24.6294C207.929 24.6453 207.823 24.6403 207.721 24.6149C207.619 24.5894 207.524 24.5438 207.439 24.4809C207.355 24.418 207.284 24.3389 207.231 24.2483C207.178 24.1577 207.143 24.0574 207.129 23.9533C207.115 23.8491 207.122 23.7432 207.149 23.6417L210.315 10.975C210.341 10.8741 210.385 10.7791 210.447 10.6955C210.509 10.612 210.587 10.5414 210.676 10.4879C210.765 10.4343 210.864 10.3989 210.967 10.3836C211.07 10.3683 211.175 10.3734 211.276 10.3987H211.275ZM205.31 13.7736C205.458 13.922 205.541 14.1233 205.541 14.3333C205.541 14.5432 205.458 14.7445 205.31 14.893L202.703 17.4999L205.31 20.1069C205.385 20.1799 205.446 20.2673 205.487 20.3639C205.529 20.4604 205.55 20.5643 205.551 20.6694C205.552 20.7746 205.532 20.8788 205.492 20.9761C205.453 21.0734 205.394 21.1618 205.32 21.2361C205.245 21.3104 205.157 21.3692 205.06 21.409C204.962 21.4488 204.858 21.4689 204.753 21.468C204.648 21.467 204.544 21.4452 204.447 21.4037C204.351 21.3622 204.263 21.3019 204.19 21.2263L201.024 18.0596C200.875 17.9112 200.792 17.7099 200.792 17.4999C200.792 17.29 200.875 17.0887 201.024 16.9402L204.19 13.7736C204.339 13.6251 204.54 13.5418 204.75 13.5418C204.96 13.5418 205.161 13.6251 205.31 13.7736V13.7736ZM213.69 13.7736C213.839 13.6251 214.04 13.5418 214.25 13.5418C214.46 13.5418 214.661 13.6251 214.81 13.7736L217.976 16.9402C218.125 17.0887 218.208 17.29 218.208 17.4999C218.208 17.7099 218.125 17.9112 217.976 18.0596L214.81 21.2263C214.66 21.3705 214.46 21.4503 214.253 21.4485C214.045 21.4467 213.847 21.3634 213.7 21.2167C213.553 21.0699 213.47 20.8713 213.468 20.6637C213.466 20.4562 213.546 20.2562 213.69 20.1069L216.297 17.4999L213.69 14.893C213.542 14.7445 213.459 14.5432 213.459 14.3333C213.459 14.1233 213.542 13.922 213.69 13.7736V13.7736Z" fill="#C2C2C2"/>
<path d="M286 26H274C272.939 26 271.922 25.5786 271.172 24.8284C270.421 24.0783 270 23.0609 270 22V10C270 8.93913 270.421 7.92172 271.172 7.17157C271.922 6.42143 272.939 6 274 6H286C287.061 6 288.078 6.42143 288.828 7.17157C289.579 7.92172 290 8.93913 290 10V22C290 23.0609 289.579 24.0783 288.828 24.8284C288.078 25.5786 287.061 26 286 26ZM274 8C273.47 8 272.961 8.21071 272.586 8.58579C272.211 8.96086 272 9.46957 272 10V22C272 22.5304 272.211 23.0391 272.586 23.4142C272.961 23.7893 273.47 24 274 24H286C286.53 24 287.039 23.7893 287.414 23.4142C287.789 23.0391 288 22.5304 288 22V10C288 9.46957 287.789 8.96086 287.414 8.58579C287.039 8.21071 286.53 8 286 8H274ZM283.762 20.776C283.33 20.7934 282.898 20.7226 282.494 20.5679C282.09 20.4132 281.721 20.1777 281.411 19.876C280.761 19.1354 280.428 18.1696 280.483 17.186C280.463 16.23 280.804 15.3017 281.438 14.586C281.769 14.2355 282.171 13.9591 282.617 13.7749C283.063 13.5907 283.543 13.5028 284.025 13.517H284.258V11.517C284.258 11.361 284.385 11.234 284.541 11.233H285.858C285.931 11.2303 286.003 11.2553 286.058 11.303C286.085 11.3286 286.106 11.3597 286.12 11.3942C286.135 11.4287 286.141 11.4658 286.14 11.503V19.182C286.135 19.447 286.149 19.712 286.18 19.975V20C286.182 20.0636 286.162 20.1259 286.124 20.177C286.091 20.2171 286.05 20.2493 286.003 20.271C285.309 20.6023 284.55 20.7751 283.781 20.777L283.762 20.776V20.776ZM282.846 15.66L282.841 15.666C282.524 16.0828 282.365 16.5981 282.391 17.121C282.35 17.6658 282.507 18.2071 282.834 18.645C283.101 18.939 283.486 19.099 283.883 19.079C284.009 19.081 284.135 19.068 284.258 19.041V15.192C284.165 15.172 284.069 15.1623 283.974 15.163C283.761 15.1573 283.549 15.1992 283.354 15.2857C283.158 15.3722 282.985 15.5011 282.846 15.663V15.66V15.66ZM280.225 20.66H278.774C278.699 20.6649 278.625 20.6463 278.562 20.6068C278.498 20.5674 278.449 20.509 278.42 20.44L278.21 20L278.205 19.989L278 19.58L277.936 19.447C277.617 18.789 277.288 18.111 276.958 17.413C276.499 18.4296 276.027 19.44 275.541 20.444V20.454L275.536 20.463C275.503 20.5191 275.456 20.5661 275.4 20.6C275.343 20.6339 275.278 20.6512 275.212 20.65H273.841C273.784 20.6528 273.727 20.6369 273.68 20.6046C273.632 20.5723 273.596 20.5254 273.578 20.471C273.566 20.4296 273.564 20.386 273.571 20.3435C273.578 20.301 273.596 20.2608 273.621 20.226L275.85 15.965L273.694 11.651C273.665 11.609 273.648 11.5597 273.646 11.5087C273.644 11.4578 273.657 11.4072 273.682 11.363C273.706 11.3229 273.741 11.2897 273.782 11.2668C273.823 11.2438 273.869 11.2319 273.916 11.232H275.35C275.42 11.2283 275.489 11.2442 275.55 11.278C275.612 11.316 275.66 11.373 275.686 11.441C276.222 12.566 276.674 13.541 277.069 14.406C277.56 13.306 278.082 12.188 278.432 11.447L278.437 11.436L278.443 11.426V11.415C278.468 11.3722 278.499 11.3335 278.536 11.3C278.598 11.2484 278.676 11.221 278.757 11.223H280.1C280.151 11.2216 280.202 11.2352 280.246 11.262C280.29 11.2888 280.325 11.3277 280.347 11.374C280.365 11.4164 280.372 11.4625 280.368 11.5083C280.364 11.5541 280.349 11.5983 280.324 11.637L278.167 15.824L280.449 20.224C280.473 20.2622 280.488 20.3053 280.493 20.3502C280.498 20.395 280.493 20.4404 280.478 20.483C280.459 20.5348 280.425 20.5794 280.379 20.6108C280.334 20.6421 280.28 20.6586 280.225 20.658V20.66V20.66Z" fill="#C2C2C2"/>
<path d="M142 11L142.53 10.47C142.389 10.3295 142.199 10.2507 142 10.2507C141.801 10.2507 141.611 10.3295 141.47 10.47L142 11ZM142 19L141.47 19.53C141.611 19.6705 141.801 19.7493 142 19.7493C142.199 19.7493 142.389 19.6705 142.53 19.53L142 19ZM139.47 12.47C139.338 12.6122 139.265 12.8002 139.269 12.9945C139.272 13.1888 139.351 13.3742 139.488 13.5116C139.626 13.649 139.811 13.7277 140.005 13.7312C140.2 13.7346 140.388 13.6625 140.53 13.53L139.47 12.47ZM143.47 13.53C143.539 13.6037 143.621 13.6628 143.713 13.7038C143.805 13.7448 143.905 13.7668 144.005 13.7686C144.106 13.7704 144.206 13.7518 144.3 13.7141C144.393 13.6764 144.478 13.6203 144.549 13.549C144.62 13.4778 144.676 13.393 144.714 13.2996C144.752 13.2062 144.77 13.1062 144.769 13.0055C144.767 12.9048 144.745 12.8055 144.704 12.7135C144.663 12.6215 144.604 12.5387 144.53 12.47L143.47 13.53ZM140.53 16.47C140.461 16.3963 140.379 16.3372 140.287 16.2962C140.195 16.2552 140.095 16.2332 139.995 16.2314C139.894 16.2296 139.794 16.2482 139.7 16.2859C139.607 16.3236 139.522 16.3797 139.451 16.451C139.38 16.5222 139.324 16.607 139.286 16.7004C139.248 16.7938 139.23 16.8938 139.231 16.9945C139.233 17.0952 139.255 17.1945 139.296 17.2865C139.337 17.3785 139.396 17.4613 139.47 17.53L140.53 16.47ZM144.53 17.53C144.604 17.4613 144.663 17.3785 144.704 17.2865C144.745 17.1945 144.767 17.0952 144.769 16.9945C144.77 16.8938 144.752 16.7938 144.714 16.7004C144.676 16.607 144.62 16.5222 144.549 16.451C144.478 16.3797 144.393 16.3236 144.3 16.2859C144.206 16.2482 144.106 16.2296 144.005 16.2314C143.905 16.2332 143.805 16.2552 143.713 16.2962C143.621 16.3372 143.539 16.3963 143.47 16.47L144.53 17.53ZM133.25 16V20H134.75V16H133.25ZM150.75 20V16H149.25V20H150.75ZM141.25 11V19H142.75V11H141.25ZM141.47 10.47L139.47 12.47L140.53 13.53L142.53 11.53L141.47 10.47V10.47ZM141.47 11.53L143.47 13.53L144.53 12.47L142.53 10.47L141.47 11.53ZM142.53 18.47L140.53 16.47L139.47 17.53L141.47 19.53L142.53 18.47ZM142.53 19.53L144.53 17.53L143.47 16.47L141.47 18.47L142.53 19.53ZM150.75 16C150.75 13.6794 149.828 11.4538 148.187 9.81282C146.546 8.17187 144.321 7.25 142 7.25V8.75C143.923 8.75 145.767 9.51384 147.127 10.8735C148.486 12.2331 149.25 14.0772 149.25 16H150.75ZM142 28.75C143.149 28.75 144.287 28.5237 145.348 28.0839C146.41 27.6442 147.375 26.9997 148.187 26.1872C149 25.3747 149.644 24.4101 150.084 23.3485C150.524 22.2869 150.75 21.1491 150.75 20H149.25C149.25 21.9228 148.486 23.7669 147.127 25.1265C145.767 26.4862 143.923 27.25 142 27.25V28.75ZM133.25 20C133.25 22.3206 134.172 24.5462 135.813 26.1872C137.454 27.8281 139.679 28.75 142 28.75V27.25C140.077 27.25 138.233 26.4862 136.873 25.1265C135.514 23.7669 134.75 21.9228 134.75 20H133.25ZM134.75 16C134.75 14.0772 135.514 12.2331 136.873 10.8735C138.233 9.51384 140.077 8.75 142 8.75V7.25C139.679 7.25 137.454 8.17187 135.813 9.81282C134.172 11.4538 133.25 13.6794 133.25 16H134.75Z" fill="#C2C2C2"/>
<path d="M154.89 14.7456V17H153.571V10.6016H156.067C156.548 10.6016 156.97 10.6895 157.333 10.8652C157.699 11.041 157.98 11.2915 158.177 11.6167C158.373 11.939 158.471 12.3066 158.471 12.7197C158.471 13.3467 158.256 13.8418 157.825 14.2051C157.397 14.5654 156.804 14.7456 156.045 14.7456H154.89ZM154.89 13.6777H156.067C156.416 13.6777 156.681 13.5957 156.863 13.4316C157.047 13.2676 157.14 13.0332 157.14 12.7285C157.14 12.415 157.047 12.1616 156.863 11.9683C156.678 11.7749 156.423 11.6753 156.098 11.6694H154.89V13.6777ZM161.82 17C161.761 16.8857 161.719 16.7437 161.693 16.5737C161.385 16.9165 160.985 17.0879 160.493 17.0879C160.027 17.0879 159.64 16.9531 159.333 16.6836C159.028 16.4141 158.876 16.0742 158.876 15.6641C158.876 15.1602 159.062 14.7734 159.434 14.5039C159.809 14.2344 160.349 14.0981 161.055 14.0952H161.64V13.8228C161.64 13.603 161.583 13.4272 161.468 13.2954C161.357 13.1636 161.18 13.0977 160.937 13.0977C160.723 13.0977 160.554 13.1489 160.431 13.2515C160.311 13.354 160.251 13.4946 160.251 13.6733H158.981C158.981 13.3979 159.066 13.1431 159.236 12.9087C159.406 12.6743 159.646 12.4912 159.957 12.3594C160.267 12.2246 160.616 12.1572 161.003 12.1572C161.589 12.1572 162.053 12.3052 162.396 12.6011C162.741 12.894 162.914 13.3071 162.914 13.8403V15.9014C162.917 16.3525 162.98 16.6938 163.103 16.9253V17H161.82ZM160.77 16.1167C160.957 16.1167 161.13 16.0757 161.288 15.9937C161.446 15.9087 161.564 15.7959 161.64 15.6553V14.8379H161.165C160.529 14.8379 160.191 15.0576 160.15 15.4971L160.146 15.5718C160.146 15.73 160.201 15.8604 160.313 15.9629C160.424 16.0654 160.576 16.1167 160.77 16.1167ZM166.382 13.436C166.209 13.4126 166.057 13.4009 165.925 13.4009C165.444 13.4009 165.129 13.5635 164.98 13.8887V17H163.71V12.2451H164.91L164.945 12.812C165.2 12.3755 165.553 12.1572 166.004 12.1572C166.144 12.1572 166.276 12.1763 166.399 12.2144L166.382 13.436ZM169.44 17C169.382 16.8857 169.339 16.7437 169.313 16.5737C169.005 16.9165 168.606 17.0879 168.113 17.0879C167.648 17.0879 167.261 16.9531 166.953 16.6836C166.648 16.4141 166.496 16.0742 166.496 15.6641C166.496 15.1602 166.682 14.7734 167.054 14.5039C167.429 14.2344 167.97 14.0981 168.676 14.0952H169.26V13.8228C169.26 13.603 169.203 13.4272 169.089 13.2954C168.978 13.1636 168.8 13.0977 168.557 13.0977C168.343 13.0977 168.175 13.1489 168.052 13.2515C167.932 13.354 167.872 13.4946 167.872 13.6733H166.602C166.602 13.3979 166.687 13.1431 166.856 12.9087C167.026 12.6743 167.267 12.4912 167.577 12.3594C167.888 12.2246 168.236 12.1572 168.623 12.1572C169.209 12.1572 169.673 12.3052 170.016 12.6011C170.362 12.894 170.535 13.3071 170.535 13.8403V15.9014C170.538 16.3525 170.601 16.6938 170.724 16.9253V17H169.44ZM168.39 16.1167C168.578 16.1167 168.751 16.0757 168.909 15.9937C169.067 15.9087 169.184 15.7959 169.26 15.6553V14.8379H168.786C168.15 14.8379 167.812 15.0576 167.771 15.4971L167.766 15.5718C167.766 15.73 167.822 15.8604 167.933 15.9629C168.044 16.0654 168.197 16.1167 168.39 16.1167ZM172.671 17H171.396V10.25H172.671V17ZM174.881 17H173.607V10.25H174.881V17ZM178.507 17C178.448 16.8857 178.406 16.7437 178.379 16.5737C178.072 16.9165 177.672 17.0879 177.18 17.0879C176.714 17.0879 176.327 16.9531 176.02 16.6836C175.715 16.4141 175.563 16.0742 175.563 15.6641C175.563 15.1602 175.749 14.7734 176.121 14.5039C176.496 14.2344 177.036 14.0981 177.742 14.0952H178.327V13.8228C178.327 13.603 178.27 13.4272 178.155 13.2954C178.044 13.1636 177.867 13.0977 177.624 13.0977C177.41 13.0977 177.241 13.1489 177.118 13.2515C176.998 13.354 176.938 13.4946 176.938 13.6733H175.668C175.668 13.3979 175.753 13.1431 175.923 12.9087C176.093 12.6743 176.333 12.4912 176.644 12.3594C176.954 12.2246 177.303 12.1572 177.69 12.1572C178.275 12.1572 178.74 12.3052 179.083 12.6011C179.428 12.894 179.601 13.3071 179.601 13.8403V15.9014C179.604 16.3525 179.667 16.6938 179.79 16.9253V17H178.507ZM177.457 16.1167C177.644 16.1167 177.817 16.0757 177.975 15.9937C178.133 15.9087 178.251 15.7959 178.327 15.6553V14.8379H177.852C177.216 14.8379 176.878 15.0576 176.837 15.4971L176.833 15.5718C176.833 15.73 176.888 15.8604 177 15.9629C177.111 16.0654 177.263 16.1167 177.457 16.1167ZM182.207 13.6646L183.007 12.2451H184.365L183.011 14.5742L184.422 17H183.06L182.212 15.5059L181.368 17H180.001L181.412 14.5742L180.063 12.2451H181.425L182.207 13.6646Z" fill="#C2C2C2"/>
<path d="M227.414 10.6016V14.8159C227.414 15.5161 227.194 16.0698 226.755 16.4771C226.318 16.8843 225.721 17.0879 224.962 17.0879C224.215 17.0879 223.622 16.8901 223.182 16.4946C222.743 16.0991 222.519 15.5557 222.51 14.8643V10.6016H223.828V14.8247C223.828 15.2437 223.928 15.5498 224.127 15.7432C224.329 15.9336 224.607 16.0288 224.962 16.0288C225.703 16.0288 226.08 15.6392 226.091 14.8599V10.6016H227.414ZM229.401 12.2451L229.44 12.7944C229.78 12.3696 230.236 12.1572 230.807 12.1572C231.311 12.1572 231.686 12.3052 231.932 12.6011C232.178 12.897 232.304 13.3394 232.31 13.9282V17H231.04V13.959C231.04 13.6895 230.981 13.4946 230.864 13.3745C230.747 13.2515 230.552 13.1899 230.279 13.1899C229.922 13.1899 229.654 13.3423 229.475 13.647V17H228.205V12.2451H229.401ZM234.437 17H233.162V12.2451H234.437V17ZM233.088 11.0146C233.088 10.8242 233.151 10.6675 233.277 10.5444C233.406 10.4214 233.58 10.3599 233.8 10.3599C234.016 10.3599 234.189 10.4214 234.318 10.5444C234.447 10.6675 234.512 10.8242 234.512 11.0146C234.512 11.208 234.446 11.3662 234.314 11.4893C234.185 11.6123 234.014 11.6738 233.8 11.6738C233.586 11.6738 233.413 11.6123 233.281 11.4893C233.152 11.3662 233.088 11.208 233.088 11.0146ZM236.828 11.0762V12.2451H237.641V13.1768H236.828V15.5498C236.828 15.7256 236.861 15.8516 236.929 15.9277C236.996 16.0039 237.125 16.042 237.315 16.042C237.456 16.042 237.581 16.0317 237.689 16.0112V16.9736C237.44 17.0498 237.184 17.0879 236.92 17.0879C236.029 17.0879 235.575 16.6382 235.558 15.7388V13.1768H234.863V12.2451H235.558V11.0762H236.828Z" fill="#C2C2C2"/>
<path d="M227.388 19.6694H225.428V25H224.109V19.6694H222.176V18.6016H227.388V19.6694ZM229.673 25.0879C228.976 25.0879 228.407 24.874 227.968 24.4463C227.531 24.0186 227.313 23.4487 227.313 22.7368V22.6138C227.313 22.1362 227.405 21.71 227.59 21.335C227.775 20.957 228.035 20.667 228.372 20.4648C228.712 20.2598 229.099 20.1572 229.532 20.1572C230.183 20.1572 230.694 20.3623 231.066 20.7725C231.441 21.1826 231.629 21.7642 231.629 22.5171V23.0356H228.601C228.642 23.3462 228.765 23.5952 228.97 23.7827C229.178 23.9702 229.44 24.064 229.757 24.064C230.246 24.064 230.628 23.8867 230.903 23.5322L231.528 24.231C231.337 24.5005 231.079 24.7114 230.754 24.8638C230.429 25.0132 230.069 25.0879 229.673 25.0879ZM229.528 21.1855C229.276 21.1855 229.071 21.2705 228.913 21.4404C228.758 21.6104 228.658 21.8535 228.614 22.1699H230.381V22.0688C230.375 21.7876 230.299 21.5708 230.152 21.4185C230.006 21.2632 229.798 21.1855 229.528 21.1855ZM234.749 23.686C234.749 23.5308 234.671 23.4092 234.516 23.3213C234.364 23.2305 234.118 23.1499 233.778 23.0796C232.647 22.8423 232.081 22.3618 232.081 21.6382C232.081 21.2163 232.256 20.8647 232.604 20.5835C232.956 20.2993 233.414 20.1572 233.98 20.1572C234.583 20.1572 235.065 20.2993 235.426 20.5835C235.789 20.8677 235.971 21.2368 235.971 21.6909H234.701C234.701 21.5093 234.642 21.3599 234.525 21.2427C234.408 21.1226 234.224 21.0625 233.975 21.0625C233.762 21.0625 233.596 21.1108 233.479 21.2075C233.362 21.3042 233.303 21.4272 233.303 21.5767C233.303 21.7173 233.369 21.8315 233.501 21.9194C233.636 22.0044 233.861 22.0791 234.178 22.1436C234.494 22.2051 234.761 22.2754 234.977 22.3545C235.648 22.6006 235.984 23.0269 235.984 23.6333C235.984 24.0669 235.798 24.4185 235.426 24.688C235.054 24.9546 234.573 25.0879 233.984 25.0879C233.586 25.0879 233.231 25.0176 232.921 24.877C232.613 24.7334 232.371 24.5386 232.196 24.2925C232.02 24.0435 231.932 23.7754 231.932 23.4883H233.136C233.148 23.7139 233.231 23.8867 233.387 24.0068C233.542 24.127 233.75 24.187 234.011 24.187C234.254 24.187 234.437 24.1416 234.56 24.0508C234.686 23.957 234.749 23.8354 234.749 23.686ZM238.146 19.0762V20.2451H238.959V21.1768H238.146V23.5498C238.146 23.7256 238.18 23.8516 238.247 23.9277C238.314 24.0039 238.443 24.042 238.634 24.042C238.774 24.042 238.899 24.0317 239.007 24.0112V24.9736C238.758 25.0498 238.502 25.0879 238.238 25.0879C237.348 25.0879 236.894 24.6382 236.876 23.7388V21.1768H236.182V20.2451H236.876V19.0762H238.146ZM240.827 25H239.552V20.2451H240.827V25ZM239.478 19.0146C239.478 18.8242 239.541 18.6675 239.667 18.5444C239.796 18.4214 239.97 18.3599 240.19 18.3599C240.406 18.3599 240.579 18.4214 240.708 18.5444C240.837 18.6675 240.902 18.8242 240.902 19.0146C240.902 19.208 240.836 19.3662 240.704 19.4893C240.575 19.6123 240.404 19.6738 240.19 19.6738C239.976 19.6738 239.803 19.6123 239.671 19.4893C239.542 19.3662 239.478 19.208 239.478 19.0146ZM242.866 20.2451L242.906 20.7944C243.246 20.3696 243.701 20.1572 244.272 20.1572C244.776 20.1572 245.151 20.3052 245.397 20.6011C245.643 20.897 245.769 21.3394 245.775 21.9282V25H244.505V21.959C244.505 21.6895 244.447 21.4946 244.329 21.3745C244.212 21.2515 244.017 21.1899 243.745 21.1899C243.388 21.1899 243.12 21.3423 242.941 21.647V25H241.671V20.2451H242.866ZM246.378 22.5874C246.378 21.8579 246.55 21.2705 246.896 20.8252C247.245 20.3799 247.713 20.1572 248.302 20.1572C248.824 20.1572 249.23 20.3359 249.52 20.6934L249.572 20.2451H250.724V24.8418C250.724 25.2578 250.628 25.6196 250.438 25.9272C250.251 26.2349 249.985 26.4692 249.643 26.6304C249.3 26.7915 248.899 26.8721 248.439 26.8721C248.09 26.8721 247.75 26.8018 247.419 26.6611C247.088 26.5234 246.837 26.3447 246.668 26.125L247.23 25.3516C247.546 25.7061 247.93 25.8833 248.381 25.8833C248.718 25.8833 248.981 25.7925 249.168 25.6108C249.356 25.4321 249.449 25.1772 249.449 24.8462V24.5913C249.156 24.9224 248.771 25.0879 248.294 25.0879C247.722 25.0879 247.259 24.8652 246.905 24.4199C246.553 23.9717 246.378 23.3784 246.378 22.6401V22.5874ZM247.648 22.6797C247.648 23.1104 247.734 23.4487 247.907 23.6948C248.08 23.938 248.317 24.0596 248.619 24.0596C249.005 24.0596 249.282 23.9146 249.449 23.6245V21.625C249.279 21.335 249.005 21.1899 248.628 21.1899C248.323 21.1899 248.083 21.3145 247.907 21.5635C247.734 21.8125 247.648 22.1846 247.648 22.6797Z" fill="#C2C2C2"/>
<path d="M156.889 23.3213C156.889 23.0723 156.801 22.8818 156.625 22.75C156.45 22.6152 156.133 22.4746 155.676 22.3281C155.219 22.1787 154.857 22.0322 154.591 21.8887C153.864 21.4961 153.501 20.9673 153.501 20.3022C153.501 19.9565 153.598 19.6489 153.791 19.3794C153.987 19.1069 154.267 18.8945 154.63 18.7422C154.997 18.5898 155.407 18.5137 155.861 18.5137C156.318 18.5137 156.725 18.5972 157.083 18.7642C157.44 18.9282 157.717 19.1611 157.913 19.4629C158.112 19.7646 158.212 20.1074 158.212 20.4912H156.894C156.894 20.1982 156.801 19.9712 156.617 19.8101C156.432 19.646 156.173 19.564 155.839 19.564C155.517 19.564 155.266 19.6328 155.087 19.7705C154.909 19.9053 154.819 20.084 154.819 20.3066C154.819 20.5146 154.923 20.689 155.131 20.8296C155.342 20.9702 155.651 21.1021 156.059 21.2251C156.809 21.4507 157.355 21.7305 157.698 22.0645C158.041 22.3984 158.212 22.8145 158.212 23.3125C158.212 23.8662 158.002 24.3013 157.583 24.6177C157.165 24.9312 156.601 25.0879 155.892 25.0879C155.399 25.0879 154.951 24.9985 154.547 24.8198C154.143 24.6382 153.833 24.3906 153.62 24.0771C153.409 23.7637 153.303 23.4004 153.303 22.9873H154.626C154.626 23.6934 155.048 24.0464 155.892 24.0464C156.205 24.0464 156.45 23.9834 156.625 23.8574C156.801 23.7285 156.889 23.5498 156.889 23.3213ZM160.822 24.064C161.057 24.064 161.247 23.9995 161.394 23.8706C161.54 23.7417 161.616 23.5703 161.622 23.3564H162.813C162.81 23.6787 162.722 23.9746 162.549 24.2441C162.377 24.5107 162.139 24.7188 161.838 24.8682C161.539 25.0146 161.208 25.0879 160.844 25.0879C160.165 25.0879 159.629 24.8726 159.236 24.4419C158.843 24.0083 158.647 23.4106 158.647 22.6489V22.5654C158.647 21.833 158.842 21.2485 159.232 20.812C159.621 20.3755 160.156 20.1572 160.836 20.1572C161.43 20.1572 161.906 20.3271 162.264 20.667C162.624 21.0039 162.807 21.4536 162.813 22.0161H161.622C161.616 21.77 161.54 21.5708 161.394 21.4185C161.247 21.2632 161.054 21.1855 160.814 21.1855C160.518 21.1855 160.294 21.2939 160.141 21.5107C159.992 21.7246 159.917 22.0732 159.917 22.5566V22.6885C159.917 23.1777 159.992 23.5293 160.141 23.7432C160.291 23.957 160.518 24.064 160.822 24.064ZM166.03 21.436C165.857 21.4126 165.705 21.4009 165.573 21.4009C165.093 21.4009 164.778 21.5635 164.628 21.8887V25H163.358V20.2451H164.558L164.593 20.812C164.848 20.3755 165.201 20.1572 165.652 20.1572C165.793 20.1572 165.925 20.1763 166.048 20.2144L166.03 21.436ZM166.109 22.5786C166.109 22.1069 166.2 21.6865 166.382 21.3174C166.564 20.9482 166.824 20.6626 167.164 20.4604C167.507 20.2583 167.904 20.1572 168.355 20.1572C168.997 20.1572 169.52 20.3535 169.924 20.7461C170.331 21.1387 170.558 21.6719 170.605 22.3457L170.614 22.6709C170.614 23.4004 170.41 23.9863 170.003 24.4287C169.596 24.8682 169.049 25.0879 168.364 25.0879C167.678 25.0879 167.13 24.8682 166.72 24.4287C166.313 23.9893 166.109 23.3916 166.109 22.6357V22.5786ZM167.379 22.6709C167.379 23.1221 167.464 23.4678 167.634 23.708C167.804 23.9453 168.047 24.064 168.364 24.064C168.671 24.064 168.912 23.9468 169.085 23.7124C169.257 23.4751 169.344 23.0972 169.344 22.5786C169.344 22.1362 169.257 21.7935 169.085 21.5503C168.912 21.3071 168.668 21.1855 168.355 21.1855C168.044 21.1855 167.804 21.3071 167.634 21.5503C167.464 21.7905 167.379 22.1641 167.379 22.6709ZM172.556 25H171.282V18.25H172.556V25ZM174.767 25H173.493V18.25H174.767V25Z" fill="#C2C2C2"/>
<g clip-path="url(#clip0)">
<path d="M115.984 24.349C115.875 23.4643 115.426 22.6969 114.648 22.0653C114.638 22.0535 114.627 22.0426 114.616 22.0326L114.576 22.0044L114.564 21.9955L114.15 21.6987L114.136 21.6883L114.084 21.6512C114.064 21.6399 114.044 21.6311 114.022 21.6252C112.714 20.8466 110.549 20.3011 107.237 21.4701C106.447 20.1401 106.357 19.0743 106.886 17.4415C106.98 17.1572 106.893 16.9694 106.611 16.8477C106.044 16.6065 105.267 16.7297 104.717 16.8752C104.46 16.942 104.305 17.0874 104.256 17.3079C103.908 18.9407 102.894 20.4325 101.913 21.8723L101.855 21.9569C101.251 20.6759 101.377 19.6836 101.797 18.4404C101.881 18.1926 101.815 18.0278 101.583 17.9046C100.934 17.5699 99.9613 17.7999 99.5739 17.9142C99.0826 18.0575 98.5556 19.3853 97.9671 20.975C97.8186 21.3751 97.691 21.7172 97.6145 21.8768C97.4327 22.2479 97.259 22.6709 97.075 23.1199C96.6593 24.136 96.191 25.2797 95.5216 25.9981C95.2781 25.4601 95.6611 24.6117 96.0329 23.7887C96.473 22.8156 96.8887 21.8961 96.41 21.309C96.3343 21.2162 96.2403 21.1399 96.134 21.0847C96.0277 21.0296 95.9112 20.9968 95.7917 20.9884C95.6358 20.9765 95.4794 21.002 95.3353 21.0626C95.385 20.6433 95.3872 20.3122 95.2648 19.9122C95.0896 19.3415 94.6346 19.0216 94.0082 19.0387C92.5818 19.0802 91.375 20.143 90.6127 21.0277C90.1051 21.6215 88.9799 22.0742 87.9921 22.4713C87.6017 22.6368 87.2306 22.7852 86.9211 22.9337C86.4275 22.5165 85.8004 22.0957 85.1398 21.6512C83.2844 20.4058 81.1818 18.9934 81.109 17.0785C81.0051 14.2501 84.2262 12.2439 87.0376 10.8122C89.1684 9.72865 91.0209 9.01021 92.7012 8.61759C95.0614 8.06615 97.0549 8.17748 98.6254 8.94713C99.4848 9.36795 99.8871 10.2831 99.6318 11.2242C98.9638 13.6697 96.1962 15.3455 93.8294 16.0996C92.4036 16.5538 91.1902 16.7438 90.1184 16.6815C88.7751 16.6035 87.6781 15.9296 87.2091 15.6424C87.1339 15.5911 87.0544 15.5464 86.9716 15.5088L86.95 15.5036C86.9076 15.493 86.863 15.4944 86.8212 15.5075C86.7795 15.5206 86.7421 15.5449 86.7133 15.5778C86.6168 15.6929 86.6509 15.8747 86.6858 15.9667C87.1423 17.1594 88.0848 17.9128 89.4868 18.2059C89.9457 18.2978 90.4127 18.3423 90.8807 18.3388C94.1619 18.3388 98.3486 16.4469 99.8864 14.8891C100.935 13.8278 101.699 12.7367 102.015 10.8553C102.345 8.88478 101.009 7.51545 99.6481 6.88459C96.3402 5.35791 92.5832 5.9613 90.0138 6.73615C87.0079 7.64236 83.8982 9.29002 81.4831 11.2583C78.5054 13.683 77.4293 15.9341 78.2828 17.9565C79.1593 20.0295 81.2968 21.3261 83.3638 22.5804C84.0318 22.9849 84.6671 23.3701 85.2393 23.7679C85.0671 23.8517 84.8912 23.9371 84.7123 24.0224C82.9771 24.8633 81.0088 25.8096 79.9171 27.3734C79.1244 28.5127 78.976 29.6467 79.4762 30.7444C79.7434 31.3285 80.2184 31.7249 80.8782 31.9223C81.2214 32.0195 81.5769 32.0668 81.9336 32.0626C83.2183 32.0626 84.6322 31.543 85.4018 31.0628C86.7615 30.2093 87.6425 29.0634 88.021 27.6569C88.358 26.4056 88.2771 25.1624 87.7872 24.0529L89.4534 23.2127C88.6496 25.8846 89.2657 27.4803 89.9425 28.3605C90.1919 28.6849 90.6417 28.8801 91.1441 28.889C91.6466 28.8979 92.109 28.7086 92.3702 28.3865C92.8645 27.7742 93.2297 27.058 93.5659 26.3418C93.5481 26.8094 93.5703 27.2829 93.7299 27.6844C93.8732 28.0458 94.1092 28.2856 94.4135 28.3776C94.7371 28.4763 95.1163 28.3932 95.4815 28.1438C97.1269 27.0179 98.2521 24.3156 99.156 22.1432C99.2844 21.8345 99.4077 21.5376 99.5271 21.26C99.7508 22.0604 100.062 22.8337 100.455 23.566C100.542 23.7248 100.535 23.7946 100.416 23.9252C100.237 24.1212 99.988 24.3579 99.7238 24.6088C98.9237 25.368 97.9277 26.3158 97.7941 27.1493C97.7422 27.4833 97.9723 27.7876 98.3293 27.8566C99.4032 28.0703 100.697 27.7579 101.791 27.0216C102.785 26.3537 103.159 25.4222 102.904 24.2614C102.657 23.1437 103.221 21.7558 104.581 20.1334C104.803 21.0633 105.1 21.8152 105.51 22.4735L105.499 22.4824C104.509 23.3471 103.152 24.5308 103.363 25.967C103.38 26.1036 103.426 26.2349 103.498 26.3528C103.569 26.4706 103.664 26.5723 103.777 26.6513C103.897 26.7327 104.034 26.7882 104.177 26.8146C104.32 26.8409 104.467 26.8373 104.608 26.8042C105.905 26.5318 106.881 25.9833 107.59 25.129C108.3 24.2748 108.041 23.3278 107.802 22.593C109.657 22.0898 111.309 22.1024 112.856 22.6301C113.724 22.927 114.347 23.4146 114.706 24.0878C115.158 24.9346 114.914 25.7161 114.017 26.2883C113.742 26.4642 113.609 26.5719 113.601 26.7077C113.599 26.7392 113.604 26.7707 113.617 26.7995C113.63 26.8283 113.65 26.8536 113.675 26.8732C113.779 26.9585 114.099 27.107 114.824 26.6505C115.492 26.2312 115.884 25.6604 115.984 24.9435C116.005 24.7458 116.004 24.5466 115.984 24.349V24.349ZM86.3162 26.2089L86.3088 26.3039C86.193 27.3905 85.6408 28.3375 84.6648 29.1242C84.0518 29.6185 83.3861 29.9221 82.7908 29.98C82.3752 30.0201 82.0731 29.9637 81.8935 29.8115C81.7592 29.6979 81.6872 29.528 81.6709 29.292C81.5491 27.4009 84.5149 25.5217 86.1841 24.9034C86.3032 25.3277 86.3479 25.7694 86.3162 26.2089V26.2089ZM93.9125 20.8756C93.6379 22.4408 92.8371 25.3955 91.5783 26.5422C91.5182 26.5971 91.4677 26.6164 91.4447 26.6112C91.4217 26.606 91.4039 26.5785 91.3853 26.537C90.9653 25.5632 91.1204 23.9185 91.7564 22.6264C92.2455 21.6304 92.9439 20.9706 93.7247 20.7709C93.7571 20.762 93.7906 20.7572 93.8242 20.7568C93.8505 20.755 93.8766 20.762 93.8984 20.7769C93.9076 20.7914 93.9136 20.8077 93.916 20.8247C93.9184 20.8417 93.9172 20.859 93.9125 20.8756V20.8756ZM100.109 26.5815C99.8723 26.8287 99.5479 26.7953 99.6244 26.7047L100.83 25.4252C100.732 25.8653 100.445 26.2297 100.109 26.5815V26.5815ZM105.109 25.4749C104.995 25.5314 104.87 25.5664 104.743 25.5781C104.709 24.9049 105.361 24.1471 106.005 23.6417C106.178 24.3438 105.824 25.086 105.109 25.4749Z" fill="#C2C2C2"/>
</g>
<path d="M33.8999 23V13.7578H32.7891V17.7314H28.9995V13.7578H27.895V23H28.9995V18.728H32.7891V23H33.8999ZM34.932 19.5024V19.6421C34.932 20.1372 35.004 20.5964 35.1479 21.0195C35.2917 21.4427 35.4991 21.8109 35.7699 22.124C36.0365 22.4372 36.3624 22.6826 36.7475 22.8604C37.1368 23.0381 37.5748 23.127 38.0614 23.127C38.5438 23.127 38.9776 23.0381 39.3627 22.8604C39.7478 22.6826 40.0757 22.4372 40.3466 22.124C40.6132 21.8109 40.8184 21.4427 40.9623 21.0195C41.1062 20.5964 41.1781 20.1372 41.1781 19.6421V19.5024C41.1781 19.0073 41.1062 18.5482 40.9623 18.125C40.8184 17.6976 40.6132 17.3273 40.3466 17.0142C40.0757 16.701 39.7457 16.4556 39.3563 16.2778C38.9713 16.0959 38.5354 16.0049 38.0487 16.0049C37.5663 16.0049 37.1326 16.0959 36.7475 16.2778C36.3624 16.4556 36.0365 16.701 35.7699 17.0142C35.4991 17.3273 35.2917 17.6976 35.1479 18.125C35.004 18.5482 34.932 19.0073 34.932 19.5024ZM36.1063 19.6421V19.5024C36.1063 19.1681 36.1465 18.8486 36.227 18.5439C36.3074 18.235 36.4301 17.9642 36.5951 17.7314C36.7559 17.4987 36.9569 17.3146 37.1981 17.1792C37.4394 17.0396 37.7229 16.9697 38.0487 16.9697C38.3746 16.9697 38.6581 17.0396 38.8993 17.1792C39.1448 17.3146 39.35 17.4987 39.515 17.7314C39.6758 17.9642 39.7965 18.235 39.8769 18.5439C39.9615 18.8486 40.0038 19.1681 40.0038 19.5024V19.6421C40.0038 19.9806 39.9636 20.3044 39.8832 20.6133C39.8028 20.918 39.6822 21.1867 39.5214 21.4194C39.3563 21.6522 39.1511 21.8363 38.9057 21.9717C38.6645 22.1071 38.383 22.1748 38.0614 22.1748C37.7356 22.1748 37.4499 22.1071 37.2045 21.9717C36.959 21.8363 36.7559 21.6522 36.5951 21.4194C36.4301 21.1867 36.3074 20.918 36.227 20.6133C36.1465 20.3044 36.1063 19.9806 36.1063 19.6421ZM42.0896 19.5024V19.6421C42.0896 20.1372 42.1616 20.5964 42.3055 21.0195C42.4493 21.4427 42.6567 21.8109 42.9275 22.124C43.1941 22.4372 43.52 22.6826 43.9051 22.8604C44.2944 23.0381 44.7324 23.127 45.219 23.127C45.7015 23.127 46.1352 23.0381 46.5203 22.8604C46.9054 22.6826 47.2334 22.4372 47.5042 22.124C47.7708 21.8109 47.976 21.4427 48.1199 21.0195C48.2638 20.5964 48.3357 20.1372 48.3357 19.6421V19.5024C48.3357 19.0073 48.2638 18.5482 48.1199 18.125C47.976 17.6976 47.7708 17.3273 47.5042 17.0142C47.2334 16.701 46.9033 16.4556 46.514 16.2778C46.1289 16.0959 45.693 16.0049 45.2063 16.0049C44.7239 16.0049 44.2902 16.0959 43.9051 16.2778C43.52 16.4556 43.1941 16.701 42.9275 17.0142C42.6567 17.3273 42.4493 17.6976 42.3055 18.125C42.1616 18.5482 42.0896 19.0073 42.0896 19.5024ZM43.264 19.6421V19.5024C43.264 19.1681 43.3042 18.8486 43.3846 18.5439C43.465 18.235 43.5877 17.9642 43.7527 17.7314C43.9135 17.4987 44.1146 17.3146 44.3558 17.1792C44.597 17.0396 44.8805 16.9697 45.2063 16.9697C45.5322 16.9697 45.8157 17.0396 46.0569 17.1792C46.3024 17.3146 46.5076 17.4987 46.6727 17.7314C46.8335 17.9642 46.9541 18.235 47.0345 18.5439C47.1191 18.8486 47.1614 19.1681 47.1614 19.5024V19.6421C47.1614 19.9806 47.1212 20.3044 47.0408 20.6133C46.9604 20.918 46.8398 21.1867 46.679 21.4194C46.514 21.6522 46.3087 21.8363 46.0633 21.9717C45.8221 22.1071 45.5407 22.1748 45.219 22.1748C44.8932 22.1748 44.6076 22.1071 44.3621 21.9717C44.1167 21.8363 43.9135 21.6522 43.7527 21.4194C43.5877 21.1867 43.465 20.918 43.3846 20.6133C43.3042 20.3044 43.264 19.9806 43.264 19.6421ZM51.634 19.7944L54.154 23H55.6457L52.4401 18.9946L55.2204 16.1318H53.7922L51.5388 18.3916L50.7707 19.2168V13.25H49.59V23H50.7707V20.626L51.634 19.7944ZM61.2989 21.1782C61.2989 21.2882 61.2778 21.3919 61.2354 21.4893C61.1931 21.5866 61.1318 21.6755 61.0514 21.7559C60.9202 21.887 60.7382 21.9907 60.5055 22.0669C60.2727 22.1388 59.9998 22.1748 59.6866 22.1748C59.4877 22.1748 59.2867 22.1536 59.0836 22.1113C58.8805 22.069 58.6964 21.9971 58.5313 21.8955C58.3621 21.7939 58.2203 21.6606 58.1061 21.4956C57.996 21.3306 57.9326 21.1274 57.9156 20.8862H56.7413C56.7413 21.1782 56.8069 21.4596 56.9381 21.7305C57.0735 22.0013 57.2682 22.2383 57.5221 22.4414C57.7717 22.6488 58.0785 22.8159 58.4425 22.9429C58.8064 23.0656 59.2211 23.127 59.6866 23.127C60.0929 23.127 60.4674 23.0783 60.8102 22.981C61.1529 22.8836 61.447 22.7461 61.6925 22.5684C61.9379 22.3906 62.1284 22.1769 62.2638 21.9272C62.4034 21.6776 62.4732 21.4004 62.4732 21.0957C62.4732 20.8122 62.4119 20.5625 62.2892 20.3467C62.1707 20.1309 61.9972 19.9404 61.7687 19.7754C61.5401 19.6146 61.2587 19.4771 60.9244 19.3628C60.5901 19.2443 60.2114 19.1406 59.7882 19.0518C59.4666 18.9883 59.2 18.9227 58.9884 18.855C58.781 18.7873 58.616 18.7111 58.4933 18.6265C58.3663 18.5418 58.2774 18.4466 58.2267 18.3408C58.1759 18.235 58.1505 18.1144 58.1505 17.979C58.1505 17.8478 58.1822 17.7209 58.2457 17.5981C58.3092 17.4754 58.4044 17.3675 58.5313 17.2744C58.6541 17.1813 58.8085 17.1073 58.9947 17.0522C59.1852 16.9972 59.4052 16.9697 59.6549 16.9697C59.8961 16.9697 60.1119 17.0036 60.3023 17.0713C60.497 17.139 60.662 17.2279 60.7975 17.3379C60.9329 17.4479 61.0387 17.5749 61.1148 17.7188C61.191 17.8584 61.2291 18.0023 61.2291 18.1504H62.4034C62.4034 17.8499 62.3378 17.5706 62.2066 17.3125C62.0797 17.0501 61.8977 16.8216 61.6607 16.627C61.4238 16.4323 61.136 16.2799 60.7975 16.1699C60.4589 16.0599 60.0781 16.0049 59.6549 16.0049C59.2613 16.0049 58.8995 16.0578 58.5694 16.1636C58.2436 16.2694 57.9622 16.4132 57.7252 16.5952C57.4882 16.7772 57.3041 16.9909 57.1729 17.2363C57.0418 17.4775 56.9762 17.7378 56.9762 18.0171C56.9762 18.3006 57.0396 18.5503 57.1666 18.7661C57.2936 18.9777 57.4734 19.1618 57.7062 19.3184C57.9347 19.4792 58.2097 19.6167 58.5313 19.731C58.8572 19.8452 59.2169 19.9425 59.6104 20.0229C59.9321 20.0864 60.2008 20.1584 60.4166 20.2388C60.6324 20.3149 60.8059 20.3996 60.9371 20.4927C61.0683 20.5858 61.1614 20.6895 61.2164 20.8037C61.2714 20.9137 61.2989 21.0386 61.2989 21.1782Z" fill="#C4C4C4"/>
<path d="M24 18.689C24 17.099 22.009 15.592 18.956 14.658C19.661 11.547 19.348 9.071 17.968 8.278C17.6336 8.09072 17.2552 7.99645 16.872 8.005V9.095C17.097 9.095 17.278 9.14 17.43 9.223C18.095 9.605 18.384 11.057 18.159 12.926C18.105 13.386 18.017 13.87 17.909 14.364C16.8866 14.1176 15.849 13.9396 14.803 13.831C14.1799 12.9713 13.5 12.1541 12.768 11.385C14.363 9.903 15.86 9.091 16.878 9.091V8C15.532 8 13.771 8.959 11.99 10.622C10.21 8.97 8.448 8.02 7.103 8.02V9.11C8.116 9.11 9.618 9.918 11.213 11.39C10.528 12.11 9.843 12.926 9.192 13.831C8.14383 13.9384 7.10435 14.1181 6.081 14.369C5.968 13.88 5.885 13.406 5.826 12.951C5.596 11.081 5.88 9.629 6.541 9.243C6.687 9.155 6.878 9.115 7.103 9.115V8.025C6.693 8.025 6.32 8.113 5.998 8.298C4.623 9.091 4.315 11.561 5.024 14.663C1.981 15.603 0 17.104 0 18.689C0 20.279 1.991 21.786 5.044 22.719C4.339 25.831 4.652 28.307 6.032 29.099C6.35 29.285 6.722 29.373 7.132 29.373C8.478 29.373 10.239 28.414 12.02 26.751C13.8 28.404 15.561 29.353 16.907 29.353C17.2931 29.3612 17.6744 29.2666 18.012 29.079C19.387 28.287 19.695 25.817 18.986 22.715C22.019 21.781 24 20.274 24 18.689ZM17.63 15.426C17.44 16.0799 17.2197 16.7245 16.97 17.358C16.5612 16.5628 16.1123 15.7888 15.625 15.039C16.32 15.142 16.99 15.269 17.631 15.426H17.63ZM15.39 20.636C15.009 21.296 14.617 21.923 14.211 22.505C12.7433 22.6344 11.267 22.636 9.799 22.51C8.95695 21.3072 8.22054 20.0338 7.598 18.704C8.21958 17.3711 8.95287 16.0932 9.79 14.884C11.2574 14.7544 12.7333 14.7524 14.201 14.878C14.607 15.46 15.004 16.082 15.385 16.738C15.757 17.378 16.095 18.028 16.403 18.684C16.0916 19.348 15.7536 19.9991 15.39 20.636V20.636ZM16.97 20C17.234 20.655 17.46 21.311 17.645 21.947C17.005 22.104 16.329 22.236 15.63 22.338C16.1152 21.5814 16.5625 20.8011 16.97 20V20ZM12.01 25.22C11.555 24.75 11.1 24.227 10.65 23.654C11.09 23.674 11.54 23.689 11.995 23.689C12.455 23.689 12.91 23.679 13.355 23.654C12.915 24.227 12.46 24.75 12.01 25.22ZM8.37 22.338C7.69574 22.2403 7.02636 22.1115 6.364 21.952C6.545 21.321 6.77 20.67 7.024 20.02C7.225 20.41 7.436 20.802 7.666 21.194C7.896 21.585 8.13 21.967 8.37 22.338ZM11.985 12.158C12.44 12.628 12.895 13.151 13.345 13.724C12.905 13.704 12.455 13.689 12 13.689C11.54 13.689 11.085 13.699 10.64 13.724C11.08 13.151 11.535 12.628 11.985 12.158ZM8.365 15.04C7.87987 15.7949 7.43265 16.5736 7.025 17.373C6.76821 16.7355 6.54294 16.0857 6.35 15.426C6.99 15.274 7.666 15.142 8.365 15.04ZM3.938 21.164C2.206 20.426 1.086 19.457 1.086 18.689C1.086 17.921 2.206 16.947 3.938 16.214C4.358 16.033 4.818 15.871 5.293 15.72C5.572 16.678 5.939 17.676 6.393 18.699C5.96437 19.6612 5.60186 20.6515 5.308 21.663C4.84345 21.5192 4.38624 21.3526 3.938 21.164V21.164ZM6.57 28.154C5.905 27.774 5.616 26.32 5.841 24.452C5.895 23.992 5.983 23.507 6.091 23.013C7.049 23.248 8.096 23.429 9.197 23.547C9.82018 24.4067 10.5 25.2238 11.232 25.993C9.637 27.475 8.14 28.287 7.122 28.287C6.92994 28.2891 6.74033 28.2438 6.57 28.155V28.154ZM18.174 24.427C18.404 26.296 18.12 27.749 17.459 28.135C17.313 28.223 17.122 28.262 16.897 28.262C15.884 28.262 14.382 27.455 12.787 25.982C13.472 25.264 14.157 24.447 14.808 23.542C15.8562 23.4346 16.8956 23.2549 17.919 23.004C18.032 23.498 18.119 23.972 18.174 24.427V24.427ZM20.057 21.164C19.637 21.345 19.177 21.507 18.702 21.658C18.403 20.6413 18.0355 19.646 17.602 18.679C18.052 17.662 18.413 16.669 18.687 15.715C19.172 15.866 19.631 16.033 20.062 16.214C21.794 16.952 22.914 17.921 22.914 18.689C22.909 19.457 21.789 20.431 20.057 21.164V21.164Z" fill="#C2C2C2"/>
<path d="M11.995 20.925C12.588 20.925 13.1568 20.6894 13.5761 20.2701C13.9954 19.8508 14.231 19.282 14.231 18.689C14.231 18.096 13.9954 17.5272 13.5761 17.1079C13.1568 16.6886 12.588 16.453 11.995 16.453C11.402 16.453 10.8332 16.6886 10.4139 17.1079C9.99458 17.5272 9.759 18.096 9.759 18.689C9.759 19.282 9.99458 19.8508 10.4139 20.2701C10.8332 20.6894 11.402 20.925 11.995 20.925V20.925Z" fill="#C2C2C2"/>
<defs>
<clipPath id="clip0">
<rect width="38" height="38" fill="white" transform="translate(78)"/>
</clipPath>
</defs>
</svg>
