<svg width="inherit" height="50" viewBox="0 0 330 27" fill="none" xmlns="http://www.w3.org/2000/svg">
<path opacity="0.3" fill-rule="evenodd" clip-rule="evenodd" d="M97.8989 2.00002C97.9391 1.99951 97.9788 2.00969 98.0139 2.02956L100.294 3.32777C100.366 3.36873 100.426 3.42856 100.468 3.50108C100.509 3.57359 100.531 3.65615 100.531 3.74021V14.9932C100.531 15.0761 100.51 15.1575 100.469 15.2292C100.428 15.3009 100.37 15.3605 100.3 15.402L96.4678 17.6597C96.3976 17.7015 96.3177 17.7235 96.2364 17.7235C96.1551 17.7235 96.0752 17.7015 96.0049 17.6597L92.1741 15.4001C92.1039 15.3585 92.0456 15.2989 92.005 15.2272C91.9644 15.1555 91.9429 15.0742 91.9426 14.9914V10.4767C91.9429 10.3939 91.9644 10.3126 92.005 10.2408C92.0456 10.1691 92.1039 10.1095 92.1741 10.0679L96.0058 7.81199C96.076 7.77052 96.1557 7.74868 96.2368 7.74868C96.318 7.74868 96.3976 7.77052 96.4678 7.81199L97.4271 8.37575C97.4518 8.39006 97.4797 8.39755 97.5081 8.39747C97.5364 8.39739 97.5643 8.38975 97.5889 8.37529C97.6134 8.36084 97.6339 8.34008 97.6482 8.31507C97.6625 8.29007 97.6701 8.26168 97.6704 8.23273V2.23532C97.6705 2.19429 97.6811 2.15401 97.7012 2.11844C97.7212 2.08288 97.75 2.05325 97.7847 2.03249C97.8193 2.01172 97.8587 2.00053 97.8989 2.00002ZM97.6432 13.5669C97.6534 13.5489 97.6587 13.5285 97.6586 13.5077V11.9576C97.6586 11.9368 97.6533 11.9164 97.6431 11.8985C97.633 11.8805 97.6183 11.8655 97.6007 11.8552L96.2852 11.0801C96.2676 11.0697 96.2477 11.0642 96.2273 11.0642C96.207 11.0642 96.187 11.0697 96.1695 11.0801L94.854 11.8552C94.8365 11.8658 94.822 11.8807 94.8119 11.8987C94.8018 11.9166 94.7963 11.9369 94.7961 11.9576V13.5077C94.7962 13.5284 94.8015 13.5488 94.8117 13.5667C94.8218 13.5847 94.8364 13.5997 94.854 13.6101L96.1695 14.3842C96.1872 14.3943 96.2071 14.3995 96.2273 14.3995C96.2476 14.3995 96.2675 14.3943 96.2852 14.3842L97.6007 13.6101C97.6184 13.5998 97.6331 13.5849 97.6432 13.5669ZM271.953 6.07498C271.986 6.13453 272.02 6.19362 272.055 6.25226C272.156 6.41385 272.325 6.59042 272.534 6.81025C273.259 7.57102 274.478 8.84992 275.14 11.8192L275.14 11.8194H275.141C275.262 12.5404 275.292 13.2231 275.252 13.8637C275.075 16.7284 273.485 18.751 272.257 19.6149C272.098 20.3135 271.98 21.0209 271.902 21.7336H271.577C271.485 20.7215 271.354 19.7661 271.354 19.7661L271.352 19.7652C270.939 19.5068 267.818 17.0067 268.008 12.9522C268.205 8.76654 270.457 6.74911 271.135 6.14242C271.161 6.1188 271.185 6.09731 271.206 6.07792C271.491 5.82009 271.535 5.60589 271.559 5.26589C271.572 5.29732 271.585 5.32866 271.599 5.35991L271.597 5.35182C271.657 5.49088 271.72 5.62806 271.788 5.76319C271.84 5.8683 271.895 5.97226 271.953 6.07498ZM328.371 18.2315C328.189 18.2315 328.011 18.1767 327.859 18.074C327.707 17.9712 327.589 17.8252 327.518 17.6541C327.448 17.4831 327.429 17.2948 327.464 17.1128C327.498 16.9308 327.585 16.7633 327.713 16.6313C327.841 16.4993 328.005 16.4087 328.183 16.371C328.362 16.3333 328.547 16.3501 328.716 16.4192C328.885 16.4884 329.031 16.6068 329.134 16.7597C329.237 16.9126 329.293 17.093 329.296 17.2784C329.299 17.4034 329.277 17.5278 329.232 17.6441C329.187 17.7604 329.119 17.8662 329.033 17.9552C328.947 18.0442 328.844 18.1146 328.73 18.1621C328.616 18.2096 328.494 18.2332 328.371 18.2315ZM328.371 16.4363C328.205 16.4352 328.041 16.4844 327.902 16.5776C327.763 16.6709 327.655 16.804 327.59 16.9601C327.525 17.1162 327.508 17.2883 327.539 17.4546C327.571 17.6209 327.651 17.7739 327.768 17.8942C327.885 18.0145 328.035 18.0968 328.198 18.1305C328.361 18.1642 328.531 18.148 328.685 18.0837C328.839 18.0195 328.971 17.9101 329.064 17.7696C329.157 17.6291 329.207 17.4636 329.207 17.2943C329.209 17.1817 329.189 17.0698 329.148 16.9652C329.107 16.8606 329.045 16.7655 328.968 16.6855C328.89 16.6055 328.797 16.5422 328.694 16.4994C328.592 16.4566 328.482 16.4352 328.371 16.4363ZM328.594 17.8859L328.356 17.3628H328.163V17.8859H328.023V16.6959H328.368C328.625 16.6959 328.732 16.8092 328.732 17.0285C328.732 17.203 328.651 17.3118 328.501 17.3453L328.747 17.8842L328.594 17.8859ZM328.169 17.2399H328.371C328.535 17.2399 328.597 17.1832 328.597 17.0313C328.597 16.8795 328.538 16.8279 328.353 16.8279H328.169V17.2399ZM315.803 17.6623C315.362 17.6623 314.862 17.5784 314.612 17.375V17.3773C314.458 17.2713 314.387 17.0186 314.374 16.8746C314.351 16.7046 314.351 15.3186 314.351 14.3246C314.351 13.3551 314.351 11.7151 314.374 11.4998C314.39 11.4325 314.428 11.3727 314.482 11.3298C314.612 11.2697 314.842 11.2578 315.065 11.2578C315.839 11.2578 316.517 11.3899 317.041 11.7248C317.97 12.2994 318.422 13.2808 318.422 14.4901C318.422 15.7487 318.039 16.5369 317.481 17.052C316.934 17.5546 316.374 17.6623 315.803 17.6623ZM312.732 10.7336C312.514 10.7261 312.323 10.7195 312.236 10.7195H312.231C312.171 10.7898 311.989 11.1145 312.012 11.1864C312.237 11.2104 312.46 11.2464 312.681 11.2941C312.992 11.3661 313.146 11.4618 313.182 11.8324C313.2 12.1737 313.198 13.0828 313.195 13.8108C313.195 14.0281 313.194 14.2293 313.194 14.3943C313.194 14.5966 313.194 14.7939 313.195 14.9863V14.9895V14.9926C313.197 15.7543 313.198 16.4368 313.17 17.0282C313.146 17.4232 313.095 17.5354 312.879 17.6255C312.751 17.6793 312.677 17.6906 312.399 17.7224C312.315 17.732 312.18 18.1054 312.228 18.2012H312.249C312.611 18.2054 312.998 18.2111 313.379 18.2167L313.38 18.2167L313.381 18.2167C314.077 18.227 314.752 18.2369 315.213 18.2369C316.556 18.2369 317.498 17.9258 318.223 17.375C318.951 16.8486 319.675 15.9147 319.675 14.2986C319.675 13.1613 319.267 12.228 318.505 11.557C317.875 11.0068 316.993 10.7195 315.946 10.7195C315.224 10.7195 314.765 10.7314 314.377 10.7415C314.093 10.7488 313.848 10.7552 313.565 10.7552C313.361 10.7552 313.023 10.7436 312.732 10.7336ZM322.626 11.327C322.579 11.3389 322.519 11.459 322.519 11.5185C322.507 11.9498 322.495 13.0746 322.495 13.8526C322.498 13.8675 322.505 13.8811 322.516 13.8918C322.527 13.9025 322.54 13.9098 322.555 13.9127C322.709 13.9246 323.09 13.9371 323.412 13.9371C323.864 13.9371 324.126 13.877 324.269 13.805C324.65 13.6135 324.826 13.1942 324.826 12.7397C324.826 11.6982 324.112 11.3032 323.052 11.3032C322.909 11.3014 322.766 11.3093 322.624 11.327H322.626ZM325.326 16.1153C325.326 15.0619 324.564 14.4635 323.171 14.4635L323.156 14.4634L323.116 14.4628C322.978 14.4606 322.653 14.4554 322.564 14.4754C322.529 14.4873 322.493 14.5111 322.493 14.5355C322.493 14.6797 322.492 14.8407 322.492 15.0099C322.49 15.7254 322.488 16.59 322.517 16.9772C322.541 17.1807 322.684 17.468 322.862 17.5518C323.052 17.6595 323.481 17.6833 323.778 17.6833C324.6 17.6833 325.326 17.2169 325.326 16.1153ZM320.476 10.7405C320.504 10.7405 320.548 10.7431 320.611 10.7468C320.787 10.757 321.115 10.7762 321.709 10.7762C322.093 10.7762 322.441 10.7701 322.786 10.7641C323.125 10.7582 323.461 10.7524 323.826 10.7524C324.743 10.7524 326.005 11.0879 326.005 12.4762C326.005 13.1562 325.529 13.7093 324.91 13.9728C324.874 13.9847 324.874 14.0085 324.91 14.0204C325.791 14.247 326.564 14.7984 326.564 15.8518C326.564 16.8815 325.933 17.528 325.017 17.9349C324.459 18.1865 323.767 18.2698 323.066 18.2698C322.849 18.2698 322.484 18.2605 322.074 18.25C321.472 18.2347 320.772 18.2168 320.297 18.2222C320.214 18.1865 320.374 17.8029 320.445 17.7434C320.628 17.7376 320.809 17.7087 320.985 17.6572C321.27 17.5858 321.304 17.4923 321.34 17.0611C321.364 16.6899 321.364 15.3611 321.364 14.4153C321.364 13.9346 321.366 13.5118 321.367 13.1483V13.1432V13.1388V13.135V13.1318V13.1291V13.1267V13.1247V13.1229V13.1215V13.1202V13.1194V13.1185V13.1177V13.117V13.1162V13.1155V13.1148V13.1141V13.1135V13.1129V13.1123V13.1117V13.1111V13.1106V13.11V13.1095V13.109V13.1086V13.1081V13.1076V13.1072V13.1068V13.1064V13.106V13.1056C321.37 12.5133 321.371 12.0823 321.364 11.8177C321.352 11.4828 321.233 11.3746 321.007 11.3151C320.886 11.2906 320.712 11.2665 320.538 11.2424L320.538 11.2423C320.454 11.2307 320.37 11.2191 320.293 11.2074C320.233 11.1474 320.417 10.7881 320.476 10.7405ZM277.74 17.9899C277.733 18.0723 277.745 18.1552 277.776 18.2319H277.777C277.898 18.2313 278.019 18.2256 278.159 18.2188C278.367 18.2086 278.626 18.1962 278.998 18.1962C279.313 18.1962 279.591 18.2086 279.814 18.2188L279.897 18.2225C280.009 18.2275 280.108 18.2319 280.192 18.2319C280.234 18.1013 280.245 17.9624 280.223 17.8267L280.191 17.8208L280.144 17.8126L280.072 17.8002L280.072 17.8002L280.031 17.7933L280.015 17.7905C279.918 17.7741 279.835 17.7602 279.786 17.7457C279.551 17.6901 279.506 17.5383 279.495 17.4102C279.48 17.0677 279.481 16.3539 279.481 15.6816L279.482 15.2654V14.6313C279.48 14.5855 279.489 14.5399 279.506 14.4975C279.523 14.4551 279.548 14.4167 279.58 14.3848C279.916 14.1292 280.326 13.97 280.651 13.97C281.206 13.97 281.551 14.2828 281.677 14.8993C281.751 15.2835 281.725 16.8186 281.69 17.3513C281.677 17.5796 281.611 17.6771 281.435 17.7338C281.338 17.7587 281.235 17.7774 281.117 17.7988L281.1 17.8018L280.957 17.8284C280.927 17.8886 280.914 17.9561 280.92 18.0233C280.916 18.0947 280.928 18.166 280.956 18.2319C281.046 18.2314 281.199 18.2272 281.365 18.2227L281.424 18.2211C281.657 18.2149 281.921 18.2081 282.082 18.2081C282.616 18.2081 282.985 18.2188 283.345 18.2313C283.367 18.2009 283.381 18.1658 283.387 18.1287C283.412 18.0301 283.414 17.9268 283.392 17.8273C283.248 17.804 283.151 17.7802 283.058 17.757L283.008 17.7452L283.008 17.745L283.007 17.745L282.967 17.7353L282.945 17.7303L282.901 17.7202C282.789 17.6754 282.65 17.6193 282.65 17.3858C282.642 17.043 282.645 16.5897 282.647 16.1091C282.65 15.8741 282.65 15.6391 282.65 15.4135V15.4099V15.4095C282.65 15.0159 282.65 14.7553 282.603 14.5321V14.5236C282.604 14.4858 282.618 14.4494 282.642 14.421C283.039 14.115 283.455 14.0057 283.713 14.0057C284.408 14.0057 284.726 14.5077 284.787 14.9367C284.853 15.3504 284.816 17.0929 284.811 17.2906C284.798 17.5689 284.739 17.6641 284.532 17.7332C284.402 17.7704 284.27 17.7997 284.136 17.821C284.106 17.8766 284.115 18.1418 284.139 18.2239C284.462 18.2024 284.801 18.1899 285.448 18.1899C285.767 18.1899 286.042 18.2038 286.244 18.214L286.25 18.2143L286.319 18.2179C286.399 18.2221 286.465 18.2256 286.516 18.2256C286.555 18.169 286.597 17.8919 286.577 17.8205H286.567C286.307 17.7751 286.101 17.7389 285.958 17.668C285.843 17.6357 285.766 17.4725 285.766 17.4159C285.766 17.1966 285.769 16.8882 285.771 16.5543L285.772 16.4576C285.775 16.0355 285.779 15.5827 285.779 15.2257C285.779 13.9841 285.196 13.2424 284.222 13.2424C283.81 13.2424 283.194 13.5285 282.573 14.0079C282.565 14.0187 282.556 14.0274 282.545 14.0336C282.533 14.0397 282.521 14.0429 282.508 14.0431C282.494 14.0428 282.48 14.0388 282.468 14.0316C282.456 14.0243 282.446 14.014 282.439 14.0017C282.131 13.4906 281.733 13.2424 281.222 13.2424C280.911 13.2424 280.306 13.4345 279.63 13.9734C279.618 13.9851 279.604 13.9933 279.588 13.9971C279.572 14.0009 279.555 14 279.539 13.9947C279.524 13.9893 279.51 13.9796 279.5 13.9668C279.489 13.9539 279.483 13.9383 279.48 13.9218C279.48 13.7858 279.492 13.6492 279.502 13.5291L279.505 13.4986C279.508 13.4685 279.511 13.4392 279.511 13.4112C279.517 13.3505 279.5 13.2897 279.464 13.2412C279.109 13.4078 278.205 13.6271 277.86 13.6628C277.73 13.6889 277.667 13.7626 277.664 13.8249C277.662 13.8872 277.717 13.9405 277.817 13.9705C278.039 14.0335 278.252 14.1289 278.448 14.2539C278.559 14.3417 278.559 14.4664 278.559 14.5582V14.5831C278.572 15.4342 278.569 16.6452 278.535 17.2906C278.523 17.5638 278.443 17.6805 278.233 17.7338C278.082 17.7742 277.93 17.8058 277.776 17.8284C277.749 17.8778 277.737 17.9337 277.74 17.9899ZM289.726 13.7545C289.525 13.7502 289.327 13.8068 289.158 13.9171C288.744 14.1727 288.534 14.6833 288.534 15.4335C288.534 16.8377 289.225 17.8186 290.215 17.8186C290.481 17.8272 290.74 17.7339 290.941 17.5574C291.245 17.3052 291.407 16.7896 291.407 16.0676C291.407 14.6844 290.731 13.7545 289.725 13.7545H289.726ZM289.916 18.3394C288.127 18.3394 287.49 17.0049 287.49 15.7565C287.49 14.8844 287.84 14.2027 288.532 13.7296C289.016 13.4246 289.572 13.2575 290.142 13.2456C291.507 13.2456 292.46 14.2435 292.46 15.6732C292.46 16.6445 292.079 17.4118 291.359 17.8912C291.013 18.1065 290.412 18.3394 289.916 18.3394ZM307.368 13.9171C307.537 13.8065 307.736 13.7498 307.937 13.7545C308.943 13.7545 309.618 14.6844 309.618 16.0676C309.618 16.7896 309.457 17.3052 309.153 17.5574C308.951 17.7345 308.691 17.8278 308.425 17.8186C307.435 17.8186 306.743 16.8377 306.743 15.4335C306.743 14.6833 306.954 14.1727 307.368 13.9171ZM305.702 15.7571C305.702 17.0049 306.339 18.3394 308.128 18.3394C308.624 18.3394 309.225 18.1065 309.571 17.8906C310.291 17.4118 310.672 16.6451 310.672 15.6727C310.672 14.2441 309.719 13.2456 308.354 13.2456C307.784 13.2573 307.229 13.4244 306.745 13.7296C306.052 14.2027 305.702 14.8839 305.702 15.7571ZM301.914 13.707C301.363 13.707 301.007 14.1496 301.007 14.8347C301.007 15.5198 301.314 16.3341 302.177 16.3341C302.325 16.3341 302.594 16.2672 302.727 16.1182C302.927 15.9306 303.061 15.543 303.061 15.1339C303.061 14.2403 302.633 13.707 301.917 13.707H301.914ZM301.846 18.4353C301.69 18.4336 301.537 18.4726 301.4 18.5486C300.964 18.832 300.761 19.1153 300.761 19.4445C300.761 19.7528 300.879 19.9982 301.132 20.2158C301.439 20.4798 301.852 20.6085 302.395 20.6085C303.465 20.6085 303.944 20.0237 303.944 19.4445C303.944 19.0411 303.745 18.7708 303.335 18.6178C303.02 18.5005 302.493 18.4359 301.848 18.4359L301.846 18.4353ZM301.919 21.2125C301.277 21.2125 300.814 21.0748 300.419 20.7654C300.035 20.464 299.862 20.0163 299.862 19.7069C299.866 19.5075 299.941 19.3164 300.073 19.1686C300.184 19.0394 300.443 18.7974 301.042 18.3786C301.052 18.3746 301.06 18.3679 301.065 18.3593C301.069 18.3538 301.071 18.3476 301.072 18.3411C301.073 18.3376 301.074 18.3341 301.074 18.3305C301.074 18.319 301.07 18.3078 301.063 18.2988C301.061 18.2958 301.058 18.2931 301.056 18.2908C301.054 18.2891 301.051 18.2875 301.049 18.2862C301.045 18.2837 301.04 18.2818 301.036 18.2806C300.542 18.0885 300.394 17.7706 300.349 17.6006C300.349 17.5944 300.349 17.5847 300.344 17.574L300.343 17.5737C300.33 17.5069 300.316 17.4435 300.406 17.3785C300.475 17.3286 300.585 17.2617 300.704 17.1909C300.87 17.097 301.03 16.9912 301.182 16.8741C301.19 16.8652 301.196 16.8545 301.2 16.8428C301.203 16.8312 301.204 16.8188 301.202 16.8068C301.2 16.7948 301.196 16.7833 301.189 16.7734C301.182 16.7635 301.173 16.7553 301.162 16.7495C300.432 16.5001 300.064 15.9488 300.064 15.1061C300.062 14.8434 300.122 14.5839 300.24 14.3498C300.357 14.1157 300.528 13.9139 300.739 13.7614C301.032 13.5251 301.77 13.2412 302.247 13.2412H302.275C302.763 13.2531 303.04 13.3569 303.421 13.4998L303.426 13.5019C303.644 13.5821 303.875 13.6194 304.107 13.6118C304.513 13.6118 304.691 13.4809 304.844 13.3285C304.869 13.3972 304.882 13.4696 304.883 13.5427C304.892 13.7169 304.846 13.8895 304.75 14.0346C304.667 14.1519 304.472 14.2369 304.293 14.2369C304.274 14.2369 304.257 14.2369 304.237 14.234C304.143 14.2273 304.05 14.2115 303.958 14.187L303.913 14.2034C303.898 14.2246 303.907 14.248 303.919 14.2779L303.919 14.2794C303.921 14.2824 303.922 14.2856 303.923 14.2888C303.924 14.2918 303.925 14.2949 303.926 14.2981C303.959 14.4493 303.981 14.6027 303.992 14.7571C303.992 15.6382 303.651 16.0219 303.281 16.3063C302.924 16.5789 302.5 16.7459 302.055 16.7891C302.046 16.7891 302 16.7931 301.913 16.801L301.891 16.8031L301.825 16.809C301.799 16.8113 301.779 16.8129 301.774 16.8129H301.763C301.683 16.8356 301.474 16.937 301.474 17.1257C301.474 17.2821 301.568 17.4765 302.021 17.5116L302.315 17.5326L302.322 17.5331C302.918 17.5755 303.659 17.6283 304.009 17.7485C304.242 17.8318 304.443 17.9876 304.584 18.1938C304.725 18.4 304.798 18.6461 304.793 18.8971C304.793 19.6876 304.24 20.4311 303.315 20.8856C302.878 21.0976 302.4 21.2066 301.917 21.2046L301.919 21.2125ZM298.502 17.6303C298.727 17.738 298.918 17.7742 299.18 17.8099L299.183 17.8094C299.23 17.8915 299.206 18.2043 299.135 18.2882C299.079 18.2882 298.995 18.2842 298.883 18.2788C298.662 18.2683 298.332 18.2525 297.896 18.2525C297.602 18.2525 297.359 18.2639 297.148 18.2738L297.147 18.2738L297.147 18.2738L297.147 18.2739L297.146 18.2739C296.984 18.2815 296.84 18.2882 296.706 18.2882C296.658 18.2162 296.635 17.8813 296.706 17.8094C296.932 17.7856 297.123 17.7493 297.194 17.7136C297.349 17.666 297.384 17.5578 297.384 17.1265C297.384 16.9935 297.385 16.8571 297.385 16.7198V16.7177C297.387 16.0422 297.389 15.3496 297.349 14.9732C297.325 14.7116 297.203 14.4694 297.008 14.2966C296.841 14.1532 296.618 14.0456 296.284 14.0456C295.939 14.0456 295.545 14.1889 295.307 14.4043C295.236 14.466 295.177 14.5743 295.177 14.8009C295.177 15.6152 295.177 16.812 295.201 17.3753C295.212 17.5901 295.26 17.6864 295.45 17.734C295.61 17.7743 295.774 17.7984 295.939 17.806C295.986 17.8779 295.963 18.2009 295.891 18.2848C295.831 18.2848 295.75 18.2807 295.643 18.2753C295.433 18.2648 295.122 18.2491 294.665 18.2491C294.328 18.2491 293.944 18.2652 293.692 18.2758L293.692 18.2758C293.569 18.281 293.478 18.2848 293.439 18.2848C293.379 18.2128 293.379 17.8655 293.439 17.806C293.587 17.7871 293.735 17.7591 293.88 17.7221L293.862 17.7283C294.053 17.6802 294.124 17.5844 294.136 17.3209C294.172 16.6505 294.172 15.4175 294.16 14.6156L294.16 14.5898C294.161 14.499 294.162 14.3929 294.065 14.3164C293.875 14.1952 293.668 14.1028 293.452 14.0422H293.448C293.178 13.9566 293.242 13.709 293.495 13.6591C293.842 13.6245 294.78 13.3979 295.114 13.2279C295.143 13.2561 295.166 13.2909 295.179 13.3295C295.193 13.3681 295.197 13.4093 295.192 13.45L295.19 13.4732C295.179 13.6263 295.163 13.8479 295.161 13.96C295.16 14.0779 295.238 14.0019 295.251 13.99C295.762 13.5469 296.381 13.2239 296.845 13.2239C297.369 13.2239 297.774 13.463 298.06 13.8705C298.299 14.2303 298.394 14.7318 298.394 15.307C298.394 16.0119 298.394 17.0891 298.418 17.4603C298.428 17.5243 298.457 17.5836 298.502 17.6303ZM219.581 20.4886V10.2058H220.139V11.8234C220.205 11.7518 220.266 11.6757 220.322 11.5956C220.55 11.1221 220.908 10.7235 221.355 10.4464C221.801 10.1693 222.318 10.0253 222.843 10.0312C224.115 9.9932 225.148 10.4641 225.756 11.5956C226.142 12.2986 226.355 13.0838 226.376 13.8858C226.397 14.6877 226.226 15.4831 225.877 16.2054C225.311 17.4737 223.914 18.104 222.418 17.8724C221.952 17.8327 221.504 17.6771 221.114 17.4198C220.724 17.1624 220.405 16.8115 220.185 16.3991V20.4886H219.581ZM220.139 13.8436C220.155 14.0015 220.168 14.145 220.179 14.2786C220.205 14.5689 220.226 14.8118 220.265 15.0511C220.485 16.4256 221.298 17.242 222.573 17.3901C223.173 17.4886 223.787 17.3763 224.313 17.0723C224.838 16.7684 225.242 16.2915 225.456 15.7232C225.701 15.1385 225.819 14.5084 225.802 13.8747C225.785 13.241 225.633 12.6181 225.357 12.0475C225.129 11.538 224.742 11.1166 224.253 10.8467C223.765 10.5768 223.202 10.4731 222.649 10.5514C222.131 10.589 221.637 10.7873 221.236 11.1187C220.835 11.4501 220.547 11.8982 220.413 12.4006C220.294 12.8759 220.203 13.3577 220.139 13.8436ZM236.792 17.1224C237.333 16.6335 237.678 15.9649 237.762 15.2409C237.42 15.1345 237.227 15.1877 237.12 15.5636C236.642 17.0293 235.324 17.6977 233.783 17.3179C232.545 17.0028 231.671 15.6965 231.785 14.0713H237.933C237.877 13.4973 237.79 12.9269 237.671 12.3626C237.521 11.743 237.18 11.1863 236.696 10.7713C236.212 10.3562 235.61 10.1039 234.975 10.0501C234.307 9.95638 233.626 10.0777 233.032 10.3965C232.437 10.7153 231.959 11.215 231.668 11.8234C231.249 12.7103 231.091 13.698 231.212 14.6713C231.387 16.4636 232.484 18.0166 234.823 17.8989C235.552 17.8873 236.252 17.6113 236.792 17.1224ZM237.28 13.5511H231.785C231.858 11.7285 233.05 10.521 234.705 10.5475C236.167 10.5665 237.246 11.8196 237.28 13.5511ZM238.894 15.2788H239.433C239.453 15.6756 239.582 16.0592 239.805 16.3874C240.029 16.7157 240.339 16.9759 240.701 17.1395C241.156 17.344 241.651 17.4435 242.149 17.4303C242.647 17.4172 243.136 17.2918 243.579 17.0635C243.821 16.9546 244.023 16.7743 244.159 16.5468C244.295 16.3194 244.358 16.0557 244.339 15.7915C244.353 15.5366 244.283 15.2842 244.141 15.0724C243.998 14.8607 243.79 14.7012 243.549 14.6181C243.206 14.4907 242.851 14.3963 242.495 14.3018C242.236 14.2331 241.977 14.1643 241.723 14.0827C241.094 13.9038 240.48 13.6792 239.885 13.4106C238.913 12.936 238.852 11.0867 239.953 10.502C240.517 10.1838 241.151 10.0119 241.799 10.0019C242.446 9.99197 243.086 10.1443 243.659 10.445C244.006 10.637 244.287 10.9303 244.463 11.2857C244.64 11.6412 244.704 12.0421 244.646 12.4347H244.183C244.183 12.4234 244.173 12.4129 244.162 12.4025C244.152 12.392 244.141 12.3816 244.141 12.3702C244.084 10.8931 242.846 10.4374 241.517 10.5665C241.121 10.6155 240.735 10.7324 240.378 10.9121C240.164 11.0102 239.985 11.1725 239.867 11.3765C239.748 11.5806 239.696 11.8163 239.718 12.0512C239.718 12.2863 239.792 12.5153 239.928 12.707C240.064 12.8987 240.255 13.0437 240.477 13.122C240.894 13.2737 241.325 13.3867 241.755 13.4996C241.928 13.5451 242.101 13.5905 242.273 13.6385C242.458 13.6895 242.646 13.7339 242.834 13.7781C243.135 13.8491 243.436 13.92 243.724 14.0182C244.053 14.1262 244.342 14.3319 244.553 14.6078C244.763 14.8838 244.884 15.2171 244.901 15.5636C244.957 15.9433 244.892 16.3311 244.716 16.6719C244.539 17.0127 244.26 17.2892 243.917 17.4622C242.649 18.1799 240.561 17.99 239.63 17.0825C239.395 16.8454 239.208 16.5639 239.082 16.2543C238.955 15.9448 238.891 15.6132 238.894 15.2788ZM251.231 12.4346H251.736C251.783 12.0524 251.718 11.6649 251.549 11.319C251.379 10.9732 251.113 10.684 250.783 10.4866C250.205 10.1678 249.554 10.0041 248.894 10.0115C248.234 10.0188 247.587 10.1969 247.016 10.5284C245.934 11.1132 246.01 12.9472 246.959 13.4143C247.558 13.6805 248.176 13.9026 248.808 14.0788C249.064 14.1609 249.325 14.2294 249.586 14.2979C249.94 14.3908 250.294 14.4836 250.635 14.6104C250.877 14.6911 251.086 14.8486 251.231 15.0589C251.375 15.2693 251.447 15.5211 251.436 15.7761C251.448 16.0351 251.386 16.2922 251.257 16.517C251.128 16.7418 250.937 16.9248 250.707 17.0444C250.329 17.2889 249.897 17.4377 249.449 17.4778C249.001 17.5179 248.55 17.4482 248.135 17.2747C247.72 17.1011 247.353 16.829 247.067 16.4819C246.78 16.1347 246.583 15.7231 246.492 15.2825H246.211H245.998C245.973 15.766 246.096 16.2457 246.351 16.6571C246.606 17.0685 246.981 17.3918 247.426 17.5836C247.967 17.8161 248.55 17.9332 249.138 17.9273C249.727 17.9215 250.308 17.7927 250.843 17.5494C251.195 17.4001 251.493 17.1482 251.7 16.8266C251.906 16.505 252.01 16.1287 251.999 15.7468C251.988 15.365 251.862 14.9953 251.638 14.6862C251.413 14.3771 251.101 14.1429 250.741 14.0142C250.5 13.9249 250.254 13.8501 250.004 13.7902C249.678 13.7002 249.351 13.6225 249.024 13.545L249.024 13.5449C248.578 13.4391 248.134 13.3336 247.696 13.1978C247.429 13.1333 247.192 12.9787 247.026 12.7601C246.86 12.5415 246.775 12.2723 246.784 11.9979C246.786 11.7186 246.879 11.4474 247.048 11.225C247.217 11.0026 247.454 10.8408 247.722 10.7638C248.402 10.4959 249.15 10.4599 249.852 10.6613C250.224 10.7317 250.561 10.9278 250.806 11.2168C251.05 11.5057 251.188 11.87 251.197 12.2485C251.199 12.2706 251.205 12.2932 251.211 12.3166L251.211 12.3167C251.221 12.3537 251.231 12.3927 251.231 12.4346ZM218.659 17.7128C218.46 17.7881 218.24 17.7879 218.042 17.7124C217.843 17.6368 217.679 17.4911 217.58 17.3027C217.146 16.6529 216.68 16.0236 216.214 15.3939L216.213 15.3927L216.212 15.3914L216.212 15.3905L216.211 15.39L216.211 15.3896L216.211 15.3894C216.013 15.1228 215.816 14.8561 215.621 14.5877L215.336 14.208C215.144 14.4648 214.953 14.7191 214.762 14.9721C214.175 15.7515 213.597 16.5182 213.058 17.3065C212.965 17.4865 212.809 17.6266 212.621 17.7007C212.432 17.7747 212.223 17.7777 212.032 17.709L214.968 13.7713L212.238 10.2134C212.434 10.1424 212.649 10.1414 212.846 10.2106C213.043 10.2798 213.211 10.4149 213.32 10.5931C213.76 11.2359 214.232 11.8586 214.714 12.4929L214.714 12.493C214.927 12.7729 215.141 13.0551 215.355 13.3423C215.535 13.1041 215.714 12.8687 215.892 12.6348L215.897 12.6281L215.9 12.6245L215.902 12.6226L215.902 12.622L215.903 12.6214L215.904 12.6189L215.905 12.6183L215.907 12.616L215.908 12.6145C216.42 11.9418 216.923 11.2814 217.402 10.6045C217.495 10.4274 217.651 10.2908 217.838 10.2208C218.026 10.1508 218.233 10.1522 218.419 10.2248L217.36 11.6297C217.266 11.754 217.172 11.8784 217.078 12.0028L217.071 12.0124L217.07 12.013C216.694 12.5124 216.318 13.0112 215.925 13.4979C215.885 13.5336 215.853 13.5772 215.831 13.6259C215.809 13.6746 215.798 13.7274 215.798 13.7808C215.798 13.8342 215.809 13.887 215.831 13.9358C215.853 13.9845 215.885 14.0281 215.925 14.0637C216.587 14.9418 217.245 15.8219 217.912 16.7144C218.159 17.0453 218.408 17.378 218.659 17.7128ZM231.121 10.7069V10.1753C229.849 10.2057 228.835 10.6234 228.178 11.7473V10.2057H227.646V17.7279H228.189V17.3026V13.551C228.176 13.1664 228.243 12.7831 228.387 12.4261C228.531 12.0691 228.748 11.7461 229.024 11.4781C229.3 11.2101 229.629 11.003 229.991 10.8702C230.352 10.7373 230.737 10.6817 231.121 10.7069ZM205.078 13.3054L205.078 13.3045V13.3044C205.123 13.0497 205.168 12.7899 205.239 12.541C205.896 10.2058 208.573 9.23368 210.415 10.6804C211.493 11.5272 211.763 12.7271 211.71 14.0789H205.634C205.535 16.4939 207.278 17.952 209.507 17.2078C209.869 17.0784 210.193 16.8611 210.449 16.5754C210.706 16.2897 210.887 15.9445 210.977 15.5712C211.094 15.1915 211.284 15.1269 211.645 15.237C211.586 15.6993 211.422 16.1421 211.167 16.5321C210.912 16.9221 210.572 17.2492 210.172 17.4888C209.511 17.85 208.753 17.9931 208.007 17.8976C207.26 17.8021 206.562 17.473 206.014 16.9572C205.471 16.3471 205.143 15.5763 205.08 14.7624C205.08 14.6715 205.055 14.5806 205.031 14.4923C205.022 14.4552 205.012 14.4186 205.004 14.3827C205.001 14.1574 205 13.9371 205 13.722C205.028 13.5865 205.053 13.4468 205.078 13.3054ZM205.642 13.5587H211.136C211.102 11.8082 209.997 10.5665 208.524 10.5551C206.883 10.5323 205.71 11.7474 205.638 13.5511L205.642 13.5587ZM90.3939 26.8966C90.5091 26.9645 90.6398 27.0001 90.7728 26.9999C90.9076 27.0012 91.0403 26.9655 91.157 26.8966L94.7691 24.7679C94.8843 24.6994 94.9801 24.6012 95.0467 24.4832C95.1133 24.3652 95.1485 24.2315 95.1488 24.0953V19.8408C95.1485 19.7048 95.1133 19.5712 95.0467 19.4533C94.9801 19.3355 94.8843 19.2375 94.7691 19.1691L91.157 17.0387C91.0407 16.9737 90.9103 16.9397 90.7777 16.9397C90.6452 16.9397 90.5148 16.9737 90.3985 17.0387L86.7819 19.1691C86.6667 19.2374 86.571 19.3355 86.5046 19.4533C86.4381 19.5712 86.4031 19.7048 86.4031 19.8408V24.0981C86.4031 24.2342 86.4381 24.3679 86.5046 24.486C86.571 24.604 86.6667 24.7022 86.7819 24.7707L87.7294 25.3243C88.1887 25.555 88.3524 25.555 88.5613 25.555C89.2412 25.555 89.6308 25.1361 89.6308 24.4044V20.2044C89.6308 20.1904 89.6281 20.1765 89.6228 20.1636C89.6176 20.1506 89.6098 20.1389 89.6001 20.129C89.5903 20.1191 89.5788 20.1113 89.566 20.1061C89.5533 20.1008 89.5397 20.0981 89.526 20.0983H89.0685C89.0547 20.0981 89.0411 20.1008 89.0284 20.1061C89.0157 20.1113 89.0041 20.1191 88.9944 20.129C88.9846 20.1389 88.9769 20.1506 88.9716 20.1636C88.9663 20.1765 88.9636 20.1904 88.9636 20.2044V24.4118C88.9636 24.732 88.6345 25.0577 88.0974 24.7809L87.1083 24.1977C87.091 24.188 87.0766 24.1737 87.0666 24.1563C87.0566 24.1389 87.0513 24.1192 87.0513 24.099V19.8445C87.0514 19.8241 87.0566 19.8041 87.0666 19.7865C87.0766 19.7688 87.091 19.7541 87.1083 19.744L90.7185 17.6172C90.7354 17.6072 90.7546 17.602 90.7741 17.602C90.7936 17.602 90.8128 17.6072 90.8297 17.6172L94.4409 19.7393C94.4579 19.7499 94.4721 19.7648 94.4819 19.7826C94.4917 19.8004 94.4969 19.8204 94.4969 19.8408V24.0953C94.4969 24.1154 94.4918 24.1351 94.4822 24.1525C94.4725 24.17 94.4586 24.1846 94.4418 24.195L90.8252 26.3227C90.8082 26.3322 90.789 26.3372 90.7696 26.3372C90.7502 26.3372 90.731 26.3322 90.714 26.3227L89.7873 25.7617C89.7742 25.7524 89.7589 25.7469 89.743 25.7456C89.7271 25.7443 89.7112 25.7473 89.6968 25.7543C89.527 25.8613 89.3448 25.9462 89.1544 26.0071C89.0974 26.0283 89.007 26.0652 89.1878 26.1676L90.3939 26.8966ZM91.8856 24.0687C90.3043 24.0687 89.9734 23.3306 89.9734 22.7069C89.9734 22.6929 89.9761 22.679 89.9814 22.6661C89.9867 22.6531 89.9944 22.6414 90.0042 22.6315C90.0139 22.6217 90.0255 22.6139 90.0382 22.6086C90.0509 22.6033 90.0645 22.6006 90.0783 22.6008H90.5448C90.5701 22.6007 90.5946 22.6101 90.6137 22.627C90.6328 22.644 90.6453 22.6674 90.6488 22.693C90.7193 23.1784 90.9291 23.4229 91.8856 23.4229C92.646 23.4229 92.9706 23.2476 92.9706 22.8351C92.9706 22.598 92.8802 22.4218 91.6958 22.3037C90.7075 22.204 90.0963 21.9807 90.0963 21.1743C90.0963 20.4306 90.7103 19.9868 91.741 19.9868C92.8974 19.9868 93.4706 20.3965 93.5429 21.2786C93.5443 21.2933 93.5427 21.3082 93.5381 21.3223C93.5335 21.3364 93.526 21.3493 93.5162 21.3602C93.5064 21.3712 93.4945 21.3799 93.4812 21.3859C93.4679 21.3918 93.4535 21.3949 93.4389 21.3948H92.9706C92.947 21.3948 92.9241 21.3865 92.9057 21.3714C92.8873 21.3563 92.8745 21.3353 92.8693 21.3118C92.7572 20.8006 92.4833 20.6373 91.7419 20.6373C90.911 20.6373 90.8142 20.9335 90.8142 21.154C90.8142 21.4225 90.9282 21.5009 92.0502 21.6523C93.1722 21.8036 93.6939 22.0093 93.6939 22.8056C93.6939 23.6019 93.033 24.0687 91.8856 24.0687ZM96.9794 20.0021C97.056 19.8854 97.097 19.7481 97.0972 19.6076C97.0967 19.4193 97.0232 19.2387 96.8928 19.1055C96.7624 18.9722 96.5856 18.897 96.401 18.8962C96.2634 18.8962 96.1288 18.9379 96.0143 19.0159C95.8999 19.0939 95.8106 19.2048 95.7579 19.3346C95.7052 19.4644 95.6914 19.6072 95.7181 19.745C95.7449 19.8828 95.8111 20.0094 95.9084 20.1088C96.0057 20.2082 96.1297 20.2759 96.2646 20.3034C96.3996 20.3309 96.5396 20.317 96.6668 20.2634C96.794 20.2097 96.9028 20.1188 96.9794 20.0021ZM95.9142 19.9397C95.8503 19.8413 95.8164 19.7257 95.8169 19.6076V19.6049C95.8184 19.4481 95.8803 19.2981 95.9893 19.1876C96.0983 19.0771 96.2455 19.0148 96.3992 19.0143C96.5149 19.014 96.6281 19.0487 96.7245 19.1141C96.8208 19.1795 96.8959 19.2726 96.9404 19.3817C96.9848 19.4907 96.9964 19.6108 96.9739 19.7266C96.9513 19.8424 96.8956 19.9488 96.8137 20.0322C96.7318 20.1156 96.6275 20.1724 96.514 20.1952C96.4004 20.218 96.2828 20.2059 96.176 20.1605C96.0692 20.115 95.9781 20.0381 95.9142 19.9397ZM96.4101 19.2118H96.1388L96.1352 20.0081H96.2907V19.6888H96.4263C96.4815 19.6888 96.4968 19.7119 96.5077 19.7562C96.5077 19.7665 96.5264 19.9182 96.5345 19.9839L96.5375 20.0081H96.703C96.68 19.9402 96.6663 19.8694 96.6623 19.7977L96.6612 19.7899C96.6474 19.6926 96.6378 19.625 96.533 19.6178C96.5771 19.6097 96.6166 19.5852 96.644 19.5491C96.6714 19.5129 96.6847 19.4677 96.6813 19.4222C96.6813 19.2118 96.5005 19.2118 96.4101 19.2118ZM96.4064 19.5615H96.2871L96.2853 19.3391H96.4101C96.4507 19.3391 96.524 19.3391 96.524 19.448C96.525 19.4638 96.5226 19.4795 96.517 19.4942C96.5114 19.5089 96.5026 19.5222 96.4914 19.533C96.4802 19.5439 96.4667 19.552 96.452 19.557C96.4374 19.5619 96.4218 19.5634 96.4064 19.5615ZM79.5893 10.3547C79.5896 10.2718 79.5684 10.1902 79.5279 10.1183C79.4875 10.0464 79.4291 9.9866 79.3588 9.94505L75.5252 7.69463C75.4608 7.65656 75.3881 7.63532 75.3136 7.63281H75.2748C75.2003 7.63532 75.1277 7.65656 75.0632 7.69463L71.2333 9.94505C71.1625 9.98632 71.1036 10.0459 71.0627 10.1179C71.0217 10.1898 71.0001 10.2715 71 10.3547L71.0081 16.4112C71.0078 16.4526 71.0183 16.4934 71.0387 16.5293C71.059 16.5652 71.0885 16.5948 71.1239 16.6151C71.1585 16.6364 71.1982 16.6477 71.2387 16.6477C71.2792 16.6477 71.3189 16.6364 71.3535 16.6151L73.6292 15.2855C73.6995 15.2438 73.7578 15.184 73.7984 15.1121C73.8391 15.0403 73.8605 14.9588 73.8607 14.8758V12.046C73.8605 11.9631 73.8818 11.8816 73.9224 11.8098C73.9631 11.738 74.0216 11.6785 74.0922 11.6372L75.0614 11.0679C75.1317 11.0263 75.2115 11.0043 75.2929 11.0043C75.3739 11.004 75.4535 11.026 75.5234 11.0679L76.4917 11.6372C76.5622 11.6785 76.6208 11.738 76.6615 11.8098C76.7021 11.8816 76.7234 11.9631 76.7232 12.046V14.8758C76.7236 14.9589 76.7453 15.0403 76.7861 15.1122C76.8268 15.184 76.8852 15.2438 76.9556 15.2855L79.2304 16.6151C79.2654 16.6364 79.3054 16.6476 79.3461 16.6476C79.3868 16.6476 79.4268 16.6364 79.4618 16.6151C79.4969 16.5944 79.526 16.5647 79.5461 16.5289C79.5663 16.4931 79.5768 16.4525 79.5767 16.4112L79.5893 10.3547ZM110.771 11.9179C110.841 11.8766 110.9 11.8171 110.94 11.7455C110.981 11.6739 111.002 11.5927 111.002 11.5101V10.4158C111.002 10.3331 110.981 10.2519 110.94 10.1803C110.9 10.1087 110.841 10.0493 110.771 10.0079L106.965 7.75199C106.894 7.71054 106.814 7.68872 106.733 7.68872C106.652 7.68872 106.572 7.71054 106.501 7.75199L102.671 10.0089C102.601 10.0503 102.542 10.1099 102.502 10.1816C102.461 10.2534 102.44 10.3348 102.44 10.4176V14.9304C102.44 15.0138 102.461 15.0957 102.502 15.1677C102.544 15.2396 102.603 15.2992 102.674 15.3401L106.479 17.5545C106.548 17.5941 106.626 17.615 106.705 17.615C106.785 17.615 106.862 17.5941 106.931 17.5545L109.233 16.2489C109.269 16.2284 109.299 16.1985 109.32 16.1623C109.34 16.1262 109.351 16.0851 109.351 16.0432C109.351 16.0013 109.34 15.9602 109.32 15.924C109.299 15.8879 109.269 15.858 109.233 15.8374L105.384 13.5806C105.349 13.5601 105.32 13.5305 105.299 13.4947C105.279 13.4589 105.268 13.4181 105.268 13.3766V11.9622C105.268 11.9207 105.279 11.8799 105.299 11.844C105.319 11.808 105.348 11.7782 105.384 11.7573L106.583 11.0515C106.619 11.0311 106.658 11.0204 106.699 11.0204C106.739 11.0204 106.779 11.0311 106.814 11.0515L108.015 11.7546C108.05 11.7754 108.079 11.8053 108.099 11.8412C108.12 11.8772 108.13 11.9179 108.13 11.9594V13.0722C108.13 13.1137 108.141 13.1545 108.161 13.1905C108.181 13.2265 108.211 13.2563 108.246 13.277C108.281 13.2978 108.321 13.3086 108.362 13.3084C108.403 13.3082 108.442 13.2971 108.478 13.2761L110.771 11.9179ZM106.722 11.6943C106.706 11.6943 106.69 11.6986 106.677 11.7067L105.941 12.1376C105.927 12.1457 105.916 12.1571 105.908 12.1709C105.901 12.1846 105.896 12.2002 105.896 12.216V13.0889C105.896 13.1047 105.901 13.1203 105.908 13.134C105.916 13.1477 105.927 13.1592 105.941 13.1673L106.675 13.6C106.688 13.6081 106.704 13.6124 106.72 13.6124C106.736 13.6124 106.751 13.6081 106.765 13.6L107.502 13.1627C107.516 13.1547 107.527 13.1433 107.535 13.1296C107.543 13.1158 107.547 13.1002 107.547 13.0843V12.2179C107.547 12.2019 107.543 12.1863 107.535 12.1726C107.527 12.1588 107.516 12.1474 107.502 12.1394L106.767 11.7067C106.753 11.6986 106.738 11.6943 106.722 11.6943ZM85.6891 7.71784C85.7139 7.71359 85.739 7.71143 85.7643 7.71143C85.8449 7.71143 85.924 7.73341 85.9935 7.77512L89.7909 10.0126C89.8607 10.0538 89.9187 10.1129 89.959 10.1842C89.9993 10.2555 90.0205 10.3363 90.0205 10.4186V14.8982C90.0204 14.9803 89.9991 15.061 89.9588 15.1321C89.9185 15.2032 89.8606 15.2622 89.7909 15.3033L85.9935 17.5435C85.9236 17.5843 85.8444 17.6058 85.7638 17.6058L85.7568 17.6057L85.7455 17.6054C85.6702 17.6035 85.596 17.5824 85.5298 17.5433L81.7243 15.303C81.6537 15.2623 81.5949 15.2036 81.5535 15.1325L81.5519 15.1298C81.5112 15.06 81.489 14.9801 81.4883 14.898V14.898V10.4184L85.6891 7.71784ZM85.6891 7.71784L81.7695 9.98745L85.5307 7.77493C85.5801 7.74587 85.6338 7.72671 85.6891 7.71784ZM130.315 10.1132H128.001V17.4186H130.371V13.4408C130.371 13.4408 130.371 13.4402 130.371 13.4389C130.37 13.3911 130.349 12.4384 131.144 12.3999C131.632 12.3759 131.858 12.6663 131.879 13.2166V17.4175H134.267V13.4082C134.28 12.8232 134.536 12.4271 135.036 12.3988C135.535 12.3706 135.761 12.6796 135.772 13.2566V17.4202H138.141V12.417C138.182 11.3761 137.825 10.6421 137.203 10.2893C136.216 9.72884 134.697 10.0219 133.966 10.9891H133.958C133.251 9.68933 131.227 9.7299 130.315 10.9459V10.1132ZM145.963 13.7664C145.963 11.6867 144.276 10.0007 142.194 10C142.195 10 142.195 10 142.196 10H142.193C142.193 10 142.194 10 142.194 10C140.111 10.0007 138.426 11.6867 138.426 13.7664C138.426 15.8466 140.109 17.5328 142.193 17.5328C144.277 17.5328 145.963 15.8466 145.963 13.7664ZM143.476 13.7664C143.476 13.0175 142.9 12.4101 142.193 12.4101C141.484 12.4101 140.91 13.0175 140.91 13.7664C140.91 14.5153 141.484 15.1228 142.193 15.1228C142.901 15.1228 143.476 14.5153 143.476 13.7664ZM148.793 10.1148H146.478V17.4154H148.868V13.4061C148.934 12.7447 149.137 12.425 149.637 12.3967C150.137 12.3684 150.362 12.6775 150.373 13.2545V17.4181H152.742V12.4149C152.783 11.374 152.426 10.64 151.804 10.2872C150.91 9.77955 149.579 9.97224 148.793 10.7324V10.1148ZM167.29 13.768C167.29 11.6878 165.602 10.0016 163.52 10.0016C161.436 10.0016 159.75 11.6878 159.75 13.768C159.75 15.8482 161.436 17.5344 163.52 17.5344C165.605 17.5344 167.29 15.8482 167.29 13.768ZM164.804 13.768C164.804 13.0191 164.227 12.4117 163.52 12.4117C162.811 12.4117 162.237 13.0191 162.237 13.768C162.237 14.5169 162.812 15.1244 163.52 15.1244C164.229 15.1244 164.804 14.5169 164.804 13.768ZM157.323 10.1591C157.012 10.0707 156.69 10.0263 156.366 10.0272V10.0251C154.475 10.0251 153.031 11.4418 153.058 13.2695C153.068 13.942 153.198 14.5666 153.524 15.0763C154.08 15.9512 155.093 16.5048 156.248 16.5048C156.539 16.5041 156.829 16.467 157.111 16.3943C157.578 18.167 155.371 18.1419 154.124 16.8709L152.848 18.6084C154.386 20.0694 157.172 20.568 158.79 19.029C159.826 17.7501 159.78 16.4845 158.977 15.2285C159.437 14.6797 159.707 14.0018 159.674 13.2716C159.641 12.5414 159.409 11.841 158.988 11.2891L158.96 11.2523L159.733 10.1591H157.323ZM156.835 12.5175C156.68 12.416 156.498 12.3619 156.312 12.362C156.062 12.3622 155.823 12.4595 155.647 12.6326C155.47 12.8058 155.371 13.0406 155.371 13.2855C155.371 13.4683 155.426 13.647 155.529 13.799C155.633 13.951 155.78 14.0696 155.952 14.1396C156.124 14.2096 156.313 14.2279 156.496 14.1923C156.678 14.1566 156.846 14.0686 156.978 13.9394C157.11 13.8101 157.199 13.6454 157.236 13.4661C157.272 13.2868 157.253 13.101 157.182 12.9322C157.111 12.7633 156.99 12.619 156.835 12.5175ZM174.89 13.7664C174.89 11.6862 173.202 10 171.12 10C169.035 10 167.35 11.6862 167.35 13.7664C167.35 15.8466 169.035 17.5328 171.12 17.5328C173.204 17.5328 174.89 15.8466 174.89 13.7664ZM172.403 13.7664C172.403 13.0175 171.827 12.4101 171.12 12.4101C170.411 12.4101 169.836 13.0175 169.836 13.7664C169.836 14.5153 170.411 15.1228 171.12 15.1228C171.828 15.1228 172.403 14.5153 172.403 13.7664ZM178.927 12.2569V10.1681L178.931 10.166C177.858 9.96264 176.463 10.0673 175.716 10.6437C174.582 11.5192 174.938 13.0319 175.522 13.6047C175.609 13.7104 175.743 13.8264 175.883 13.9484C176.162 14.1903 176.467 14.4561 176.492 14.7134C176.531 15.1174 176.128 15.4495 175.14 15.0998L175.186 17.3359C176.11 17.4912 179.416 17.9465 179.084 14.9696C178.985 14.0807 178.397 13.5517 177.898 13.1026C177.825 13.0369 177.754 12.9729 177.686 12.9097C177.425 12.6652 177.524 12.2638 177.706 12.1666C178.008 12.0054 178.621 12.1117 178.927 12.2569ZM186.41 12.4885C185.884 11.0436 184.653 10.0112 183.022 10.0112L183.023 10.0091C180.938 10.0091 179.271 11.6329 179.253 13.8022C179.234 15.9715 180.702 17.5328 182.986 17.5328C184.017 17.5328 185.067 17.2739 185.965 16.7284C185.951 16.4189 185.914 15.976 185.877 15.5313C185.841 15.1017 185.805 14.6704 185.79 14.3557C184.694 15.3283 183.394 15.6859 182.455 15.2696L186.41 12.4885ZM181.494 13.8283L183.744 12.2211L183.745 12.2179C182.776 11.4039 181.187 12.4405 181.494 13.8283ZM187.445 15.3133C187.342 15.2702 187.231 15.2481 187.119 15.2482L187.12 15.2461C186.97 15.2452 186.822 15.2849 186.693 15.3608C186.564 15.4361 186.457 15.5439 186.384 15.6731C186.309 15.8047 186.27 15.9528 186.27 16.1033C186.27 16.2539 186.309 16.402 186.384 16.5336C186.457 16.6629 186.564 16.7709 186.693 16.8464C186.822 16.9215 186.97 16.9611 187.12 16.9611C187.27 16.9611 187.417 16.9215 187.546 16.8464C187.676 16.7709 187.783 16.6629 187.856 16.5336C187.948 16.369 187.984 16.1798 187.959 15.9937C187.934 15.8075 187.849 15.634 187.717 15.4986C187.639 15.4201 187.547 15.3571 187.445 15.3133ZM186.775 15.5087C186.879 15.4476 186.998 15.4157 187.119 15.4164L187.118 15.418C187.239 15.4169 187.357 15.4487 187.461 15.5098C187.564 15.5703 187.649 15.6567 187.708 15.7601C187.768 15.8664 187.799 15.9857 187.799 16.1071C187.799 16.2284 187.768 16.3478 187.708 16.454C187.649 16.5575 187.564 16.6442 187.461 16.7055C187.357 16.7657 187.239 16.7975 187.119 16.7975C186.998 16.7975 186.88 16.7657 186.776 16.7055C186.671 16.6447 186.585 16.558 186.526 16.454C186.465 16.3482 186.433 16.2286 186.433 16.1071C186.433 15.9855 186.465 15.866 186.526 15.7601C186.585 15.6562 186.671 15.5694 186.775 15.5087ZM187.336 16.5907H187.499L187.498 16.5896L187.411 16.3072C187.396 16.2519 187.368 16.2012 187.327 16.1599C187.369 16.1379 187.403 16.1045 187.425 16.0638C187.45 16.0177 187.463 15.9661 187.461 15.9138C187.461 15.894 187.459 15.8742 187.456 15.8546C187.453 15.835 187.448 15.8157 187.441 15.7969C187.435 15.7784 187.426 15.7605 187.417 15.7436C187.407 15.7273 187.395 15.7123 187.382 15.6987C187.368 15.6843 187.352 15.6723 187.335 15.663C187.318 15.6542 187.299 15.6478 187.281 15.6438C187.263 15.6392 187.245 15.6364 187.226 15.6352H187.164H186.804V16.5907H186.954V16.2069H187.117C187.133 16.2069 187.149 16.2102 187.164 16.2165C187.179 16.2225 187.193 16.2312 187.204 16.2421C187.217 16.2535 187.228 16.2667 187.237 16.2811C187.246 16.2966 187.254 16.3133 187.259 16.3307L187.336 16.5907ZM187.155 16.0425H186.955H186.953V15.7916H187.171C187.208 15.7887 187.244 15.7994 187.273 15.8215C187.286 15.8338 187.295 15.8485 187.301 15.8646C187.306 15.8807 187.309 15.8979 187.307 15.9149C187.308 15.9352 187.305 15.9554 187.298 15.9747C187.294 15.9901 187.284 16.0037 187.272 16.0142C187.258 16.0252 187.242 16.0327 187.225 16.0361C187.202 16.0407 187.179 16.0428 187.155 16.0425Z" fill="#333333"/>
<path d="M24 11.689C24 10.099 22.009 8.592 18.956 7.658C19.661 4.547 19.348 2.071 17.968 1.278C17.6336 1.09072 17.2552 0.996452 16.872 1.005V2.095C17.097 2.095 17.278 2.14 17.43 2.223C18.095 2.605 18.384 4.057 18.159 5.926C18.105 6.386 18.017 6.87 17.909 7.364C16.8866 7.11764 15.849 6.93958 14.803 6.831C14.1799 5.97129 13.5 5.15414 12.768 4.385C14.363 2.903 15.86 2.091 16.878 2.091V1C15.532 1 13.771 1.959 11.99 3.622C10.21 1.97 8.448 1.02 7.103 1.02V2.11C8.116 2.11 9.618 2.918 11.213 4.39C10.528 5.11 9.843 5.926 9.192 6.831C8.14383 6.93837 7.10435 7.11814 6.081 7.369C5.968 6.88 5.885 6.406 5.826 5.951C5.596 4.081 5.88 2.629 6.541 2.243C6.687 2.155 6.878 2.115 7.103 2.115V1.025C6.693 1.025 6.32 1.113 5.998 1.298C4.623 2.091 4.315 4.561 5.024 7.663C1.981 8.603 0 10.104 0 11.689C0 13.279 1.991 14.786 5.044 15.719C4.339 18.831 4.652 21.307 6.032 22.099C6.35 22.285 6.722 22.373 7.132 22.373C8.478 22.373 10.239 21.414 12.02 19.751C13.8 21.404 15.561 22.353 16.907 22.353C17.2931 22.3612 17.6744 22.2666 18.012 22.079C19.387 21.287 19.695 18.817 18.986 15.715C22.019 14.781 24 13.274 24 11.689ZM17.63 8.426C17.44 9.07986 17.2197 9.72455 16.97 10.358C16.5612 9.56276 16.1123 8.78876 15.625 8.039C16.32 8.142 16.99 8.269 17.631 8.426H17.63ZM15.39 13.636C15.009 14.296 14.617 14.923 14.211 15.505C12.7433 15.6344 11.267 15.636 9.799 15.51C8.95695 14.3072 8.22054 13.0338 7.598 11.704C8.21958 10.3711 8.95287 9.09321 9.79 7.884C11.2574 7.75437 12.7333 7.75236 14.201 7.878C14.607 8.46 15.004 9.082 15.385 9.738C15.757 10.378 16.095 11.028 16.403 11.684C16.0916 12.348 15.7536 12.9991 15.39 13.636ZM16.97 13C17.234 13.655 17.46 14.311 17.645 14.947C17.005 15.104 16.329 15.236 15.63 15.338C16.1152 14.5814 16.5625 13.8011 16.97 13ZM12.01 18.22C11.555 17.75 11.1 17.227 10.65 16.654C11.09 16.674 11.54 16.689 11.995 16.689C12.455 16.689 12.91 16.679 13.355 16.654C12.915 17.227 12.46 17.75 12.01 18.22ZM8.37 15.338C7.69574 15.2403 7.02636 15.1115 6.364 14.952C6.545 14.321 6.77 13.67 7.024 13.02C7.225 13.41 7.436 13.802 7.666 14.194C7.896 14.585 8.13 14.967 8.37 15.338ZM11.985 5.158C12.44 5.628 12.895 6.151 13.345 6.724C12.905 6.704 12.455 6.689 12 6.689C11.54 6.689 11.085 6.699 10.64 6.724C11.08 6.151 11.535 5.628 11.985 5.158ZM8.365 8.04C7.87987 8.79493 7.43265 9.57356 7.025 10.373C6.76821 9.73546 6.54294 9.08567 6.35 8.426C6.99 8.274 7.666 8.142 8.365 8.04ZM3.938 14.164C2.206 13.426 1.086 12.457 1.086 11.689C1.086 10.921 2.206 9.947 3.938 9.214C4.358 9.033 4.818 8.871 5.293 8.72C5.572 9.678 5.939 10.676 6.393 11.699C5.96437 12.6612 5.60186 13.6515 5.308 14.663C4.84345 14.5192 4.38624 14.3526 3.938 14.164ZM6.57 21.154C5.905 20.774 5.616 19.32 5.841 17.452C5.895 16.992 5.983 16.507 6.091 16.013C7.049 16.248 8.096 16.429 9.197 16.547C9.82018 17.4067 10.5 18.2238 11.232 18.993C9.637 20.475 8.14 21.287 7.122 21.287C6.92994 21.2891 6.74033 21.2438 6.57 21.155V21.154ZM18.174 17.427C18.404 19.296 18.12 20.749 17.459 21.135C17.313 21.223 17.122 21.262 16.897 21.262C15.884 21.262 14.382 20.455 12.787 18.982C13.472 18.264 14.157 17.447 14.808 16.542C15.8562 16.4346 16.8956 16.2549 17.919 16.004C18.032 16.498 18.119 16.972 18.174 17.427ZM20.057 14.164C19.637 14.345 19.177 14.507 18.702 14.658C18.403 13.6413 18.0355 12.646 17.602 11.679C18.052 10.662 18.413 9.669 18.687 8.715C19.172 8.866 19.631 9.033 20.062 9.214C21.794 9.952 22.914 10.921 22.914 11.689C22.909 12.457 21.789 13.431 20.057 14.164Z" fill="#C2C2C2"/>
<path d="M11.995 13.925C12.588 13.925 13.1568 13.6894 13.5761 13.2701C13.9954 12.8508 14.231 12.282 14.231 11.689C14.231 11.096 13.9954 10.5272 13.5761 10.1079C13.1568 9.68858 12.588 9.453 11.995 9.453C11.402 9.453 10.8332 9.68858 10.4139 10.1079C9.99458 10.5272 9.759 11.096 9.759 11.689C9.759 12.282 9.99458 12.8508 10.4139 13.2701C10.8332 13.6894 11.402 13.925 11.995 13.925Z" fill="#C2C2C2"/>
<path d="M29.5732 13.3564H27.9395V17H25.8887V7.04688H29.5869C30.7627 7.04688 31.6696 7.30892 32.3076 7.83301C32.9456 8.3571 33.2646 9.09766 33.2646 10.0547C33.2646 10.7337 33.1165 11.3011 32.8203 11.7568C32.5286 12.208 32.0843 12.568 31.4873 12.8369L33.6406 16.9043V17H31.4395L29.5732 13.3564ZM27.9395 11.6953H29.5938C30.1087 11.6953 30.5075 11.5654 30.79 11.3057C31.0726 11.0413 31.2139 10.679 31.2139 10.2188C31.2139 9.74935 31.0794 9.38021 30.8105 9.11133C30.5462 8.84245 30.1383 8.70801 29.5869 8.70801H27.9395V11.6953ZM37.7545 17.1367C36.6699 17.1367 35.7857 16.804 35.1021 16.1387C34.4231 15.4733 34.0836 14.5869 34.0836 13.4795V13.2881C34.0836 12.5452 34.2271 11.8822 34.5143 11.2988C34.8014 10.7109 35.207 10.2598 35.7311 9.94531C36.2597 9.6263 36.8613 9.4668 37.5357 9.4668C38.5475 9.4668 39.3427 9.78581 39.9215 10.4238C40.5048 11.0618 40.7965 11.9665 40.7965 13.1377V13.9443H36.0865C36.1503 14.4274 36.3417 14.8148 36.6607 15.1064C36.9843 15.3981 37.3922 15.5439 37.8844 15.5439C38.6454 15.5439 39.2402 15.2682 39.6686 14.7168L40.6393 15.8037C40.343 16.223 39.942 16.5511 39.4361 16.7881C38.9303 17.0205 38.3697 17.1367 37.7545 17.1367ZM37.5289 11.0664C37.137 11.0664 36.818 11.1986 36.5719 11.4629C36.3303 11.7272 36.1754 12.1055 36.107 12.5977H38.8551V12.4404C38.846 12.0029 38.7275 11.6657 38.4996 11.4287C38.2717 11.1872 37.9482 11.0664 37.5289 11.0664ZM45.8605 17C45.7694 16.8223 45.7033 16.6012 45.6623 16.3369C45.1838 16.8701 44.5617 17.1367 43.7961 17.1367C43.0715 17.1367 42.4699 16.9271 41.9914 16.5078C41.5174 16.0885 41.2805 15.5599 41.2805 14.9219C41.2805 14.138 41.5699 13.5365 42.1486 13.1172C42.732 12.6979 43.5728 12.486 44.6711 12.4814H45.5803V12.0576C45.5803 11.7158 45.4914 11.4424 45.3137 11.2373C45.1405 11.0322 44.8648 10.9297 44.4865 10.9297C44.1538 10.9297 43.8918 11.0094 43.7004 11.1689C43.5135 11.3285 43.4201 11.5472 43.4201 11.8252H41.4445C41.4445 11.3968 41.5767 11.0003 41.841 10.6357C42.1053 10.2712 42.479 9.98633 42.9621 9.78125C43.4452 9.57161 43.9875 9.4668 44.5891 9.4668C45.5005 9.4668 46.2229 9.69694 46.7561 10.1572C47.2938 10.613 47.5627 11.2555 47.5627 12.085V15.291C47.5673 15.9928 47.6652 16.5238 47.8566 16.8838V17H45.8605ZM44.2268 15.626C44.5184 15.626 44.7873 15.5622 45.0334 15.4346C45.2795 15.3024 45.4618 15.127 45.5803 14.9082V13.6367H44.842C43.8531 13.6367 43.3267 13.9785 43.2629 14.6621L43.2561 14.7783C43.2561 15.0244 43.3426 15.2272 43.5158 15.3867C43.689 15.5462 43.926 15.626 44.2268 15.626ZM51.8064 15.5439C52.171 15.5439 52.4673 15.4437 52.6951 15.2432C52.923 15.0426 53.0415 14.776 53.0506 14.4434H54.9031C54.8986 14.9447 54.7618 15.4049 54.493 15.8242C54.2241 16.2389 53.8549 16.5625 53.3855 16.7949C52.9207 17.0228 52.4057 17.1367 51.8406 17.1367C50.7833 17.1367 49.9493 16.8018 49.3387 16.1318C48.728 15.4574 48.4227 14.5277 48.4227 13.3428V13.2129C48.4227 12.0736 48.7257 11.1644 49.3318 10.4854C49.938 9.80632 50.7697 9.4668 51.827 9.4668C52.7521 9.4668 53.4926 9.73112 54.0486 10.2598C54.6092 10.7839 54.894 11.4834 54.9031 12.3584H53.0506C53.0415 11.9756 52.923 11.6657 52.6951 11.4287C52.4673 11.1872 52.1665 11.0664 51.7928 11.0664C51.3325 11.0664 50.9839 11.235 50.7469 11.5723C50.5145 11.9049 50.3982 12.4473 50.3982 13.1992V13.4043C50.3982 14.1654 50.5145 14.7122 50.7469 15.0449C50.9793 15.3776 51.3325 15.5439 51.8064 15.5439ZM58.0463 7.78516V9.60352H59.3109V11.0527H58.0463V14.7441C58.0463 15.0176 58.0987 15.2135 58.2035 15.332C58.3083 15.4505 58.5089 15.5098 58.8051 15.5098C59.0238 15.5098 59.2175 15.4938 59.3861 15.4619V16.959C58.9988 17.0775 58.6 17.1367 58.1898 17.1367C56.8044 17.1367 56.098 16.4372 56.0707 15.0381V11.0527H54.9906V9.60352H56.0707V7.78516H58.0463Z" fill="#C2C2C2"/>
</svg>
