<svg width="inherit" height="inherit" viewBox="0 0 290 38" fill="none" xmlns="http://www.w3.org/2000/svg">
<path d="M211.275 10.3987C211.376 10.4239 211.471 10.4687 211.554 10.5306C211.638 10.5925 211.709 10.6702 211.762 10.7594C211.816 10.8486 211.851 10.9474 211.866 11.0503C211.882 11.1532 211.876 11.2581 211.851 11.359L208.685 24.0256C208.661 24.128 208.617 24.2247 208.555 24.3099C208.494 24.3952 208.416 24.4673 208.326 24.5222C208.237 24.577 208.137 24.6134 208.033 24.6294C207.929 24.6453 207.823 24.6403 207.721 24.6149C207.619 24.5894 207.524 24.5438 207.439 24.4809C207.355 24.418 207.284 24.3389 207.231 24.2483C207.178 24.1577 207.143 24.0574 207.129 23.9533C207.115 23.8491 207.122 23.7432 207.149 23.6417L210.315 10.975C210.341 10.8741 210.385 10.7791 210.447 10.6955C210.509 10.612 210.587 10.5414 210.676 10.4879C210.765 10.4343 210.864 10.3989 210.967 10.3836C211.07 10.3683 211.175 10.3734 211.276 10.3987H211.275ZM205.31 13.7736C205.458 13.922 205.541 14.1233 205.541 14.3333C205.541 14.5432 205.458 14.7445 205.31 14.893L202.703 17.4999L205.31 20.1069C205.385 20.1799 205.446 20.2673 205.487 20.3639C205.529 20.4604 205.55 20.5643 205.551 20.6694C205.552 20.7746 205.532 20.8788 205.492 20.9761C205.453 21.0734 205.394 21.1618 205.32 21.2361C205.245 21.3104 205.157 21.3692 205.06 21.409C204.962 21.4488 204.858 21.4689 204.753 21.468C204.648 21.467 204.544 21.4452 204.447 21.4037C204.351 21.3622 204.263 21.3019 204.19 21.2263L201.024 18.0596C200.875 17.9112 200.792 17.7099 200.792 17.4999C200.792 17.29 200.875 17.0887 201.024 16.9402L204.19 13.7736C204.339 13.6251 204.54 13.5418 204.75 13.5418C204.96 13.5418 205.161 13.6251 205.31 13.7736ZM213.69 13.7736C213.839 13.6251 214.04 13.5418 214.25 13.5418C214.46 13.5418 214.661 13.6251 214.81 13.7736L217.976 16.9402C218.125 17.0887 218.208 17.29 218.208 17.4999C218.208 17.7099 218.125 17.9112 217.976 18.0596L214.81 21.2263C214.66 21.3705 214.46 21.4503 214.253 21.4485C214.045 21.4467 213.847 21.3634 213.7 21.2167C213.553 21.0699 213.47 20.8713 213.468 20.6637C213.466 20.4562 213.546 20.2562 213.69 20.1069L216.297 17.4999L213.69 14.893C213.542 14.7445 213.459 14.5432 213.459 14.3333C213.459 14.1233 213.542 13.922 213.69 13.7736Z" fill="#C2C2C2"/>
<path d="M284 27H272C270.939 27 269.922 26.5786 269.172 25.8284C268.421 25.0783 268 24.0609 268 23V11C268 9.93913 268.421 8.92172 269.172 8.17157C269.922 7.42143 270.939 7 272 7H284C285.061 7 286.078 7.42143 286.828 8.17157C287.579 8.92172 288 9.93913 288 11V23C288 24.0609 287.579 25.0783 286.828 25.8284C286.078 26.5786 285.061 27 284 27ZM272 9C271.47 9 270.961 9.21071 270.586 9.58579C270.211 9.96086 270 10.4696 270 11V23C270 23.5304 270.211 24.0391 270.586 24.4142C270.961 24.7893 271.47 25 272 25H284C284.53 25 285.039 24.7893 285.414 24.4142C285.789 24.0391 286 23.5304 286 23V11C286 10.4696 285.789 9.96086 285.414 9.58579C285.039 9.21071 284.53 9 284 9H272ZM281.762 21.776C281.33 21.7934 280.898 21.7226 280.494 21.5679C280.09 21.4132 279.721 21.1777 279.411 20.876C278.761 20.1354 278.428 19.1696 278.483 18.186C278.463 17.23 278.804 16.3017 279.438 15.586C279.769 15.2355 280.171 14.9591 280.617 14.7749C281.063 14.5907 281.543 14.5028 282.025 14.517H282.258V12.517C282.258 12.361 282.385 12.234 282.541 12.233H283.858C283.931 12.2303 284.003 12.2553 284.058 12.303C284.085 12.3286 284.106 12.3597 284.12 12.3942C284.135 12.4287 284.141 12.4658 284.14 12.503V20.182C284.135 20.447 284.149 20.712 284.18 20.975V21C284.182 21.0636 284.162 21.1259 284.124 21.177C284.091 21.2171 284.05 21.2493 284.003 21.271C283.309 21.6023 282.55 21.7751 281.781 21.777L281.762 21.776ZM280.846 16.66L280.841 16.666C280.524 17.0828 280.365 17.5981 280.391 18.121C280.35 18.6658 280.507 19.2071 280.834 19.645C281.101 19.939 281.486 20.099 281.883 20.079C282.009 20.081 282.135 20.068 282.258 20.041V16.192C282.165 16.172 282.069 16.1623 281.974 16.163C281.761 16.1573 281.549 16.1992 281.354 16.2857C281.158 16.3722 280.985 16.5011 280.846 16.663V16.66ZM278.225 21.66H276.774C276.699 21.6649 276.625 21.6463 276.562 21.6068C276.498 21.5674 276.449 21.509 276.42 21.44L276.21 21L276.205 20.989L276 20.58L275.936 20.447C275.617 19.789 275.288 19.111 274.958 18.413C274.499 19.4296 274.027 20.44 273.541 21.444V21.454L273.536 21.463C273.503 21.5191 273.456 21.5661 273.4 21.6C273.343 21.6339 273.278 21.6512 273.212 21.65H271.841C271.784 21.6528 271.727 21.6369 271.68 21.6046C271.632 21.5723 271.596 21.5254 271.578 21.471C271.566 21.4296 271.564 21.386 271.571 21.3435C271.578 21.301 271.596 21.2608 271.621 21.226L273.85 16.965L271.694 12.651C271.665 12.609 271.648 12.5597 271.646 12.5087C271.644 12.4578 271.657 12.4072 271.682 12.363C271.706 12.3229 271.741 12.2897 271.782 12.2668C271.823 12.2438 271.869 12.2319 271.916 12.232H273.35C273.42 12.2283 273.489 12.2442 273.55 12.278C273.612 12.316 273.66 12.373 273.686 12.441C274.222 13.566 274.674 14.541 275.069 15.406C275.56 14.306 276.082 13.188 276.432 12.447L276.437 12.436L276.443 12.426V12.415C276.468 12.3722 276.499 12.3335 276.536 12.3C276.598 12.2484 276.676 12.221 276.757 12.223H278.1C278.151 12.2216 278.202 12.2352 278.246 12.262C278.29 12.2888 278.325 12.3277 278.347 12.374C278.365 12.4164 278.372 12.4625 278.368 12.5083C278.364 12.5541 278.349 12.5983 278.324 12.637L276.167 16.824L278.449 21.224C278.473 21.2622 278.488 21.3053 278.493 21.3502C278.498 21.395 278.493 21.4404 278.478 21.483C278.459 21.5348 278.425 21.5794 278.379 21.6108C278.334 21.6421 278.28 21.6586 278.225 21.658V21.66Z" fill="#C2C2C2"/>
<path d="M144 11L144.53 10.47C144.389 10.3295 144.199 10.2507 144 10.2507C143.801 10.2507 143.611 10.3295 143.47 10.47L144 11ZM144 19L143.47 19.53C143.611 19.6705 143.801 19.7493 144 19.7493C144.199 19.7493 144.389 19.6705 144.53 19.53L144 19ZM141.47 12.47C141.338 12.6122 141.265 12.8002 141.269 12.9945C141.272 13.1888 141.351 13.3742 141.488 13.5116C141.626 13.649 141.811 13.7277 142.005 13.7312C142.2 13.7346 142.388 13.6625 142.53 13.53L141.47 12.47ZM145.47 13.53C145.539 13.6037 145.621 13.6628 145.713 13.7038C145.805 13.7448 145.905 13.7668 146.005 13.7686C146.106 13.7704 146.206 13.7518 146.3 13.7141C146.393 13.6764 146.478 13.6203 146.549 13.549C146.62 13.4778 146.676 13.393 146.714 13.2996C146.752 13.2062 146.77 13.1062 146.769 13.0055C146.767 12.9048 146.745 12.8055 146.704 12.7135C146.663 12.6215 146.604 12.5387 146.53 12.47L145.47 13.53ZM142.53 16.47C142.461 16.3963 142.379 16.3372 142.287 16.2962C142.195 16.2552 142.095 16.2332 141.995 16.2314C141.894 16.2296 141.794 16.2482 141.7 16.2859C141.607 16.3236 141.522 16.3797 141.451 16.451C141.38 16.5222 141.324 16.607 141.286 16.7004C141.248 16.7938 141.23 16.8938 141.231 16.9945C141.233 17.0952 141.255 17.1945 141.296 17.2865C141.337 17.3785 141.396 17.4613 141.47 17.53L142.53 16.47ZM146.53 17.53C146.604 17.4613 146.663 17.3785 146.704 17.2865C146.745 17.1945 146.767 17.0952 146.769 16.9945C146.77 16.8938 146.752 16.7938 146.714 16.7004C146.676 16.607 146.62 16.5222 146.549 16.451C146.478 16.3797 146.393 16.3236 146.3 16.2859C146.206 16.2482 146.106 16.2296 146.005 16.2314C145.905 16.2332 145.805 16.2552 145.713 16.2962C145.621 16.3372 145.539 16.3963 145.47 16.47L146.53 17.53ZM135.25 16V20H136.75V16H135.25ZM152.75 20V16H151.25V20H152.75ZM143.25 11V19H144.75V11H143.25ZM143.47 10.47L141.47 12.47L142.53 13.53L144.53 11.53L143.47 10.47ZM143.47 11.53L145.47 13.53L146.53 12.47L144.53 10.47L143.47 11.53ZM144.53 18.47L142.53 16.47L141.47 17.53L143.47 19.53L144.53 18.47ZM144.53 19.53L146.53 17.53L145.47 16.47L143.47 18.47L144.53 19.53ZM152.75 16C152.75 13.6794 151.828 11.4538 150.187 9.81282C148.546 8.17187 146.321 7.25 144 7.25V8.75C145.923 8.75 147.767 9.51384 149.127 10.8735C150.486 12.2331 151.25 14.0772 151.25 16H152.75ZM144 28.75C145.149 28.75 146.287 28.5237 147.348 28.0839C148.41 27.6442 149.375 26.9997 150.187 26.1872C151 25.3747 151.644 24.4101 152.084 23.3485C152.524 22.2869 152.75 21.1491 152.75 20H151.25C151.25 21.9228 150.486 23.7669 149.127 25.1265C147.767 26.4862 145.923 27.25 144 27.25V28.75ZM135.25 20C135.25 22.3206 136.172 24.5462 137.813 26.1872C139.454 27.8281 141.679 28.75 144 28.75V27.25C142.077 27.25 140.233 26.4862 138.873 25.1265C137.514 23.7669 136.75 21.9228 136.75 20H135.25ZM136.75 16C136.75 14.0772 137.514 12.2331 138.873 10.8735C140.233 9.51384 142.077 8.75 144 8.75V7.25C141.679 7.25 139.454 8.17187 137.813 9.81282C136.172 11.4538 135.25 13.6794 135.25 16H136.75Z" fill="#C2C2C2"/>
<path d="M156.89 14.7456V17H155.571V10.6016H158.067C158.548 10.6016 158.97 10.6895 159.333 10.8652C159.699 11.041 159.98 11.2915 160.177 11.6167C160.373 11.939 160.471 12.3066 160.471 12.7197C160.471 13.3467 160.256 13.8418 159.825 14.2051C159.397 14.5654 158.804 14.7456 158.045 14.7456H156.89ZM156.89 13.6777H158.067C158.416 13.6777 158.681 13.5957 158.863 13.4316C159.047 13.2676 159.14 13.0332 159.14 12.7285C159.14 12.415 159.047 12.1616 158.863 11.9683C158.678 11.7749 158.423 11.6753 158.098 11.6694H156.89V13.6777ZM163.82 17C163.761 16.8857 163.719 16.7437 163.693 16.5737C163.385 16.9165 162.985 17.0879 162.493 17.0879C162.027 17.0879 161.64 16.9531 161.333 16.6836C161.028 16.4141 160.876 16.0742 160.876 15.6641C160.876 15.1602 161.062 14.7734 161.434 14.5039C161.809 14.2344 162.349 14.0981 163.055 14.0952H163.64V13.8228C163.64 13.603 163.583 13.4272 163.468 13.2954C163.357 13.1636 163.18 13.0977 162.937 13.0977C162.723 13.0977 162.554 13.1489 162.431 13.2515C162.311 13.354 162.251 13.4946 162.251 13.6733H160.981C160.981 13.3979 161.066 13.1431 161.236 12.9087C161.406 12.6743 161.646 12.4912 161.957 12.3594C162.267 12.2246 162.616 12.1572 163.003 12.1572C163.589 12.1572 164.053 12.3052 164.396 12.6011C164.741 12.894 164.914 13.3071 164.914 13.8403V15.9014C164.917 16.3525 164.98 16.6938 165.103 16.9253V17H163.82ZM162.77 16.1167C162.957 16.1167 163.13 16.0757 163.288 15.9937C163.446 15.9087 163.564 15.7959 163.64 15.6553V14.8379H163.165C162.529 14.8379 162.191 15.0576 162.15 15.4971L162.146 15.5718C162.146 15.73 162.201 15.8604 162.313 15.9629C162.424 16.0654 162.576 16.1167 162.77 16.1167ZM168.382 13.436C168.209 13.4126 168.057 13.4009 167.925 13.4009C167.444 13.4009 167.129 13.5635 166.98 13.8887V17H165.71V12.2451H166.91L166.945 12.812C167.2 12.3755 167.553 12.1572 168.004 12.1572C168.144 12.1572 168.276 12.1763 168.399 12.2144L168.382 13.436ZM171.44 17C171.382 16.8857 171.339 16.7437 171.313 16.5737C171.005 16.9165 170.606 17.0879 170.113 17.0879C169.648 17.0879 169.261 16.9531 168.953 16.6836C168.648 16.4141 168.496 16.0742 168.496 15.6641C168.496 15.1602 168.682 14.7734 169.054 14.5039C169.429 14.2344 169.97 14.0981 170.676 14.0952H171.26V13.8228C171.26 13.603 171.203 13.4272 171.089 13.2954C170.978 13.1636 170.8 13.0977 170.557 13.0977C170.343 13.0977 170.175 13.1489 170.052 13.2515C169.932 13.354 169.872 13.4946 169.872 13.6733H168.602C168.602 13.3979 168.687 13.1431 168.856 12.9087C169.026 12.6743 169.267 12.4912 169.577 12.3594C169.888 12.2246 170.236 12.1572 170.623 12.1572C171.209 12.1572 171.673 12.3052 172.016 12.6011C172.362 12.894 172.535 13.3071 172.535 13.8403V15.9014C172.538 16.3525 172.601 16.6938 172.724 16.9253V17H171.44ZM170.39 16.1167C170.578 16.1167 170.751 16.0757 170.909 15.9937C171.067 15.9087 171.184 15.7959 171.26 15.6553V14.8379H170.786C170.15 14.8379 169.812 15.0576 169.771 15.4971L169.766 15.5718C169.766 15.73 169.822 15.8604 169.933 15.9629C170.044 16.0654 170.197 16.1167 170.39 16.1167ZM174.671 17H173.396V10.25H174.671V17ZM176.881 17H175.607V10.25H176.881V17ZM180.507 17C180.448 16.8857 180.406 16.7437 180.379 16.5737C180.072 16.9165 179.672 17.0879 179.18 17.0879C178.714 17.0879 178.327 16.9531 178.02 16.6836C177.715 16.4141 177.563 16.0742 177.563 15.6641C177.563 15.1602 177.749 14.7734 178.121 14.5039C178.496 14.2344 179.036 14.0981 179.742 14.0952H180.327V13.8228C180.327 13.603 180.27 13.4272 180.155 13.2954C180.044 13.1636 179.867 13.0977 179.624 13.0977C179.41 13.0977 179.241 13.1489 179.118 13.2515C178.998 13.354 178.938 13.4946 178.938 13.6733H177.668C177.668 13.3979 177.753 13.1431 177.923 12.9087C178.093 12.6743 178.333 12.4912 178.644 12.3594C178.954 12.2246 179.303 12.1572 179.69 12.1572C180.275 12.1572 180.74 12.3052 181.083 12.6011C181.428 12.894 181.601 13.3071 181.601 13.8403V15.9014C181.604 16.3525 181.667 16.6938 181.79 16.9253V17H180.507ZM179.457 16.1167C179.644 16.1167 179.817 16.0757 179.975 15.9937C180.133 15.9087 180.251 15.7959 180.327 15.6553V14.8379H179.852C179.216 14.8379 178.878 15.0576 178.837 15.4971L178.833 15.5718C178.833 15.73 178.888 15.8604 179 15.9629C179.111 16.0654 179.263 16.1167 179.457 16.1167ZM184.207 13.6646L185.007 12.2451H186.365L185.011 14.5742L186.422 17H185.06L184.212 15.5059L183.368 17H182.001L183.412 14.5742L182.063 12.2451H183.425L184.207 13.6646Z" fill="#C2C2C2"/>
<path d="M225.414 9.60156V13.8159C225.414 14.5161 225.194 15.0698 224.755 15.4771C224.318 15.8843 223.721 16.0879 222.962 16.0879C222.215 16.0879 221.622 15.8901 221.182 15.4946C220.743 15.0991 220.519 14.5557 220.51 13.8643V9.60156H221.828V13.8247C221.828 14.2437 221.928 14.5498 222.127 14.7432C222.329 14.9336 222.607 15.0288 222.962 15.0288C223.703 15.0288 224.08 14.6392 224.091 13.8599V9.60156H225.414ZM227.401 11.2451L227.44 11.7944C227.78 11.3696 228.236 11.1572 228.807 11.1572C229.311 11.1572 229.686 11.3052 229.932 11.6011C230.178 11.897 230.304 12.3394 230.31 12.9282V16H229.04V12.959C229.04 12.6895 228.981 12.4946 228.864 12.3745C228.747 12.2515 228.552 12.1899 228.279 12.1899C227.922 12.1899 227.654 12.3423 227.475 12.647V16H226.205V11.2451H227.401ZM232.437 16H231.162V11.2451H232.437V16ZM231.088 10.0146C231.088 9.82422 231.151 9.66748 231.277 9.54443C231.406 9.42139 231.58 9.35986 231.8 9.35986C232.016 9.35986 232.189 9.42139 232.318 9.54443C232.447 9.66748 232.512 9.82422 232.512 10.0146C232.512 10.208 232.446 10.3662 232.314 10.4893C232.185 10.6123 232.014 10.6738 231.8 10.6738C231.586 10.6738 231.413 10.6123 231.281 10.4893C231.152 10.3662 231.088 10.208 231.088 10.0146ZM234.828 10.0762V11.2451H235.641V12.1768H234.828V14.5498C234.828 14.7256 234.861 14.8516 234.929 14.9277C234.996 15.0039 235.125 15.042 235.315 15.042C235.456 15.042 235.581 15.0317 235.689 15.0112V15.9736C235.44 16.0498 235.184 16.0879 234.92 16.0879C234.029 16.0879 233.575 15.6382 233.558 14.7388V12.1768H232.863V11.2451H233.558V10.0762H234.828Z" fill="#C2C2C2"/>
<path d="M225.388 18.6694H223.428V24H222.109V18.6694H220.176V17.6016H225.388V18.6694ZM227.673 24.0879C226.976 24.0879 226.407 23.874 225.968 23.4463C225.531 23.0186 225.313 22.4487 225.313 21.7368V21.6138C225.313 21.1362 225.405 20.71 225.59 20.335C225.775 19.957 226.035 19.667 226.372 19.4648C226.712 19.2598 227.099 19.1572 227.532 19.1572C228.183 19.1572 228.694 19.3623 229.066 19.7725C229.441 20.1826 229.629 20.7642 229.629 21.5171V22.0356H226.601C226.642 22.3462 226.765 22.5952 226.97 22.7827C227.178 22.9702 227.44 23.064 227.757 23.064C228.246 23.064 228.628 22.8867 228.903 22.5322L229.528 23.231C229.337 23.5005 229.079 23.7114 228.754 23.8638C228.429 24.0132 228.069 24.0879 227.673 24.0879ZM227.528 20.1855C227.276 20.1855 227.071 20.2705 226.913 20.4404C226.758 20.6104 226.658 20.8535 226.614 21.1699H228.381V21.0688C228.375 20.7876 228.299 20.5708 228.152 20.4185C228.006 20.2632 227.798 20.1855 227.528 20.1855ZM232.749 22.686C232.749 22.5308 232.671 22.4092 232.516 22.3213C232.364 22.2305 232.118 22.1499 231.778 22.0796C230.647 21.8423 230.081 21.3618 230.081 20.6382C230.081 20.2163 230.256 19.8647 230.604 19.5835C230.956 19.2993 231.414 19.1572 231.98 19.1572C232.583 19.1572 233.065 19.2993 233.426 19.5835C233.789 19.8677 233.971 20.2368 233.971 20.6909H232.701C232.701 20.5093 232.642 20.3599 232.525 20.2427C232.408 20.1226 232.224 20.0625 231.975 20.0625C231.762 20.0625 231.596 20.1108 231.479 20.2075C231.362 20.3042 231.303 20.4272 231.303 20.5767C231.303 20.7173 231.369 20.8315 231.501 20.9194C231.636 21.0044 231.861 21.0791 232.178 21.1436C232.494 21.2051 232.761 21.2754 232.977 21.3545C233.648 21.6006 233.984 22.0269 233.984 22.6333C233.984 23.0669 233.798 23.4185 233.426 23.688C233.054 23.9546 232.573 24.0879 231.984 24.0879C231.586 24.0879 231.231 24.0176 230.921 23.877C230.613 23.7334 230.371 23.5386 230.196 23.2925C230.02 23.0435 229.932 22.7754 229.932 22.4883H231.136C231.148 22.7139 231.231 22.8867 231.387 23.0068C231.542 23.127 231.75 23.187 232.011 23.187C232.254 23.187 232.437 23.1416 232.56 23.0508C232.686 22.957 232.749 22.8354 232.749 22.686ZM236.146 18.0762V19.2451H236.959V20.1768H236.146V22.5498C236.146 22.7256 236.18 22.8516 236.247 22.9277C236.314 23.0039 236.443 23.042 236.634 23.042C236.774 23.042 236.899 23.0317 237.007 23.0112V23.9736C236.758 24.0498 236.502 24.0879 236.238 24.0879C235.348 24.0879 234.894 23.6382 234.876 22.7388V20.1768H234.182V19.2451H234.876V18.0762H236.146ZM238.827 24H237.552V19.2451H238.827V24ZM237.478 18.0146C237.478 17.8242 237.541 17.6675 237.667 17.5444C237.796 17.4214 237.97 17.3599 238.19 17.3599C238.406 17.3599 238.579 17.4214 238.708 17.5444C238.837 17.6675 238.902 17.8242 238.902 18.0146C238.902 18.208 238.836 18.3662 238.704 18.4893C238.575 18.6123 238.404 18.6738 238.19 18.6738C237.976 18.6738 237.803 18.6123 237.671 18.4893C237.542 18.3662 237.478 18.208 237.478 18.0146ZM240.866 19.2451L240.906 19.7944C241.246 19.3696 241.701 19.1572 242.272 19.1572C242.776 19.1572 243.151 19.3052 243.397 19.6011C243.643 19.897 243.769 20.3394 243.775 20.9282V24H242.505V20.959C242.505 20.6895 242.447 20.4946 242.329 20.3745C242.212 20.2515 242.017 20.1899 241.745 20.1899C241.388 20.1899 241.12 20.3423 240.941 20.647V24H239.671V19.2451H240.866ZM244.378 21.5874C244.378 20.8579 244.55 20.2705 244.896 19.8252C245.245 19.3799 245.713 19.1572 246.302 19.1572C246.824 19.1572 247.23 19.3359 247.52 19.6934L247.572 19.2451H248.724V23.8418C248.724 24.2578 248.628 24.6196 248.438 24.9272C248.251 25.2349 247.985 25.4692 247.643 25.6304C247.3 25.7915 246.899 25.8721 246.439 25.8721C246.09 25.8721 245.75 25.8018 245.419 25.6611C245.088 25.5234 244.837 25.3447 244.668 25.125L245.23 24.3516C245.546 24.7061 245.93 24.8833 246.381 24.8833C246.718 24.8833 246.981 24.7925 247.168 24.6108C247.356 24.4321 247.449 24.1772 247.449 23.8462V23.5913C247.156 23.9224 246.771 24.0879 246.294 24.0879C245.722 24.0879 245.259 23.8652 244.905 23.4199C244.553 22.9717 244.378 22.3784 244.378 21.6401V21.5874ZM245.648 21.6797C245.648 22.1104 245.734 22.4487 245.907 22.6948C246.08 22.938 246.317 23.0596 246.619 23.0596C247.005 23.0596 247.282 22.9146 247.449 22.6245V20.625C247.279 20.335 247.005 20.1899 246.628 20.1899C246.323 20.1899 246.083 20.3145 245.907 20.5635C245.734 20.8125 245.648 21.1846 245.648 21.6797Z" fill="#C2C2C2"/>
<path d="M158.889 23.3213C158.889 23.0723 158.801 22.8818 158.625 22.75C158.45 22.6152 158.133 22.4746 157.676 22.3281C157.219 22.1787 156.857 22.0322 156.591 21.8887C155.864 21.4961 155.501 20.9673 155.501 20.3022C155.501 19.9565 155.598 19.6489 155.791 19.3794C155.987 19.1069 156.267 18.8945 156.63 18.7422C156.997 18.5898 157.407 18.5137 157.861 18.5137C158.318 18.5137 158.725 18.5972 159.083 18.7642C159.44 18.9282 159.717 19.1611 159.913 19.4629C160.112 19.7646 160.212 20.1074 160.212 20.4912H158.894C158.894 20.1982 158.801 19.9712 158.617 19.8101C158.432 19.646 158.173 19.564 157.839 19.564C157.517 19.564 157.266 19.6328 157.087 19.7705C156.909 19.9053 156.819 20.084 156.819 20.3066C156.819 20.5146 156.923 20.689 157.131 20.8296C157.342 20.9702 157.651 21.1021 158.059 21.2251C158.809 21.4507 159.355 21.7305 159.698 22.0645C160.041 22.3984 160.212 22.8145 160.212 23.3125C160.212 23.8662 160.002 24.3013 159.583 24.6177C159.165 24.9312 158.601 25.0879 157.892 25.0879C157.399 25.0879 156.951 24.9985 156.547 24.8198C156.143 24.6382 155.833 24.3906 155.62 24.0771C155.409 23.7637 155.303 23.4004 155.303 22.9873H156.626C156.626 23.6934 157.048 24.0464 157.892 24.0464C158.205 24.0464 158.45 23.9834 158.625 23.8574C158.801 23.7285 158.889 23.5498 158.889 23.3213ZM162.822 24.064C163.057 24.064 163.247 23.9995 163.394 23.8706C163.54 23.7417 163.616 23.5703 163.622 23.3564H164.813C164.81 23.6787 164.722 23.9746 164.549 24.2441C164.377 24.5107 164.139 24.7188 163.838 24.8682C163.539 25.0146 163.208 25.0879 162.844 25.0879C162.165 25.0879 161.629 24.8726 161.236 24.4419C160.843 24.0083 160.647 23.4106 160.647 22.6489V22.5654C160.647 21.833 160.842 21.2485 161.232 20.812C161.621 20.3755 162.156 20.1572 162.836 20.1572C163.43 20.1572 163.906 20.3271 164.264 20.667C164.624 21.0039 164.807 21.4536 164.813 22.0161H163.622C163.616 21.77 163.54 21.5708 163.394 21.4185C163.247 21.2632 163.054 21.1855 162.814 21.1855C162.518 21.1855 162.294 21.2939 162.141 21.5107C161.992 21.7246 161.917 22.0732 161.917 22.5566V22.6885C161.917 23.1777 161.992 23.5293 162.141 23.7432C162.291 23.957 162.518 24.064 162.822 24.064ZM168.03 21.436C167.857 21.4126 167.705 21.4009 167.573 21.4009C167.093 21.4009 166.778 21.5635 166.628 21.8887V25H165.358V20.2451H166.558L166.593 20.812C166.848 20.3755 167.201 20.1572 167.652 20.1572C167.793 20.1572 167.925 20.1763 168.048 20.2144L168.03 21.436ZM168.109 22.5786C168.109 22.1069 168.2 21.6865 168.382 21.3174C168.564 20.9482 168.824 20.6626 169.164 20.4604C169.507 20.2583 169.904 20.1572 170.355 20.1572C170.997 20.1572 171.52 20.3535 171.924 20.7461C172.331 21.1387 172.558 21.6719 172.605 22.3457L172.614 22.6709C172.614 23.4004 172.41 23.9863 172.003 24.4287C171.596 24.8682 171.049 25.0879 170.364 25.0879C169.678 25.0879 169.13 24.8682 168.72 24.4287C168.313 23.9893 168.109 23.3916 168.109 22.6357V22.5786ZM169.379 22.6709C169.379 23.1221 169.464 23.4678 169.634 23.708C169.804 23.9453 170.047 24.064 170.364 24.064C170.671 24.064 170.912 23.9468 171.085 23.7124C171.257 23.4751 171.344 23.0972 171.344 22.5786C171.344 22.1362 171.257 21.7935 171.085 21.5503C170.912 21.3071 170.668 21.1855 170.355 21.1855C170.044 21.1855 169.804 21.3071 169.634 21.5503C169.464 21.7905 169.379 22.1641 169.379 22.6709ZM174.556 25H173.282V18.25H174.556V25ZM176.767 25H175.493V18.25H176.767V25Z" fill="#C2C2C2"/>
<g clip-path="url(#clip0)">
<path d="M115.984 24.349C115.875 23.4643 115.426 22.6969 114.648 22.0653C114.638 22.0535 114.627 22.0426 114.616 22.0326L114.576 22.0044L114.564 21.9955L114.15 21.6987L114.136 21.6883L114.084 21.6512C114.064 21.6399 114.044 21.6311 114.022 21.6252C112.714 20.8466 110.549 20.3011 107.237 21.4701C106.447 20.1401 106.357 19.0743 106.886 17.4415C106.98 17.1572 106.893 16.9694 106.611 16.8477C106.044 16.6065 105.267 16.7297 104.717 16.8752C104.46 16.942 104.305 17.0874 104.256 17.3079C103.908 18.9407 102.894 20.4325 101.913 21.8723L101.855 21.9569C101.251 20.6759 101.377 19.6836 101.797 18.4404C101.881 18.1926 101.815 18.0278 101.583 17.9046C100.934 17.5699 99.9613 17.7999 99.5739 17.9142C99.0826 18.0575 98.5556 19.3853 97.9671 20.975C97.8186 21.3751 97.691 21.7172 97.6145 21.8768C97.4327 22.2479 97.259 22.6709 97.075 23.1199C96.6593 24.136 96.191 25.2797 95.5216 25.9981C95.2781 25.4601 95.6611 24.6117 96.0329 23.7887C96.473 22.8156 96.8887 21.8961 96.41 21.309C96.3343 21.2162 96.2403 21.1399 96.134 21.0847C96.0277 21.0296 95.9112 20.9968 95.7917 20.9884C95.6358 20.9765 95.4794 21.002 95.3353 21.0626C95.385 20.6433 95.3872 20.3122 95.2648 19.9122C95.0896 19.3415 94.6346 19.0216 94.0082 19.0387C92.5818 19.0802 91.375 20.143 90.6127 21.0277C90.1051 21.6215 88.9799 22.0742 87.9921 22.4713C87.6017 22.6368 87.2306 22.7852 86.9211 22.9337C86.4275 22.5165 85.8004 22.0957 85.1398 21.6512C83.2844 20.4058 81.1818 18.9934 81.109 17.0785C81.0051 14.2501 84.2262 12.2439 87.0376 10.8122C89.1684 9.72865 91.0209 9.01021 92.7012 8.61759C95.0614 8.06615 97.0549 8.17748 98.6254 8.94713C99.4848 9.36795 99.8871 10.2831 99.6318 11.2242C98.9638 13.6697 96.1962 15.3455 93.8294 16.0996C92.4036 16.5538 91.1902 16.7438 90.1184 16.6815C88.7751 16.6035 87.6781 15.9296 87.2091 15.6424C87.1339 15.5911 87.0544 15.5464 86.9716 15.5088L86.95 15.5036C86.9076 15.493 86.863 15.4944 86.8212 15.5075C86.7795 15.5206 86.7421 15.5449 86.7133 15.5778C86.6168 15.6929 86.6509 15.8747 86.6858 15.9667C87.1423 17.1594 88.0848 17.9128 89.4868 18.2059C89.9457 18.2978 90.4127 18.3423 90.8807 18.3388C94.1619 18.3388 98.3486 16.4469 99.8864 14.8891C100.935 13.8278 101.699 12.7367 102.015 10.8553C102.345 8.88478 101.009 7.51545 99.6481 6.88459C96.3402 5.35791 92.5832 5.9613 90.0138 6.73615C87.0079 7.64236 83.8982 9.29002 81.4831 11.2583C78.5054 13.683 77.4293 15.9341 78.2828 17.9565C79.1593 20.0295 81.2968 21.3261 83.3638 22.5804C84.0318 22.9849 84.6671 23.3701 85.2393 23.7679C85.0671 23.8517 84.8912 23.9371 84.7123 24.0224C82.9771 24.8633 81.0088 25.8096 79.9171 27.3734C79.1244 28.5127 78.976 29.6467 79.4762 30.7444C79.7434 31.3285 80.2184 31.7249 80.8782 31.9223C81.2214 32.0195 81.5769 32.0668 81.9336 32.0626C83.2183 32.0626 84.6322 31.543 85.4018 31.0628C86.7615 30.2093 87.6425 29.0634 88.021 27.6569C88.358 26.4056 88.2771 25.1624 87.7872 24.0529L89.4534 23.2127C88.6496 25.8846 89.2657 27.4803 89.9425 28.3605C90.1919 28.6849 90.6417 28.8801 91.1441 28.889C91.6466 28.8979 92.109 28.7086 92.3702 28.3865C92.8645 27.7742 93.2297 27.058 93.5659 26.3418C93.5481 26.8094 93.5703 27.2829 93.7299 27.6844C93.8732 28.0458 94.1092 28.2856 94.4135 28.3776C94.7371 28.4763 95.1163 28.3932 95.4815 28.1438C97.1269 27.0179 98.2521 24.3156 99.156 22.1432C99.2844 21.8345 99.4076 21.5376 99.5271 21.26C99.7508 22.0604 100.062 22.8337 100.455 23.566C100.542 23.7248 100.535 23.7946 100.416 23.9252C100.237 24.1212 99.988 24.3579 99.7238 24.6088C98.9237 25.368 97.9277 26.3158 97.7941 27.1493C97.7422 27.4833 97.9723 27.7876 98.3293 27.8566C99.4032 28.0703 100.697 27.7579 101.791 27.0216C102.785 26.3537 103.159 25.4222 102.904 24.2614C102.657 23.1437 103.221 21.7558 104.581 20.1334C104.803 21.0633 105.1 21.8152 105.51 22.4735L105.499 22.4824C104.509 23.3471 103.152 24.5308 103.363 25.967C103.38 26.1036 103.426 26.2349 103.498 26.3528C103.569 26.4706 103.664 26.5723 103.777 26.6513C103.897 26.7327 104.034 26.7882 104.177 26.8146C104.32 26.8409 104.467 26.8373 104.608 26.8042C105.905 26.5318 106.881 25.9833 107.59 25.129C108.3 24.2748 108.041 23.3278 107.802 22.593C109.657 22.0898 111.309 22.1024 112.856 22.6301C113.724 22.927 114.347 23.4146 114.706 24.0878C115.158 24.9346 114.914 25.7161 114.017 26.2883C113.742 26.4642 113.609 26.5719 113.601 26.7077C113.599 26.7392 113.604 26.7707 113.617 26.7995C113.63 26.8283 113.65 26.8536 113.675 26.8732C113.779 26.9585 114.099 27.107 114.824 26.6505C115.492 26.2312 115.884 25.6604 115.984 24.9435C116.005 24.7458 116.004 24.5466 115.984 24.349ZM86.3162 26.2089L86.3088 26.3039C86.193 27.3905 85.6408 28.3375 84.6648 29.1242C84.0518 29.6185 83.3861 29.9221 82.7908 29.98C82.3752 30.0201 82.0731 29.9637 81.8935 29.8115C81.7592 29.698 81.6872 29.528 81.6709 29.292C81.5491 27.4009 84.5149 25.5217 86.1841 24.9034C86.3032 25.3277 86.3479 25.7694 86.3162 26.2089ZM93.9125 20.8756C93.6379 22.4408 92.8371 25.3955 91.5783 26.5422C91.5182 26.5971 91.4677 26.6164 91.4447 26.6112C91.4217 26.606 91.4039 26.5785 91.3853 26.537C90.9653 25.5632 91.1204 23.9185 91.7564 22.6264C92.2455 21.6304 92.9439 20.9706 93.7247 20.7709C93.7571 20.762 93.7906 20.7572 93.8242 20.7568C93.8505 20.755 93.8766 20.762 93.8984 20.7769C93.9076 20.7914 93.9136 20.8077 93.916 20.8247C93.9184 20.8417 93.9172 20.859 93.9125 20.8756ZM100.109 26.5815C99.8723 26.8287 99.5479 26.7953 99.6244 26.7047L100.83 25.4252C100.732 25.8653 100.445 26.2297 100.109 26.5815ZM105.109 25.4749C104.995 25.5314 104.87 25.5664 104.743 25.5781C104.709 24.9049 105.361 24.1471 106.005 23.6417C106.178 24.3438 105.824 25.086 105.109 25.4749Z" fill="#C2C2C2"/>
</g>
<path d="M31.3984 26V17.4688H29.7695V20.9668H27.3555V17.4688H25.7207V26H27.3555V22.3027H29.7695V26H31.3984ZM32.2105 22.7715V22.8945C32.2105 23.3594 32.277 23.7891 32.4098 24.1836C32.5426 24.5742 32.7379 24.9141 32.9957 25.2031C33.2496 25.4922 33.5621 25.7188 33.9332 25.8828C34.3082 26.043 34.734 26.123 35.2105 26.123C35.6832 26.123 36.1051 26.043 36.4762 25.8828C36.8473 25.7188 37.1598 25.4922 37.4137 25.2031C37.6676 24.9141 37.8609 24.5742 37.9938 24.1836C38.1266 23.7891 38.193 23.3594 38.193 22.8945V22.7715C38.193 22.3105 38.1266 21.8848 37.9938 21.4941C37.8609 21.0996 37.6676 20.7578 37.4137 20.4688C37.1559 20.1797 36.8414 19.9531 36.4703 19.7891C36.0992 19.625 35.6754 19.543 35.1988 19.543C34.7223 19.543 34.2984 19.625 33.9273 19.7891C33.5602 19.9531 33.2496 20.1797 32.9957 20.4688C32.7379 20.7578 32.5426 21.0996 32.4098 21.4941C32.277 21.8848 32.2105 22.3105 32.2105 22.7715ZM33.8395 22.8945V22.7715C33.8395 22.5137 33.8648 22.2695 33.9156 22.0391C33.9664 21.8086 34.0465 21.6055 34.1559 21.4297C34.2652 21.2539 34.4059 21.1152 34.5777 21.0137C34.7496 20.9121 34.9566 20.8613 35.1988 20.8613C35.4449 20.8613 35.6539 20.9121 35.8258 21.0137C35.9977 21.1152 36.1383 21.2539 36.2477 21.4297C36.3531 21.6055 36.4313 21.8086 36.482 22.0391C36.5328 22.2695 36.5582 22.5137 36.5582 22.7715V22.8945C36.5582 23.1602 36.5328 23.4102 36.482 23.6445C36.4313 23.875 36.3531 24.0762 36.2477 24.248C36.1383 24.4238 35.9977 24.5625 35.8258 24.6641C35.6539 24.7656 35.4488 24.8164 35.2105 24.8164C34.9645 24.8164 34.7535 24.7656 34.5777 24.6641C34.4059 24.5625 34.2652 24.4238 34.1559 24.248C34.0465 24.0762 33.9664 23.875 33.9156 23.6445C33.8648 23.4102 33.8395 23.1602 33.8395 22.8945ZM38.8176 22.7715V22.8945C38.8176 23.3594 38.884 23.7891 39.0168 24.1836C39.1496 24.5742 39.3449 24.9141 39.6027 25.2031C39.8566 25.4922 40.1691 25.7188 40.5402 25.8828C40.9152 26.043 41.341 26.123 41.8176 26.123C42.2902 26.123 42.7121 26.043 43.0832 25.8828C43.4543 25.7188 43.7668 25.4922 44.0207 25.2031C44.2746 24.9141 44.468 24.5742 44.6008 24.1836C44.7336 23.7891 44.8 23.3594 44.8 22.8945V22.7715C44.8 22.3105 44.7336 21.8848 44.6008 21.4941C44.468 21.0996 44.2746 20.7578 44.0207 20.4688C43.7629 20.1797 43.4484 19.9531 43.0773 19.7891C42.7063 19.625 42.2824 19.543 41.8059 19.543C41.3293 19.543 40.9055 19.625 40.5344 19.7891C40.1672 19.9531 39.8566 20.1797 39.6027 20.4688C39.3449 20.7578 39.1496 21.0996 39.0168 21.4941C38.884 21.8848 38.8176 22.3105 38.8176 22.7715ZM40.4465 22.8945V22.7715C40.4465 22.5137 40.4719 22.2695 40.5227 22.0391C40.5734 21.8086 40.6535 21.6055 40.7629 21.4297C40.8723 21.2539 41.0129 21.1152 41.1848 21.0137C41.3566 20.9121 41.5637 20.8613 41.8059 20.8613C42.052 20.8613 42.2609 20.9121 42.4328 21.0137C42.6047 21.1152 42.7453 21.2539 42.8547 21.4297C42.9602 21.6055 43.0383 21.8086 43.0891 22.0391C43.1398 22.2695 43.1652 22.5137 43.1652 22.7715V22.8945C43.1652 23.1602 43.1398 23.4102 43.0891 23.6445C43.0383 23.875 42.9602 24.0762 42.8547 24.248C42.7453 24.4238 42.6047 24.5625 42.4328 24.6641C42.2609 24.7656 42.0559 24.8164 41.8176 24.8164C41.5715 24.8164 41.3605 24.7656 41.1848 24.6641C41.0129 24.5625 40.8723 24.4238 40.7629 24.248C40.6535 24.0762 40.5734 23.875 40.5227 23.6445C40.4719 23.4102 40.4465 23.1602 40.4465 22.8945ZM48.032 23.3809L49.8309 26H51.8289L49.1043 22.3027L51.4949 19.6602H49.5379L47.7859 21.582L47.2938 22.1445V17H45.6648V26H47.2938V24.0664L48.032 23.3809ZM56.3441 24.2598C56.3441 24.3574 56.3188 24.4473 56.268 24.5293C56.2211 24.6113 56.1488 24.6836 56.0512 24.7461C55.9496 24.8086 55.8188 24.8594 55.6586 24.8984C55.5023 24.9336 55.3188 24.9512 55.1078 24.9512C54.932 24.9512 54.7602 24.9336 54.5922 24.8984C54.4281 24.8633 54.2816 24.8066 54.1527 24.7285C54.0238 24.6543 53.9184 24.5566 53.8363 24.4355C53.7543 24.3105 53.7074 24.1621 53.6957 23.9902H52.143C52.143 24.248 52.2055 24.5059 52.3305 24.7637C52.4594 25.0176 52.6469 25.2441 52.893 25.4434C53.1391 25.6465 53.4438 25.8105 53.807 25.9355C54.1742 26.0605 54.5961 26.123 55.0727 26.123C55.5063 26.123 55.8988 26.0762 56.2504 25.9824C56.602 25.8848 56.9027 25.75 57.1527 25.5781C57.3988 25.4062 57.5883 25.2031 57.7211 24.9688C57.8578 24.7305 57.9262 24.4707 57.9262 24.1895C57.9262 23.8848 57.8578 23.623 57.7211 23.4043C57.5883 23.1816 57.4027 22.9922 57.1645 22.8359C56.9262 22.6836 56.643 22.5586 56.3148 22.4609C55.9867 22.3633 55.6313 22.2832 55.2484 22.2207C54.9828 22.1816 54.7641 22.1367 54.5922 22.0859C54.4203 22.0312 54.2855 21.9707 54.1879 21.9043C54.0863 21.8418 54.016 21.7715 53.977 21.6934C53.9379 21.6113 53.9184 21.5234 53.9184 21.4297C53.9184 21.3359 53.9398 21.248 53.9828 21.166C54.0297 21.0801 54.0961 21.0059 54.182 20.9434C54.2758 20.873 54.3969 20.8184 54.5453 20.7793C54.6938 20.7402 54.8676 20.7207 55.0668 20.7207C55.3012 20.7207 55.5004 20.75 55.6645 20.8086C55.8324 20.8672 55.9652 20.9453 56.0629 21.043C56.1332 21.1172 56.1859 21.2012 56.2211 21.2949C56.2563 21.3848 56.2738 21.4824 56.2738 21.5879H57.9027C57.9027 21.2949 57.8383 21.0234 57.7094 20.7734C57.5805 20.5234 57.3949 20.3066 57.1527 20.123C56.9066 19.9434 56.6078 19.8027 56.2563 19.7012C55.9047 19.5957 55.5082 19.543 55.0668 19.543C54.6449 19.543 54.266 19.5957 53.9301 19.7012C53.5941 19.8066 53.309 19.9492 53.0746 20.1289C52.8402 20.3086 52.6605 20.5176 52.5355 20.7559C52.4105 20.9941 52.348 21.2441 52.348 21.5059C52.348 21.7754 52.4086 22.0137 52.5297 22.2207C52.6547 22.4277 52.8266 22.6094 53.0453 22.7656C53.2641 22.9258 53.5258 23.0625 53.8305 23.1758C54.1391 23.2852 54.4789 23.377 54.85 23.4512C55.143 23.5059 55.3852 23.5605 55.5766 23.6152C55.768 23.6699 55.9223 23.7285 56.0395 23.791C56.1527 23.8574 56.2309 23.9277 56.2738 24.002C56.3207 24.0762 56.3441 24.1621 56.3441 24.2598Z" fill="#C4C4C4"/>
<path d="M27.7466 13.6094L28.9507 16H30.2734V15.9429L28.8979 13.3018C29.0737 13.2227 29.2319 13.1289 29.3726 13.0205C29.5161 12.9121 29.6392 12.7847 29.7417 12.6382C29.8413 12.4946 29.9175 12.332 29.9702 12.1504C30.0259 11.9658 30.0537 11.7593 30.0537 11.5308C30.0537 11.2144 29.998 10.936 29.8867 10.6958C29.7783 10.4556 29.623 10.2549 29.4209 10.0938C29.2158 9.93262 28.9697 9.81104 28.6826 9.729C28.3955 9.64404 28.0747 9.60156 27.7202 9.60156H25.5757V16H26.8105V13.6094H27.7466ZM26.8105 12.6074V10.6035H27.7202C27.8901 10.6035 28.041 10.624 28.1729 10.665C28.3047 10.7061 28.416 10.7646 28.5068 10.8408C28.6094 10.9258 28.6855 11.0342 28.7354 11.166C28.7881 11.2949 28.8145 11.4443 28.8145 11.6143C28.8145 11.7549 28.7939 11.8823 28.7529 11.9966C28.7148 12.1108 28.6577 12.209 28.5815 12.291C28.4907 12.3936 28.3721 12.4727 28.2256 12.5283C28.082 12.5811 27.915 12.6074 27.7246 12.6074H26.8105ZM32.882 16.0879C33.342 16.0879 33.7404 15.9985 34.0773 15.8198C34.4143 15.6411 34.6604 15.4419 34.8156 15.2222L34.2048 14.563C34.0642 14.7446 33.8811 14.8809 33.6555 14.9717C33.4299 15.0625 33.197 15.1079 32.9567 15.1079C32.7868 15.1079 32.6301 15.0815 32.4865 15.0288C32.343 14.9761 32.2155 14.9014 32.1042 14.8047C31.9958 14.7109 31.9094 14.6069 31.8449 14.4927C31.7805 14.3755 31.7277 14.2217 31.6867 14.0312V14.0181H34.9123V13.4995C34.9123 13.1509 34.864 12.833 34.7673 12.5459C34.6706 12.2559 34.53 12.0083 34.3454 11.8032C34.1579 11.5981 33.9294 11.4399 33.6599 11.3286C33.3933 11.2144 33.0886 11.1572 32.7458 11.1572C32.4147 11.1572 32.1086 11.2173 31.8273 11.3374C31.5461 11.4575 31.3029 11.626 31.0979 11.8428C30.8928 12.0596 30.7331 12.3188 30.6188 12.6206C30.5046 12.9194 30.4475 13.2505 30.4475 13.6138V13.7896C30.4475 14.1089 30.5046 14.4092 30.6188 14.6904C30.736 14.9688 30.9016 15.2104 31.1154 15.4155C31.3293 15.6235 31.5856 15.7876 31.8845 15.9077C32.1833 16.0278 32.5158 16.0879 32.882 16.0879ZM32.737 12.146C32.8923 12.146 33.0285 12.1709 33.1457 12.2207C33.2658 12.2676 33.3669 12.332 33.4489 12.4141C33.531 12.499 33.5954 12.5986 33.6423 12.7129C33.6892 12.8271 33.7126 12.9487 33.7126 13.0776V13.1743H31.7087C31.738 13.019 31.7819 12.8784 31.8405 12.7524C31.8991 12.6265 31.9724 12.5181 32.0603 12.4272C32.1452 12.3364 32.2448 12.2676 32.3591 12.2207C32.4733 12.1709 32.5993 12.146 32.737 12.146ZM38.5009 16H39.7401V15.9253C39.6786 15.8052 39.6317 15.6616 39.5995 15.4946C39.5673 15.3276 39.5512 15.1167 39.5512 14.8618V12.8228C39.5512 12.5474 39.4999 12.3057 39.3974 12.0977C39.2948 11.8867 39.1527 11.7124 38.9711 11.5747C38.7895 11.437 38.5741 11.333 38.3251 11.2627C38.079 11.1924 37.8124 11.1572 37.5253 11.1572C37.206 11.1572 36.9218 11.1982 36.6728 11.2803C36.4267 11.3594 36.2187 11.4678 36.0487 11.6055C35.8759 11.7432 35.744 11.9028 35.6532 12.0845C35.5653 12.2661 35.5214 12.458 35.5214 12.6602H36.7431C36.7431 12.5752 36.7548 12.4976 36.7782 12.4272C36.8046 12.3569 36.8441 12.2969 36.8969 12.2471C36.9555 12.1914 37.0316 12.1489 37.1254 12.1196C37.2191 12.0874 37.3305 12.0713 37.4594 12.0713C37.6059 12.0713 37.7333 12.0903 37.8417 12.1284C37.953 12.1636 38.0453 12.2148 38.1186 12.2822C38.1889 12.3467 38.2416 12.4243 38.2768 12.5151C38.3119 12.603 38.3295 12.7026 38.3295 12.814V13.0952H37.6483C37.2968 13.0952 36.9848 13.1274 36.7123 13.1919C36.4428 13.2534 36.2157 13.3442 36.0312 13.4644C35.8261 13.5962 35.6723 13.7646 35.5697 13.9697C35.4672 14.1719 35.4159 14.4048 35.4159 14.6685C35.4159 14.8735 35.4569 15.064 35.539 15.2397C35.621 15.4126 35.7353 15.562 35.8817 15.688C36.0282 15.814 36.2025 15.9121 36.4047 15.9824C36.6098 16.0527 36.8339 16.0879 37.0771 16.0879C37.2265 16.0879 37.3656 16.0732 37.4945 16.0439C37.6234 16.0176 37.7421 15.9795 37.8505 15.9297C37.956 15.8828 38.0526 15.8271 38.1405 15.7627C38.2284 15.6982 38.3061 15.6294 38.3734 15.5562C38.3881 15.6411 38.4057 15.7217 38.4262 15.7979C38.4467 15.874 38.4716 15.9414 38.5009 16ZM37.3363 15.1431C37.2221 15.1431 37.121 15.1299 37.0331 15.1035C36.9481 15.0742 36.8764 15.0361 36.8178 14.9893C36.7592 14.9395 36.7138 14.8794 36.6815 14.8091C36.6522 14.7358 36.6376 14.6567 36.6376 14.5718C36.6376 14.4634 36.6581 14.3638 36.6991 14.2729C36.7401 14.1792 36.8031 14.0986 36.8881 14.0312C36.973 13.9668 37.0829 13.917 37.2177 13.8818C37.3524 13.8438 37.515 13.8247 37.7055 13.8247H38.3295V14.6421C38.2943 14.7036 38.246 14.7651 38.1845 14.8267C38.1229 14.8853 38.0497 14.938 37.9647 14.9849C37.8798 15.0317 37.7846 15.0698 37.6791 15.0991C37.5736 15.1284 37.4594 15.1431 37.3363 15.1431ZM42.5904 15.1123C42.3941 15.1123 42.2315 15.0728 42.1026 14.9937C41.9767 14.9146 41.8771 14.8091 41.8038 14.6772C41.7276 14.5483 41.6749 14.3989 41.6456 14.229C41.6163 14.0562 41.6017 13.8774 41.6017 13.6929V13.561C41.6017 13.3794 41.6163 13.2036 41.6456 13.0337C41.6778 12.8638 41.732 12.7129 41.8082 12.5811C41.8814 12.4492 41.9811 12.3438 42.107 12.2646C42.233 12.1855 42.3927 12.146 42.586 12.146C42.7179 12.146 42.8395 12.1694 42.9508 12.2163C43.0621 12.2603 43.1573 12.3203 43.2364 12.3965C43.3155 12.4727 43.3756 12.5635 43.4166 12.6689C43.4576 12.7744 43.4752 12.8857 43.4693 13.0029H44.6207C44.6266 12.7217 44.5797 12.4683 44.4801 12.2427C44.3805 12.0142 44.2413 11.8193 44.0626 11.6582C43.881 11.5 43.6656 11.377 43.4166 11.2891C43.1676 11.2012 42.8966 11.1572 42.6036 11.1572C42.2374 11.1572 41.9151 11.2202 41.6368 11.3462C41.3614 11.4722 41.13 11.6436 40.9425 11.8604C40.755 12.0771 40.6144 12.332 40.5206 12.625C40.4269 12.915 40.38 13.2271 40.38 13.561V13.6929C40.38 14.0269 40.4269 14.3403 40.5206 14.6333C40.6173 14.9233 40.7594 15.1768 40.9469 15.3936C41.1314 15.6104 41.3629 15.7817 41.6412 15.9077C41.9195 16.0308 42.2433 16.0923 42.6124 16.0923C42.8849 16.0923 43.1427 16.0498 43.3858 15.9648C43.6319 15.877 43.8473 15.7568 44.0318 15.6045C44.2164 15.4521 44.3614 15.2705 44.4669 15.0596C44.5753 14.8486 44.6266 14.6201 44.6207 14.374H43.4693C43.4752 14.4854 43.4547 14.5864 43.4078 14.6772C43.3639 14.7681 43.3009 14.8457 43.2188 14.9102C43.1368 14.9746 43.0416 15.0244 42.9332 15.0596C42.8248 15.0947 42.7105 15.1123 42.5904 15.1123ZM47.6819 10.0806H46.4603V11.2451H45.3748V12.146H46.4603V14.3081C46.4603 14.6216 46.5013 14.8911 46.5833 15.1167C46.6653 15.3394 46.7825 15.5225 46.9349 15.666C47.0843 15.8125 47.2645 15.9209 47.4754 15.9912C47.6893 16.0586 47.9266 16.0923 48.1873 16.0923C48.3221 16.0923 48.4583 16.085 48.596 16.0703C48.7366 16.0586 48.8714 16.041 49.0003 16.0176C49.1292 15.9941 49.2508 15.9648 49.365 15.9297C49.4793 15.8916 49.5789 15.8477 49.6639 15.7979L49.5452 14.9585C49.4896 14.9731 49.4222 14.9878 49.3431 15.0024C49.2669 15.0171 49.1849 15.0303 49.097 15.042C49.0062 15.0566 48.9109 15.0684 48.8113 15.0771C48.7146 15.0859 48.6194 15.0903 48.5257 15.0903C48.3968 15.0903 48.2796 15.0757 48.1741 15.0464C48.0716 15.0171 47.9837 14.9673 47.9104 14.897C47.8372 14.8296 47.7801 14.7388 47.7391 14.6245C47.701 14.5073 47.6819 14.3623 47.6819 14.1895V12.146H49.4573V11.2451H47.6819V10.0806Z" fill="#C4C4C4"/>
<path d="M24 18.689C24 17.099 22.009 15.592 18.956 14.658C19.661 11.547 19.348 9.071 17.968 8.278C17.6336 8.09072 17.2552 7.99645 16.872 8.005V9.095C17.097 9.095 17.278 9.14 17.43 9.223C18.095 9.605 18.384 11.057 18.159 12.926C18.105 13.386 18.017 13.87 17.909 14.364C16.8866 14.1176 15.849 13.9396 14.803 13.831C14.1799 12.9713 13.5 12.1541 12.768 11.385C14.363 9.903 15.86 9.091 16.878 9.091V8C15.532 8 13.771 8.959 11.99 10.622C10.21 8.97 8.448 8.02 7.103 8.02V9.11C8.116 9.11 9.618 9.918 11.213 11.39C10.528 12.11 9.843 12.926 9.192 13.831C8.14383 13.9384 7.10435 14.1181 6.081 14.369C5.968 13.88 5.885 13.406 5.826 12.951C5.596 11.081 5.88 9.629 6.541 9.243C6.687 9.155 6.878 9.115 7.103 9.115V8.025C6.693 8.025 6.32 8.113 5.998 8.298C4.623 9.091 4.315 11.561 5.024 14.663C1.981 15.603 0 17.104 0 18.689C0 20.279 1.991 21.786 5.044 22.719C4.339 25.831 4.652 28.307 6.032 29.099C6.35 29.285 6.722 29.373 7.132 29.373C8.478 29.373 10.239 28.414 12.02 26.751C13.8 28.404 15.561 29.353 16.907 29.353C17.2931 29.3612 17.6744 29.2666 18.012 29.079C19.387 28.287 19.695 25.817 18.986 22.715C22.019 21.781 24 20.274 24 18.689ZM17.63 15.426C17.44 16.0799 17.2197 16.7245 16.97 17.358C16.5612 16.5628 16.1123 15.7888 15.625 15.039C16.32 15.142 16.99 15.269 17.631 15.426H17.63ZM15.39 20.636C15.009 21.296 14.617 21.923 14.211 22.505C12.7433 22.6344 11.267 22.636 9.799 22.51C8.95695 21.3072 8.22054 20.0338 7.598 18.704C8.21958 17.3711 8.95287 16.0932 9.79 14.884C11.2574 14.7544 12.7333 14.7524 14.201 14.878C14.607 15.46 15.004 16.082 15.385 16.738C15.757 17.378 16.095 18.028 16.403 18.684C16.0916 19.348 15.7536 19.9991 15.39 20.636ZM16.97 20C17.234 20.655 17.46 21.311 17.645 21.947C17.005 22.104 16.329 22.236 15.63 22.338C16.1152 21.5814 16.5625 20.8011 16.97 20ZM12.01 25.22C11.555 24.75 11.1 24.227 10.65 23.654C11.09 23.674 11.54 23.689 11.995 23.689C12.455 23.689 12.91 23.679 13.355 23.654C12.915 24.227 12.46 24.75 12.01 25.22ZM8.37 22.338C7.69574 22.2403 7.02636 22.1115 6.364 21.952C6.545 21.321 6.77 20.67 7.024 20.02C7.225 20.41 7.436 20.802 7.666 21.194C7.896 21.585 8.13 21.967 8.37 22.338ZM11.985 12.158C12.44 12.628 12.895 13.151 13.345 13.724C12.905 13.704 12.455 13.689 12 13.689C11.54 13.689 11.085 13.699 10.64 13.724C11.08 13.151 11.535 12.628 11.985 12.158ZM8.365 15.04C7.87987 15.7949 7.43265 16.5736 7.025 17.373C6.76821 16.7355 6.54294 16.0857 6.35 15.426C6.99 15.274 7.666 15.142 8.365 15.04ZM3.938 21.164C2.206 20.426 1.086 19.457 1.086 18.689C1.086 17.921 2.206 16.947 3.938 16.214C4.358 16.033 4.818 15.871 5.293 15.72C5.572 16.678 5.939 17.676 6.393 18.699C5.96437 19.6612 5.60186 20.6515 5.308 21.663C4.84345 21.5192 4.38624 21.3526 3.938 21.164ZM6.57 28.154C5.905 27.774 5.616 26.32 5.841 24.452C5.895 23.992 5.983 23.507 6.091 23.013C7.049 23.248 8.096 23.429 9.197 23.547C9.82018 24.4067 10.5 25.2238 11.232 25.993C9.637 27.475 8.14 28.287 7.122 28.287C6.92994 28.2891 6.74033 28.2438 6.57 28.155V28.154ZM18.174 24.427C18.404 26.296 18.12 27.749 17.459 28.135C17.313 28.223 17.122 28.262 16.897 28.262C15.884 28.262 14.382 27.455 12.787 25.982C13.472 25.264 14.157 24.447 14.808 23.542C15.8562 23.4346 16.8956 23.2549 17.919 23.004C18.032 23.498 18.119 23.972 18.174 24.427ZM20.057 21.164C19.637 21.345 19.177 21.507 18.702 21.658C18.403 20.6413 18.0355 19.646 17.602 18.679C18.052 17.662 18.413 16.669 18.687 15.715C19.172 15.866 19.631 16.033 20.062 16.214C21.794 16.952 22.914 17.921 22.914 18.689C22.909 19.457 21.789 20.431 20.057 21.164Z" fill="#C2C2C2"/>
<path d="M11.995 20.925C12.588 20.925 13.1568 20.6894 13.5761 20.2701C13.9954 19.8508 14.231 19.282 14.231 18.689C14.231 18.096 13.9954 17.5272 13.5761 17.1079C13.1568 16.6886 12.588 16.453 11.995 16.453C11.402 16.453 10.8332 16.6886 10.4139 17.1079C9.99458 17.5272 9.759 18.096 9.759 18.689C9.759 19.282 9.99458 19.8508 10.4139 20.2701C10.8332 20.6894 11.402 20.925 11.995 20.925Z" fill="#C2C2C2"/>
<defs>
<clipPath id="clip0">
<rect width="38" height="38" fill="white" transform="translate(78)"/>
</clipPath>
</defs>
</svg>
