<svg width="inherit" height="40" viewBox="0 0 95 25" fill="none" xmlns="http://www.w3.org/2000/svg">
<path d="M0 0H25V25H0V0ZM6.57552 20.8984C7.22656 22.3307 8.39844 23.0469 10.0911 23.0469C11.1762 23.0469 12.0334 22.7539 12.6628 22.168C13.2921 21.582 13.6068 20.7031 13.6068 19.5312V11.4583H11.263V19.4661C11.263 20.4644 10.8507 20.9635 10.026 20.9635C9.46181 20.9635 8.94097 20.5512 8.46354 19.7266L6.57552 20.8984ZM14.8437 20.638C15.6684 22.2439 17.1007 23.0469 19.1406 23.0469C20.3125 23.0469 21.2565 22.7539 21.9727 22.168C22.6888 21.582 23.0469 20.7899 23.0469 19.7917C23.0469 18.8368 22.7973 18.099 22.2982 17.5781C21.799 17.0573 21.0069 16.5582 19.9219 16.0807L19.3359 15.8203C18.8151 15.6033 18.4462 15.3971 18.2292 15.2018C18.0122 15.0065 17.9036 14.7352 17.9036 14.388C17.9036 14.1276 18.0013 13.8997 18.1966 13.7044C18.3919 13.5091 18.6632 13.4115 19.0104 13.4115C19.6615 13.4115 20.1823 13.737 20.5729 14.388L22.3307 13.2161C21.6363 11.9575 20.5295 11.3281 19.0104 11.3281C17.9687 11.3281 17.1332 11.6211 16.5039 12.207C15.8746 12.793 15.5599 13.5417 15.5599 14.4531C15.5599 15.3646 15.7986 16.0807 16.276 16.6016C16.7535 17.1224 17.4696 17.5781 18.4245 17.9687L19.0104 18.2292C19.4444 18.4462 19.7591 18.5981 19.9544 18.6849C20.1497 18.7717 20.3233 18.9128 20.4753 19.1081C20.6272 19.3034 20.7031 19.5312 20.7031 19.7917C20.7031 20.1389 20.5621 20.421 20.2799 20.638C19.9978 20.855 19.6181 20.9635 19.1406 20.9635C18.1424 20.9635 17.3611 20.4861 16.7969 19.5312L14.8437 20.638Z" fill="#C2C2C2"/>
<path d="M40.3584 13.7754L44.2549 15.1494V17.0635L38.3691 14.5684V12.9551L44.2549 10.46V12.374L40.3584 13.7754ZM48.608 16.5439C48.9726 16.5439 49.2688 16.4437 49.4967 16.2432C49.7245 16.0426 49.843 15.776 49.8521 15.4434H51.7047C51.7001 15.9447 51.5634 16.4049 51.2945 16.8242C51.0257 17.2389 50.6565 17.5625 50.1871 17.7949C49.7223 18.0228 49.2073 18.1367 48.6422 18.1367C47.5849 18.1367 46.7509 17.8018 46.1402 17.1318C45.5296 16.4574 45.2242 15.5277 45.2242 14.3428V14.2129C45.2242 13.0736 45.5273 12.1644 46.1334 11.4854C46.7395 10.8063 47.5712 10.4668 48.6285 10.4668C49.5536 10.4668 50.2942 10.7311 50.8502 11.2598C51.4107 11.7839 51.6956 12.4834 51.7047 13.3584H49.8521C49.843 12.9756 49.7245 12.6657 49.4967 12.4287C49.2688 12.1872 48.968 12.0664 48.5943 12.0664C48.134 12.0664 47.7854 12.235 47.5484 12.5723C47.316 12.9049 47.1998 13.4473 47.1998 14.1992V14.4043C47.1998 15.1654 47.316 15.7122 47.5484 16.0449C47.7809 16.3776 48.134 16.5439 48.608 16.5439ZM56.7688 18C56.6776 17.8223 56.6115 17.6012 56.5705 17.3369C56.092 17.8701 55.4699 18.1367 54.7043 18.1367C53.9797 18.1367 53.3781 17.9271 52.8996 17.5078C52.4257 17.0885 52.1887 16.5599 52.1887 15.9219C52.1887 15.138 52.4781 14.5365 53.0568 14.1172C53.6402 13.6979 54.481 13.486 55.5793 13.4814H56.4885V13.0576C56.4885 12.7158 56.3996 12.4424 56.2219 12.2373C56.0487 12.0322 55.773 11.9297 55.3947 11.9297C55.062 11.9297 54.8 12.0094 54.6086 12.1689C54.4217 12.3285 54.3283 12.5472 54.3283 12.8252H52.3527C52.3527 12.3968 52.4849 12.0003 52.7492 11.6357C53.0135 11.2712 53.3872 10.9863 53.8703 10.7812C54.3534 10.5716 54.8957 10.4668 55.4973 10.4668C56.4087 10.4668 57.1311 10.6969 57.6643 11.1572C58.202 11.613 58.4709 12.2555 58.4709 13.085V16.291C58.4755 16.9928 58.5734 17.5238 58.7648 17.8838V18H56.7688ZM55.135 16.626C55.4266 16.626 55.6955 16.5622 55.9416 16.4346C56.1877 16.3024 56.37 16.127 56.4885 15.9082V14.6367H55.7502C54.7613 14.6367 54.2349 14.9785 54.1711 15.6621L54.1643 15.7783C54.1643 16.0244 54.2508 16.2272 54.424 16.3867C54.5972 16.5462 54.8342 16.626 55.135 16.626ZM61.4568 10.6035L61.5184 11.458C62.047 10.7972 62.7557 10.4668 63.6443 10.4668C64.4282 10.4668 65.0115 10.6969 65.3943 11.1572C65.7771 11.6175 65.9731 12.3057 65.9822 13.2217V18H64.0066V13.2695C64.0066 12.8503 63.9155 12.5472 63.7332 12.3604C63.5509 12.1689 63.2479 12.0732 62.824 12.0732C62.268 12.0732 61.851 12.3102 61.573 12.7842V18H59.5975V10.6035H61.4568ZM69.9047 15.5869L71.2787 10.6035H73.3432L70.848 18H68.9613L66.4662 10.6035H68.5307L69.9047 15.5869ZM78.0449 18C77.9538 17.8223 77.8877 17.6012 77.8467 17.3369C77.3682 17.8701 76.7461 18.1367 75.9805 18.1367C75.2559 18.1367 74.6543 17.9271 74.1758 17.5078C73.7018 17.0885 73.4648 16.5599 73.4648 15.9219C73.4648 15.138 73.7542 14.5365 74.333 14.1172C74.9163 13.6979 75.7572 13.486 76.8555 13.4814H77.7646V13.0576C77.7646 12.7158 77.6758 12.4424 77.498 12.2373C77.3249 12.0322 77.0492 11.9297 76.6709 11.9297C76.3382 11.9297 76.0762 12.0094 75.8848 12.1689C75.6979 12.3285 75.6045 12.5472 75.6045 12.8252H73.6289C73.6289 12.3968 73.7611 12.0003 74.0254 11.6357C74.2897 11.2712 74.6634 10.9863 75.1465 10.7812C75.6296 10.5716 76.1719 10.4668 76.7734 10.4668C77.6849 10.4668 78.4072 10.6969 78.9404 11.1572C79.4782 11.613 79.7471 12.2555 79.7471 13.085V16.291C79.7516 16.9928 79.8496 17.5238 80.041 17.8838V18H78.0449ZM76.4111 16.626C76.7028 16.626 76.9717 16.5622 77.2178 16.4346C77.4639 16.3024 77.6462 16.127 77.7646 15.9082V14.6367H77.0264C76.0374 14.6367 75.5111 14.9785 75.4473 15.6621L75.4404 15.7783C75.4404 16.0244 75.527 16.2272 75.7002 16.3867C75.8734 16.5462 76.1104 16.626 76.4111 16.626ZM84.9205 15.9561C84.9205 15.7145 84.7997 15.5254 84.5582 15.3887C84.3212 15.2474 83.9384 15.1221 83.4098 15.0127C81.6507 14.6436 80.7711 13.8962 80.7711 12.7705C80.7711 12.1143 81.0423 11.5674 81.5846 11.1299C82.1314 10.6878 82.8447 10.4668 83.7242 10.4668C84.663 10.4668 85.4127 10.6878 85.9732 11.1299C86.5383 11.5719 86.8209 12.1462 86.8209 12.8525H84.8453C84.8453 12.57 84.7542 12.3376 84.5719 12.1553C84.3896 11.9684 84.1048 11.875 83.7174 11.875C83.3847 11.875 83.1272 11.9502 82.9449 12.1006C82.7626 12.251 82.6715 12.4424 82.6715 12.6748C82.6715 12.8936 82.774 13.0713 82.9791 13.208C83.1887 13.3402 83.5396 13.4564 84.0318 13.5566C84.524 13.6523 84.9387 13.7617 85.276 13.8848C86.3196 14.2676 86.8414 14.9307 86.8414 15.874C86.8414 16.5485 86.552 17.0954 85.9732 17.5146C85.3945 17.9294 84.6471 18.1367 83.7311 18.1367C83.1113 18.1367 82.5598 18.0273 82.0768 17.8086C81.5982 17.5853 81.2223 17.2822 80.9488 16.8994C80.6754 16.512 80.5387 16.0951 80.5387 15.6484H82.4117C82.4299 15.9993 82.5598 16.2682 82.8014 16.4551C83.0429 16.6419 83.3665 16.7354 83.7721 16.7354C84.1503 16.7354 84.4352 16.6647 84.6266 16.5234C84.8225 16.3776 84.9205 16.1885 84.9205 15.9561ZM91.8029 13.7549L87.8312 12.3672V10.4668L93.7854 12.9619V14.5684L87.8312 17.0703V15.1631L91.8029 13.7549Z" fill="#C2C2C2"/>
</svg>
