<svg width="inherit" height="inherit" viewBox="0 0 310 25" fill="none" xmlns="http://www.w3.org/2000/svg">
<path d="M148.581 18.4886V8.20584H149.139V9.82345C149.205 9.75179 149.266 9.67566 149.322 9.59561C149.55 9.12215 149.908 8.72351 150.355 8.44643C150.801 8.16934 151.318 8.0253 151.843 8.03117C153.115 7.9932 154.148 8.46405 154.756 9.59561C155.142 10.2986 155.355 11.0838 155.376 11.8858C155.397 12.6877 155.226 13.4831 154.877 14.2054C154.311 15.4737 152.914 16.104 151.418 15.8724C150.952 15.8327 150.504 15.6771 150.114 15.4198C149.724 15.1624 149.405 14.8115 149.185 14.3991V18.4886H148.581ZM149.139 11.8436C149.189 12.3448 149.208 12.7017 149.265 13.0511C149.485 14.4256 150.298 15.242 151.573 15.3901C152.173 15.4886 152.787 15.3763 153.313 15.0723C153.838 14.7684 154.242 14.2915 154.456 13.7232C154.701 13.1385 154.819 12.5084 154.802 11.8747C154.785 11.241 154.633 10.6181 154.357 10.0475C154.129 9.53805 153.742 9.11655 153.253 8.84666C152.765 8.57676 152.202 8.47312 151.649 8.55139C151.131 8.58897 150.637 8.78726 150.236 9.11868C149.835 9.4501 149.547 9.89818 149.413 10.4006C149.294 10.8759 149.203 11.3577 149.139 11.8436Z" fill="#ACACAC"/>
<path d="M166.762 13.2409C166.678 13.9649 166.333 14.6335 165.792 15.1224C165.252 15.6113 164.552 15.8873 163.823 15.8989C161.484 16.0166 160.387 14.4636 160.212 12.6713C160.091 11.698 160.249 10.7103 160.668 9.8234C160.959 9.21505 161.437 8.7153 162.032 8.3965C162.626 8.0777 163.307 7.95638 163.975 8.05011C164.61 8.10394 165.212 8.35624 165.696 8.77126C166.18 9.18629 166.521 9.74301 166.671 10.3626C166.79 10.9269 166.877 11.4973 166.933 12.0713H160.785C160.671 13.6965 161.545 15.0028 162.783 15.3179C164.324 15.6977 165.642 15.0293 166.12 13.5636C166.227 13.1877 166.42 13.1345 166.762 13.2409ZM160.785 11.5511H166.28C166.246 9.8196 165.167 8.56653 163.705 8.54754C162.05 8.52096 160.858 9.72847 160.785 11.5511Z" fill="#ACACAC"/>
<path d="M167.894 13.2788H168.433C168.453 13.6756 168.582 14.0592 168.805 14.3874C169.029 14.7157 169.339 14.9759 169.701 15.1395C170.156 15.344 170.651 15.4435 171.149 15.4303C171.647 15.4172 172.136 15.2918 172.579 15.0635C172.821 14.9546 173.023 14.7743 173.159 14.5468C173.295 14.3194 173.358 14.0557 173.339 13.7915C173.353 13.5366 173.283 13.2842 173.141 13.0724C172.998 12.8607 172.79 12.7012 172.549 12.6181C171.957 12.3979 171.326 12.2764 170.723 12.0827C170.094 11.9038 169.48 11.6792 168.885 11.4106C167.913 10.936 167.852 9.08674 168.953 8.50198C169.517 8.18379 170.151 8.01187 170.799 8.00192C171.446 7.99197 172.086 8.14431 172.659 8.44502C173.006 8.63698 173.287 8.93025 173.463 9.28575C173.64 9.64124 173.704 10.0421 173.646 10.4347H173.183C173.183 10.412 173.141 10.393 173.141 10.3702C173.084 8.89309 171.846 8.43742 170.517 8.56653C170.121 8.61547 169.735 8.73236 169.378 8.91207C169.164 9.01018 168.985 9.17246 168.867 9.37651C168.748 9.58056 168.696 9.81631 168.718 10.0512C168.718 10.2863 168.792 10.5153 168.928 10.707C169.064 10.8987 169.255 11.0437 169.477 11.122C170.062 11.3347 170.673 11.4714 171.273 11.6385C171.755 11.7714 172.257 11.8587 172.724 12.0182C173.053 12.1262 173.342 12.3319 173.553 12.6078C173.763 12.8838 173.884 13.2171 173.901 13.5636C173.957 13.9433 173.892 14.3311 173.716 14.6719C173.539 15.0127 173.26 15.2892 172.917 15.4622C171.649 16.1799 169.561 15.99 168.63 15.0825C168.394 14.8454 168.208 14.5639 168.082 14.2543C167.955 13.9448 167.891 13.6132 167.894 13.2788Z" fill="#ACACAC"/>
<path d="M180.736 10.4346H180.231C180.231 10.3662 180.204 10.3055 180.197 10.2485C180.188 9.86996 180.05 9.50571 179.806 9.21676C179.561 8.92782 179.224 8.73171 178.852 8.66129C178.15 8.45989 177.402 8.49593 176.722 8.76382C176.454 8.84082 176.217 9.0026 176.048 9.22502C175.879 9.44744 175.786 9.71856 175.784 9.99791C175.775 10.2723 175.86 10.5415 176.026 10.7601C176.192 10.9787 176.429 11.1333 176.696 11.1978C177.455 11.4332 178.233 11.5775 179.004 11.7902C179.254 11.8501 179.5 11.9249 179.741 12.0142C180.101 12.1429 180.413 12.3771 180.638 12.6862C180.862 12.9953 180.988 13.365 180.999 13.7468C181.01 14.1287 180.906 14.505 180.7 14.8266C180.493 15.1482 180.195 15.4001 179.843 15.5494C179.308 15.7927 178.727 15.9215 178.138 15.9273C177.55 15.9332 176.967 15.8161 176.426 15.5836C175.981 15.3918 175.606 15.0685 175.351 14.6571C175.096 14.2457 174.973 13.766 174.998 13.2825H175.211H175.492C175.583 13.7231 175.78 14.1347 176.067 14.4819C176.353 14.829 176.72 15.1011 177.135 15.2747C177.55 15.4482 178.001 15.5179 178.449 15.4778C178.897 15.4377 179.329 15.2889 179.707 15.0444C179.937 14.9248 180.128 14.7418 180.257 14.517C180.386 14.2922 180.448 14.0351 180.436 13.7761C180.447 13.5211 180.375 13.2693 180.231 13.0589C180.086 12.8486 179.877 12.6911 179.635 12.6104C179.042 12.3901 178.412 12.2724 177.808 12.0788C177.176 11.9026 176.558 11.6805 175.959 11.4143C175.01 10.9472 174.934 9.11316 176.016 8.52839C176.587 8.19687 177.234 8.01879 177.894 8.01147C178.554 8.00415 179.205 8.16784 179.783 8.48662C180.113 8.68398 180.379 8.97318 180.549 9.31902C180.718 9.66487 180.783 10.0524 180.736 10.4346Z" fill="#ACACAC"/>
<path d="M147.659 15.7128C147.46 15.7881 147.24 15.7879 147.042 15.7124C146.843 15.6368 146.679 15.4911 146.58 15.3027C145.961 14.3762 145.278 13.4915 144.621 12.5877L144.336 12.208C143.554 13.256 142.772 14.2623 142.058 15.3065C141.965 15.4865 141.809 15.6266 141.621 15.7007C141.432 15.7747 141.223 15.7777 141.032 15.709L143.968 11.7713L141.238 8.21336C141.434 8.1424 141.649 8.14143 141.846 8.21061C142.043 8.27979 142.211 8.41488 142.32 8.59308C142.954 9.5196 143.656 10.4043 144.355 11.3423C145.057 10.4119 145.752 9.5234 146.402 8.60448C146.495 8.42738 146.651 8.29084 146.838 8.22082C147.026 8.15081 147.233 8.15221 147.419 8.22476L146.36 9.62972C145.885 10.2563 145.418 10.8866 144.925 11.4979C144.885 11.5336 144.853 11.5772 144.831 11.6259C144.809 11.6746 144.798 11.7274 144.798 11.7808C144.798 11.8342 144.809 11.887 144.831 11.9358C144.853 11.9845 144.885 12.0281 144.925 12.0637C145.832 13.2674 146.732 14.4749 147.659 15.7128Z" fill="#ACACAC"/>
<path d="M160.121 8.17529V8.7069C159.737 8.68171 159.352 8.73733 158.991 8.87017C158.629 9.003 158.3 9.21011 158.024 9.47811C157.748 9.74611 157.531 10.0691 157.387 10.4261C157.243 10.7831 157.176 11.1664 157.189 11.551C157.189 12.8015 157.189 14.0521 157.189 15.3026C157.189 15.4355 157.189 15.5684 157.189 15.7279H156.646V8.20567H157.178V9.74733C157.835 8.62336 158.849 8.20567 160.121 8.17529Z" fill="#ACACAC"/>
<path d="M134 11.722C134.08 11.3422 134.129 10.9283 134.239 10.541C134.896 8.20576 137.573 7.23368 139.415 8.68041C140.493 9.52718 140.763 10.7271 140.71 12.0789H134.634C134.535 14.4939 136.278 15.952 138.507 15.2078C138.869 15.0784 139.193 14.8611 139.449 14.5754C139.706 14.2897 139.887 13.9445 139.977 13.5712C140.094 13.1915 140.284 13.1269 140.645 13.237C140.586 13.6993 140.422 14.1421 140.167 14.5321C139.912 14.9221 139.572 15.2492 139.172 15.4888C138.511 15.85 137.753 15.9931 137.007 15.8976C136.26 15.8021 135.562 15.473 135.014 14.9572C134.471 14.3471 134.143 13.5763 134.08 12.7624C134.08 12.6333 134.03 12.5042 134.004 12.3827C134.001 12.1574 134 11.9371 134 11.722ZM134.642 11.5587H140.136C140.102 9.80817 138.997 8.56649 137.524 8.5551C135.883 8.53232 134.71 9.74742 134.638 11.5511L134.642 11.5587Z" fill="#ACACAC"/>
<path d="M198.819 5.43612V6.64994C198.909 6.54372 199.011 6.44863 199.124 6.36672C199.224 6.29629 199.335 6.24338 199.453 6.21027C199.578 6.17499 199.708 6.15774 199.839 6.15902C200.027 6.15774 200.212 6.20316 200.378 6.29119C200.51 6.36473 200.623 6.46647 200.711 6.58911C200.799 6.71176 200.858 6.85228 200.885 7.0006C200.906 7.13893 200.916 7.27876 200.915 7.4187V8.98318C200.925 9.11703 200.884 9.24975 200.802 9.35542C200.764 9.39701 200.719 9.42992 200.667 9.45183C200.616 9.47374 200.561 9.4841 200.505 9.48219C200.235 9.48219 200.1 9.31675 200.1 8.98588V7.60212C200.112 7.39424 200.072 7.1867 199.984 6.9979C199.938 6.92483 199.872 6.86634 199.793 6.82913C199.715 6.79192 199.628 6.77749 199.542 6.78751C199.401 6.78593 199.263 6.8294 199.148 6.91159C199.027 6.99582 198.933 7.11406 198.878 7.25146C198.824 7.46367 198.802 7.68282 198.814 7.90153V8.98048C198.823 9.11308 198.784 9.24468 198.703 9.35002C198.666 9.39225 198.621 9.42577 198.569 9.44817C198.518 9.47056 198.462 9.48126 198.406 9.4795C198.137 9.4795 198.002 9.31406 198.002 8.98318V5.43612C197.991 5.30349 198.029 5.17157 198.107 5.06388C198.144 5.02245 198.191 4.99003 198.243 4.96901C198.295 4.948 198.35 4.93893 198.406 4.9425C198.463 4.93937 198.52 4.94914 198.573 4.97109C198.626 4.99304 198.673 5.0266 198.711 5.06927C198.791 5.17499 198.83 5.30656 198.819 5.43882V5.43612ZM203.801 9.02364C203.626 9.16372 203.432 9.27983 203.226 9.3689C203.029 9.44791 202.818 9.48732 202.606 9.48489C202.419 9.48704 202.234 9.44451 202.067 9.36081C201.915 9.28478 201.788 9.168 201.7 9.02364C201.614 8.88495 201.57 8.7252 201.57 8.56239C201.566 8.35155 201.642 8.14693 201.783 7.99054C201.939 7.82495 202.143 7.71341 202.366 7.67225L202.752 7.59133C202.957 7.54997 203.137 7.51131 203.291 7.47534C203.446 7.43937 203.605 7.39712 203.769 7.34856C203.773 7.18105 203.728 7.01596 203.639 6.87382C203.571 6.8119 203.49 6.76691 203.401 6.74253C203.312 6.71815 203.219 6.71508 203.129 6.73356C202.968 6.72385 202.807 6.75347 202.66 6.81988C202.549 6.88561 202.456 6.9784 202.39 7.08962C202.315 7.2047 202.261 7.28113 202.228 7.31889C202.201 7.34104 202.169 7.35745 202.134 7.36717C202.1 7.3769 202.064 7.37974 202.029 7.37554C201.941 7.37677 201.857 7.34499 201.791 7.28652C201.759 7.25853 201.733 7.22367 201.716 7.18448C201.699 7.14529 201.69 7.10275 201.692 7.05994C201.696 6.90746 201.75 6.7605 201.845 6.64185C201.971 6.48917 202.136 6.37356 202.323 6.30737C202.582 6.212 202.856 6.16714 203.132 6.1752C203.42 6.16363 203.707 6.20665 203.979 6.30198C204.171 6.37407 204.328 6.51822 204.416 6.70389C204.51 6.93579 204.553 7.18498 204.543 7.43488C204.543 7.62729 204.543 7.78914 204.543 7.92041C204.543 8.05348 204.543 8.20184 204.543 8.36548C204.542 8.52152 204.564 8.67683 204.608 8.82673C204.645 8.93415 204.67 9.04544 204.683 9.15851C204.681 9.20312 204.67 9.24682 204.649 9.28646C204.629 9.32611 204.6 9.36071 204.564 9.38778C204.491 9.45462 204.394 9.49121 204.295 9.49029C204.2 9.48498 204.11 9.44232 204.046 9.3716C203.95 9.2654 203.866 9.14762 203.798 9.02094L203.801 9.02364ZM203.747 7.84218C203.576 7.90035 203.401 7.94721 203.224 7.98245C202.995 8.031 202.837 8.06697 202.749 8.09034C202.656 8.11612 202.571 8.16219 202.498 8.22521C202.46 8.25863 202.429 8.30015 202.409 8.34678C202.388 8.39342 202.378 8.44402 202.379 8.49495C202.379 8.55454 202.391 8.61356 202.415 8.66802C202.439 8.72247 202.475 8.77108 202.52 8.81055C202.621 8.90015 202.754 8.9466 202.889 8.94002C203.045 8.94185 203.199 8.90575 203.337 8.83482C203.462 8.77618 203.567 8.68244 203.639 8.56508C203.727 8.37436 203.765 8.16474 203.75 7.95548L203.747 7.84218ZM206.113 6.60948V6.70928C206.237 6.53658 206.398 6.39376 206.585 6.29119C206.767 6.2001 206.969 6.15474 207.173 6.15902C207.374 6.15549 207.573 6.20379 207.75 6.29928C207.911 6.39111 208.039 6.53062 208.117 6.69849C208.171 6.79915 208.207 6.90882 208.222 7.02218C208.24 7.16894 208.248 7.31672 208.246 7.46455V8.98588C208.256 9.11973 208.216 9.25245 208.133 9.35811C208.095 9.39811 208.05 9.42998 207.999 9.45175C207.949 9.47353 207.894 9.48476 207.839 9.48476C207.784 9.48476 207.729 9.47353 207.679 9.45175C207.628 9.42998 207.583 9.39811 207.545 9.35811C207.463 9.25315 207.423 9.12152 207.432 8.98857V7.621C207.448 7.40835 207.413 7.19493 207.332 6.9979C207.286 6.9232 207.219 6.86339 207.139 6.82561C207.06 6.78783 206.971 6.77367 206.884 6.78481C206.745 6.78729 206.61 6.83353 206.498 6.91698C206.375 7.00408 206.281 7.12629 206.229 7.26764C206.178 7.49143 206.158 7.72097 206.169 7.95008V8.97509C206.178 9.10929 206.137 9.24204 206.053 9.34732C206.016 9.388 205.97 9.42011 205.918 9.44152C205.867 9.46292 205.812 9.47311 205.757 9.4714C205.701 9.47293 205.647 9.4621 205.596 9.4397C205.546 9.41729 205.501 9.38389 205.465 9.34193C205.383 9.23697 205.343 9.10533 205.352 8.97239V6.62566C205.343 6.50109 205.379 6.37743 205.455 6.2777C205.489 6.24016 205.53 6.21038 205.577 6.19037C205.623 6.17035 205.674 6.16058 205.724 6.16171C205.792 6.16095 205.86 6.17866 205.918 6.21297C205.979 6.24948 206.028 6.30291 206.059 6.36672C206.096 6.44315 206.114 6.52725 206.113 6.61218V6.60948ZM211.313 9.01555V8.93462C211.217 9.04844 211.108 9.15154 210.99 9.24213C210.884 9.32071 210.767 9.38173 210.642 9.42285C210.509 9.46524 210.371 9.48619 210.232 9.48489C210.045 9.48593 209.86 9.44345 209.692 9.36081C209.524 9.27575 209.376 9.1541 209.261 9.00476C209.138 8.84342 209.046 8.66042 208.991 8.46528C208.926 8.24639 208.894 8.01914 208.896 7.79093C208.87 7.36008 209.004 6.93469 209.271 6.59599C209.393 6.45548 209.545 6.34401 209.715 6.26979C209.885 6.19557 210.07 6.16048 210.256 6.16711C210.461 6.16077 210.665 6.20232 210.852 6.28849C211.031 6.38289 211.191 6.50903 211.324 6.66073V5.4523C211.314 5.31798 211.349 5.18424 211.424 5.07197C211.458 5.02917 211.501 4.99508 211.551 4.97256C211.601 4.95004 211.655 4.93973 211.71 4.9425C211.763 4.93928 211.817 4.9483 211.866 4.96886C211.916 4.98942 211.96 5.021 211.996 5.06118C212.068 5.16221 212.103 5.28512 212.095 5.40914V9.01555C212.105 9.14186 212.067 9.26713 211.988 9.36621C211.953 9.40334 211.911 9.43284 211.865 9.45282C211.819 9.4728 211.768 9.48281 211.718 9.48219C211.667 9.48247 211.616 9.47178 211.57 9.45084C211.523 9.4299 211.482 9.39919 211.448 9.36081C211.36 9.26731 211.312 9.14368 211.313 9.01555ZM209.695 7.81521C209.689 8.00911 209.724 8.20205 209.797 8.38166C209.852 8.52192 209.945 8.6436 210.067 8.73232C210.183 8.80999 210.319 8.85132 210.458 8.85101C210.598 8.85202 210.734 8.81267 210.852 8.73772C210.978 8.65307 211.077 8.53295 211.135 8.39245C211.221 8.2101 211.266 8.01131 211.267 7.80982C211.273 7.61743 211.237 7.42613 211.162 7.24876C211.101 7.10475 211.001 6.98054 210.874 6.89001C210.757 6.80876 210.619 6.76543 210.477 6.76593C210.333 6.76378 210.192 6.80825 210.075 6.89271C209.952 6.98592 209.859 7.11226 209.805 7.25685C209.736 7.43293 209.703 7.62076 209.706 7.80982L209.695 7.81521ZM212.905 8.98588V5.43612C212.894 5.30261 212.933 5.16993 213.015 5.06388C213.052 5.02205 213.097 4.98894 213.148 4.96699C213.199 4.94505 213.254 4.93483 213.309 4.9371C213.365 4.93482 213.421 4.94474 213.473 4.96617C213.524 4.9876 213.571 5.02002 213.609 5.06118C213.691 5.16685 213.732 5.29957 213.722 5.43342V8.98318C213.731 9.11738 213.69 9.25014 213.606 9.35542C213.568 9.39609 213.522 9.42821 213.471 9.44961C213.42 9.47101 213.365 9.4812 213.309 9.4795C213.254 9.48103 213.199 9.47019 213.149 9.44779C213.099 9.42538 213.054 9.39198 213.018 9.35002C212.937 9.24577 212.896 9.11521 212.905 8.98318V8.98588ZM216.851 8.02021H215.251C215.25 8.1905 215.289 8.35873 215.365 8.51114C215.426 8.64144 215.524 8.7512 215.647 8.82726C215.769 8.90333 215.911 8.94248 216.055 8.94002C216.146 8.9409 216.237 8.9291 216.325 8.90495C216.408 8.88085 216.487 8.84448 216.56 8.79706C216.634 8.75015 216.704 8.69786 216.77 8.64061C216.835 8.58666 216.917 8.51114 217.018 8.41403C217.07 8.37489 217.134 8.35573 217.199 8.36008C217.273 8.35747 217.345 8.38247 217.401 8.43021C217.428 8.45482 217.449 8.48499 217.462 8.51856C217.476 8.55214 217.482 8.58829 217.479 8.62443C217.475 8.72042 217.445 8.81354 217.393 8.89416C217.322 9.00497 217.231 9.10112 217.123 9.17739C216.991 9.27694 216.842 9.35353 216.684 9.40397C216.487 9.46681 216.281 9.49689 216.074 9.49298C215.851 9.50407 215.628 9.46881 215.419 9.38943C215.21 9.31004 215.02 9.18825 214.86 9.03173C214.708 8.8681 214.591 8.67567 214.514 8.46581C214.438 8.25594 214.404 8.03289 214.415 7.80982C214.413 7.58146 214.45 7.35439 214.523 7.13817C214.589 6.93797 214.696 6.75407 214.839 6.59869C214.981 6.44823 215.155 6.33201 215.349 6.25882C215.563 6.17743 215.791 6.13717 216.02 6.14014C216.303 6.13443 216.582 6.20426 216.829 6.34244C217.046 6.46546 217.223 6.64676 217.342 6.86573C217.459 7.07123 217.521 7.3035 217.523 7.54008C217.523 7.74508 217.464 7.87815 217.347 7.93929C217.19 8.00421 217.02 8.0319 216.851 8.02021ZM215.251 7.55626H216.735C216.734 7.32688 216.654 7.1048 216.508 6.92777C216.441 6.86028 216.36 6.80785 216.271 6.77391C216.181 6.73998 216.086 6.72531 215.99 6.73086C215.897 6.72797 215.803 6.74525 215.717 6.78155C215.63 6.81785 215.552 6.87231 215.489 6.94126C215.346 7.11553 215.263 7.33112 215.251 7.55626ZM218.885 5.40914V6.65803C219.021 6.51169 219.179 6.38787 219.354 6.29119C219.539 6.201 219.742 6.15746 219.948 6.16441C220.2 6.15909 220.448 6.22652 220.662 6.35862C220.874 6.49426 221.04 6.68953 221.14 6.91968C221.259 7.19348 221.317 7.48983 221.31 7.78824C221.312 8.01914 221.28 8.24914 221.215 8.47068C221.16 8.66581 221.069 8.84882 220.946 9.01015C220.829 9.15889 220.679 9.27885 220.509 9.36081C220.333 9.4447 220.14 9.48714 219.945 9.48489C219.823 9.48227 219.703 9.46322 219.586 9.42825C219.491 9.40178 219.4 9.36181 219.316 9.30956C219.245 9.26592 219.178 9.21532 219.117 9.15851C219.063 9.10456 218.991 9.02634 218.901 8.92384V9.00476C218.91 9.13062 218.87 9.25513 218.79 9.35272C218.756 9.38995 218.714 9.4197 218.668 9.44011C218.621 9.46053 218.571 9.47118 218.521 9.4714C218.47 9.47238 218.419 9.46227 218.373 9.44177C218.326 9.42128 218.285 9.39089 218.251 9.35272C218.176 9.25288 218.139 9.12931 218.148 9.00476V5.44421C218.139 5.31162 218.174 5.17971 218.248 5.06927C218.28 5.02888 218.322 4.99645 218.368 4.97446C218.415 4.95248 218.466 4.94154 218.518 4.9425C218.573 4.93918 218.627 4.9484 218.678 4.96943C218.728 4.99047 218.773 5.02278 218.809 5.06388C218.873 5.16598 218.9 5.28697 218.885 5.40645V5.40914ZM218.923 7.83679C218.905 8.10549 218.984 8.37156 219.146 8.58666C219.217 8.67337 219.306 8.74276 219.408 8.78952C219.509 8.83628 219.62 8.85916 219.732 8.8564C219.836 8.85661 219.94 8.83233 220.033 8.78549C220.127 8.73866 220.209 8.67057 220.271 8.58666C220.433 8.36143 220.509 8.08615 220.487 7.80982C220.49 7.6259 220.459 7.44305 220.395 7.27034C220.341 7.12673 220.248 7.00138 220.126 6.90889C220.01 6.82356 219.87 6.77897 219.726 6.78211C219.578 6.7799 219.433 6.82424 219.311 6.90889C219.186 7.00136 219.089 7.1264 219.03 7.27034C218.957 7.45092 218.921 7.64459 218.925 7.83949L218.923 7.83679ZM224.031 9.02364C223.856 9.16372 223.663 9.27983 223.457 9.3689C223.26 9.44791 223.049 9.48732 222.836 9.48489C222.649 9.48704 222.464 9.44451 222.297 9.36081C222.146 9.28478 222.019 9.168 221.93 9.02364C221.845 8.88495 221.8 8.7252 221.801 8.56239C221.796 8.35155 221.872 8.14693 222.014 7.99054C222.169 7.82495 222.373 7.71341 222.596 7.67225L222.982 7.59133C223.187 7.54997 223.367 7.51131 223.522 7.47534C223.676 7.43937 223.835 7.39712 223.999 7.34856C224.003 7.18105 223.958 7.01596 223.87 6.87382C223.803 6.81312 223.722 6.76884 223.635 6.74449C223.548 6.72015 223.457 6.71641 223.368 6.73356C223.207 6.72385 223.046 6.75347 222.898 6.81988C222.787 6.88561 222.694 6.9784 222.629 7.08962C222.553 7.2047 222.499 7.28113 222.467 7.31889C222.439 7.34104 222.407 7.35745 222.373 7.36717C222.339 7.3769 222.303 7.37974 222.267 7.37554C222.179 7.37244 222.095 7.33579 222.033 7.27304C222 7.24504 221.974 7.21018 221.957 7.17099C221.94 7.1318 221.932 7.08926 221.933 7.04646C221.937 6.89397 221.991 6.74702 222.087 6.62836C222.212 6.47568 222.378 6.36008 222.564 6.29389C222.823 6.19852 223.098 6.15365 223.373 6.16171C223.661 6.15014 223.948 6.19316 224.22 6.28849C224.413 6.36058 224.569 6.50473 224.657 6.6904C224.751 6.9223 224.794 7.17149 224.784 7.42139C224.784 7.61381 224.784 7.77565 224.784 7.90692C224.784 8.03999 224.784 8.18835 224.784 8.35199C224.785 8.51489 224.811 8.6767 224.859 8.83212C224.896 8.93607 224.922 9.0437 224.935 9.15311C224.933 9.19772 224.922 9.24142 224.901 9.28107C224.881 9.32071 224.852 9.35532 224.816 9.38239C224.742 9.44922 224.646 9.48581 224.547 9.48489C224.451 9.47958 224.362 9.43693 224.298 9.36621C224.194 9.26293 224.104 9.14692 224.029 9.02094L224.031 9.02364ZM223.977 7.84218C223.806 7.90035 223.631 7.94721 223.454 7.98245C223.226 8.031 223.068 8.06697 222.979 8.09034C222.887 8.11612 222.801 8.16219 222.729 8.22521C222.69 8.25863 222.66 8.30015 222.639 8.34678C222.618 8.39342 222.609 8.44402 222.61 8.49495C222.609 8.55454 222.621 8.61356 222.646 8.66802C222.67 8.72247 222.705 8.77108 222.75 8.81055C222.852 8.90015 222.984 8.9466 223.12 8.94002C223.275 8.94185 223.429 8.90575 223.567 8.83482C223.692 8.77618 223.797 8.68244 223.87 8.56508C223.957 8.37436 223.995 8.16474 223.98 7.95548L223.977 7.84218ZM226.419 8.30074V8.98318C226.428 9.11738 226.386 9.25014 226.303 9.35542C226.265 9.39609 226.219 9.42821 226.168 9.44961C226.116 9.47101 226.061 9.4812 226.006 9.4795C225.951 9.48098 225.896 9.4704 225.846 9.44849C225.796 9.42658 225.751 9.39389 225.715 9.35272C225.632 9.24705 225.591 9.11433 225.601 8.98048V6.70659C225.601 6.34694 225.734 6.16711 226 6.16711C226.056 6.16203 226.113 6.17124 226.164 6.19389C226.216 6.21653 226.26 6.25187 226.294 6.29658C226.363 6.41137 226.398 6.54325 226.394 6.67691C226.473 6.53386 226.575 6.40524 226.696 6.29658C226.814 6.20532 226.96 6.15936 227.109 6.16711C227.284 6.16821 227.455 6.2127 227.608 6.29658C227.677 6.32414 227.737 6.37115 227.78 6.43194C227.823 6.49274 227.848 6.5647 227.851 6.63915C227.853 6.68544 227.844 6.73155 227.827 6.77436C227.809 6.81717 227.782 6.85569 227.748 6.88731C227.689 6.94789 227.609 6.98278 227.524 6.98442C227.451 6.97342 227.378 6.95443 227.309 6.92777C227.211 6.8933 227.108 6.87419 227.004 6.87113C226.898 6.8665 226.793 6.89999 226.71 6.96553C226.627 7.03761 226.566 7.13086 226.532 7.23527C226.486 7.37889 226.457 7.52734 226.446 7.67764C226.428 7.84668 226.419 8.05348 226.419 8.29804V8.30074ZM230.775 8.40864C230.784 8.61577 230.726 8.82032 230.608 8.99087C230.49 9.16143 230.319 9.28855 230.122 9.35272C229.871 9.44151 229.606 9.48356 229.34 9.4768C229.082 9.4834 228.825 9.43751 228.585 9.34193C228.403 9.27263 228.243 9.15627 228.121 9.00476C228.029 8.88955 227.977 8.74754 227.972 8.60015C227.972 8.55754 227.98 8.51526 227.996 8.47585C228.012 8.43645 228.036 8.40074 228.067 8.37087C228.099 8.33944 228.137 8.31486 228.178 8.29863C228.22 8.28239 228.265 8.27485 228.309 8.27646C228.345 8.27337 228.38 8.27725 228.414 8.2879C228.448 8.29854 228.479 8.31574 228.506 8.3385C228.56 8.39037 228.604 8.45048 228.639 8.51653C228.71 8.649 228.814 8.76125 228.941 8.84291C229.087 8.92186 229.252 8.95917 229.418 8.95081C229.56 8.95623 229.701 8.9176 229.82 8.84022C229.865 8.81492 229.903 8.77867 229.93 8.73482C229.958 8.69098 229.974 8.64095 229.976 8.58936C229.981 8.52669 229.968 8.46401 229.939 8.4083C229.91 8.35259 229.866 8.30602 229.812 8.27377C229.642 8.18558 229.46 8.122 229.272 8.08495C229.038 8.03003 228.807 7.95606 228.585 7.86376C228.422 7.79667 228.276 7.69228 228.161 7.55896C228.053 7.42875 227.997 7.26385 228.002 7.09501C228.002 6.92908 228.053 6.76712 228.148 6.63106C228.256 6.47694 228.406 6.35638 228.579 6.2831C228.797 6.19105 229.033 6.1469 229.27 6.15362C229.461 6.15107 229.653 6.17282 229.839 6.21836C229.989 6.25435 230.132 6.31448 230.262 6.39639C230.369 6.45833 230.46 6.54197 230.532 6.64185C230.588 6.72073 230.619 6.81475 230.621 6.91159C230.622 6.95429 230.615 6.99676 230.598 7.03626C230.582 7.07576 230.558 7.1114 230.527 7.14087C230.452 7.20502 230.355 7.23703 230.257 7.22988C230.18 7.23142 230.104 7.20563 230.044 7.15705C229.969 7.09241 229.901 7.02008 229.842 6.94126C229.782 6.86364 229.708 6.79856 229.623 6.74974C229.517 6.69632 229.399 6.67123 229.28 6.67691C229.151 6.67186 229.022 6.70466 228.911 6.77132C228.868 6.79368 228.831 6.82729 228.806 6.8686C228.78 6.90991 228.766 6.95738 228.765 7.006C228.765 7.04719 228.774 7.08788 228.793 7.12454C228.812 7.1612 228.839 7.19273 228.873 7.21639C228.961 7.27858 229.06 7.32427 229.165 7.35126C229.287 7.38723 229.454 7.43218 229.666 7.48613C229.881 7.53424 230.09 7.60852 230.287 7.70732C230.43 7.77926 230.555 7.88362 230.651 8.01212C230.733 8.12869 230.777 8.26848 230.775 8.41133V8.40864ZM205.406 15.9829C205.608 15.8169 205.755 15.5942 205.829 15.3436C205.9 15.1586 205.896 14.953 205.817 14.7714C205.737 14.5897 205.59 14.4465 205.406 14.3726C204.165 13.7441 203.364 14.8635 203.248 15.1278C203.132 15.3922 202.924 15.8022 203.059 16.7462C203.194 17.6903 203.645 18.5616 205.069 18.9042C206.431 19.2206 207.862 19.0537 209.115 18.4321C210.372 17.8333 212.729 16.7813 213.323 16.6788C213.712 16.5833 214.111 16.5336 214.512 16.5305V15.0928C214.201 14.5336 213.734 14.0772 213.168 13.7793C212.602 13.4813 211.961 13.3547 211.324 13.415C209.05 13.593 208.147 14.7637 207.594 15.2654C207.041 15.7671 206.013 16.9486 205.328 16.7409C204.643 16.5332 204.446 15.6835 204.688 15.4191C204.931 15.1548 205.12 15.2033 205.274 15.4191C205.366 15.5924 205.413 15.7865 205.409 15.9829H205.406Z" fill="#D6D6D6"/>
<path d="M223.538 15.983C223.336 15.8169 223.188 15.5943 223.114 15.3437C223.043 15.1586 223.048 14.9531 223.127 14.7714C223.206 14.5898 223.354 14.4465 223.538 14.3726C224.779 13.7441 225.58 14.8635 225.696 15.1279C225.812 15.3922 226.019 15.8022 225.885 16.7463C225.75 17.6904 225.299 18.5617 223.875 18.9042C222.512 19.2206 221.082 19.0538 219.829 18.4322C218.572 17.8334 216.214 16.7814 215.621 16.6789C215.232 16.5834 214.832 16.5336 214.431 16.5305V15.0928C214.742 14.5337 215.21 14.0773 215.776 13.7793C216.342 13.4814 216.983 13.3548 217.62 13.415C219.894 13.5931 220.797 14.7637 221.35 15.2655C221.903 15.7672 222.931 16.9486 223.616 16.7409C224.301 16.5332 224.498 15.6835 224.255 15.4192C224.013 15.1549 223.824 15.2034 223.67 15.4192C223.577 15.5924 223.531 15.7866 223.535 15.983H223.538Z" fill="#D6D6D6"/>
<path d="M255.139 9.81938C254.286 5.99212 252.508 4.97325 252.055 4.25302C251.867 3.93574 251.702 3.60594 251.559 3.26588C251.535 3.60588 251.491 3.82008 251.206 4.07792C250.636 4.59528 248.212 6.60355 248.008 10.9522C247.818 15.0067 250.939 17.5068 251.352 17.7652C251.669 17.9239 252.055 17.7686 252.243 17.623C253.748 16.5729 255.804 13.7736 255.141 9.81938" fill="#D6D6D6"/>
<path d="M251.688 15.606C251.61 16.6095 251.553 17.1926 251.354 17.7661C251.354 17.7661 251.485 18.7215 251.577 19.7336H251.902C251.98 19.0209 252.098 18.3134 252.257 17.6148C251.836 17.404 251.704 16.4866 251.688 15.606Z" fill="#D6D6D6"/>
<path d="M252.256 17.6154C251.831 17.4154 251.708 16.4787 251.689 15.606C251.794 14.1665 251.825 12.7223 251.781 11.2795C251.758 10.5224 251.791 4.26756 251.597 3.35182C251.73 3.66197 251.883 3.96278 252.055 4.25226C252.508 4.97306 254.287 5.99192 255.14 9.81919C255.804 13.7666 253.759 16.5586 252.256 17.6154Z" fill="#D6D6D6"/>
<path d="M308.371 16.2315C308.189 16.2315 308.011 16.1767 307.859 16.074C307.707 15.9712 307.589 15.8252 307.518 15.6541C307.448 15.4831 307.429 15.2948 307.464 15.1128C307.498 14.9308 307.585 14.7633 307.713 14.6313C307.841 14.4993 308.005 14.4087 308.183 14.371C308.362 14.3333 308.547 14.35 308.716 14.4192C308.885 14.4884 309.031 14.6068 309.134 14.7597C309.237 14.9126 309.293 15.093 309.296 15.2784C309.299 15.4034 309.277 15.5278 309.232 15.6441C309.187 15.7604 309.119 15.8662 309.033 15.9552C308.947 16.0442 308.844 16.1146 308.73 16.1621C308.616 16.2096 308.494 16.2332 308.371 16.2315ZM308.371 14.4363C308.205 14.4352 308.041 14.4844 307.902 14.5776C307.763 14.6709 307.655 14.804 307.59 14.9601C307.525 15.1162 307.508 15.2883 307.539 15.4546C307.571 15.6209 307.651 15.7739 307.768 15.8942C307.885 16.0145 308.035 16.0968 308.198 16.1305C308.361 16.1642 308.531 16.148 308.685 16.0837C308.839 16.0195 308.971 15.9101 309.064 15.7696C309.157 15.6291 309.207 15.4636 309.207 15.2943C309.209 15.1817 309.189 15.0698 309.148 14.9652C309.107 14.8606 309.045 14.7655 308.968 14.6855C308.89 14.6055 308.797 14.5422 308.694 14.4994C308.592 14.4566 308.482 14.4352 308.371 14.4363ZM308.594 15.8859L308.356 15.3628H308.163V15.8859H308.023V14.6959H308.368C308.625 14.6959 308.732 14.8092 308.732 15.0285C308.732 15.203 308.651 15.3118 308.501 15.3453L308.747 15.8842L308.594 15.8859ZM308.169 15.2399H308.371C308.535 15.2399 308.597 15.1832 308.597 15.0313C308.597 14.8795 308.538 14.8279 308.353 14.8279H308.169V15.2399Z" fill="#D6D6D6"/>
<path d="M294.612 15.375C294.862 15.5784 295.362 15.6623 295.803 15.6623C296.374 15.6623 296.934 15.5546 297.481 15.052C298.039 14.5369 298.422 13.7487 298.422 12.4901C298.422 11.2808 297.97 10.2994 297.041 9.72476C296.517 9.38986 295.839 9.25783 295.065 9.25783C294.842 9.25783 294.612 9.26973 294.482 9.3298C294.428 9.37271 294.39 9.43254 294.374 9.4998C294.351 9.71513 294.351 11.3551 294.351 12.3246C294.351 13.3186 294.351 14.7046 294.374 14.8746C294.387 15.0186 294.458 15.2713 294.612 15.3773V15.375ZM292.236 8.7195C292.438 8.7195 293.207 8.7552 293.565 8.7552C294.234 8.7552 294.696 8.7195 295.946 8.7195C296.993 8.7195 297.875 9.0068 298.505 9.55703C299.267 10.228 299.675 11.1613 299.675 12.2986C299.675 13.9147 298.951 14.8486 298.223 15.375C297.498 15.9258 296.556 16.2369 295.213 16.2369C294.499 16.2369 293.273 16.2131 292.249 16.2012H292.228C292.18 16.1054 292.315 15.732 292.399 15.7224C292.677 15.6906 292.751 15.6793 292.879 15.6255C293.095 15.5354 293.146 15.4232 293.17 15.0282C293.206 14.2859 293.194 13.4002 293.194 12.3943C293.194 11.6764 293.206 10.2756 293.182 9.83243C293.146 9.46183 292.992 9.36606 292.681 9.2941C292.46 9.24638 292.237 9.21044 292.012 9.18643C291.989 9.11446 292.171 8.78976 292.231 8.7195" fill="#D6D6D6"/>
<path d="M302.626 9.32699C302.579 9.33889 302.519 9.45903 302.519 9.51853C302.507 9.94976 302.495 11.0746 302.495 11.8526C302.498 11.8675 302.505 11.8811 302.516 11.8918C302.527 11.9025 302.54 11.9098 302.555 11.9127C302.709 11.9246 303.09 11.9371 303.412 11.9371C303.864 11.9371 304.126 11.877 304.269 11.805C304.65 11.6135 304.826 11.1942 304.826 10.7397C304.826 9.69816 304.112 9.30319 303.052 9.30319C302.909 9.30135 302.766 9.30931 302.624 9.32699H302.626ZM305.326 14.1153C305.326 13.0619 304.564 12.4635 303.171 12.4635C303.112 12.4635 302.669 12.4516 302.564 12.4754C302.528 12.4873 302.493 12.5111 302.493 12.5355C302.493 13.2897 302.481 14.4984 302.517 14.9772C302.541 15.1807 302.684 15.468 302.862 15.5518C303.052 15.6595 303.481 15.6833 303.778 15.6833C304.6 15.6833 305.326 15.2169 305.326 14.1153ZM300.475 8.74049C300.583 8.74049 300.899 8.77619 301.709 8.77619C302.471 8.77619 303.09 8.75239 303.826 8.75239C304.743 8.75239 306.005 9.08786 306.005 10.4762C306.005 11.1562 305.529 11.7093 304.91 11.9728C304.874 11.9847 304.874 12.0085 304.91 12.0204C305.791 12.247 306.564 12.7984 306.564 13.8518C306.564 14.8815 305.933 15.528 305.017 15.9349C304.459 16.1865 303.767 16.2698 303.066 16.2698C302.531 16.2698 301.095 16.2131 300.297 16.2222C300.214 16.1865 300.374 15.8029 300.445 15.7434C300.628 15.7376 300.809 15.7087 300.985 15.6572C301.27 15.5858 301.304 15.4923 301.34 15.0611C301.364 14.6899 301.364 13.3611 301.364 12.4153C301.364 11.1222 301.376 10.249 301.364 9.81773C301.352 9.48283 301.233 9.37459 301.007 9.31509C300.828 9.27883 300.531 9.24313 300.293 9.20743C300.233 9.14736 300.417 8.78809 300.476 8.74049" fill="#D6D6D6"/>
<path d="M257.776 16.2319C257.745 16.1552 257.733 16.0723 257.74 15.9899C257.737 15.9337 257.749 15.8778 257.776 15.8284C257.93 15.8058 258.082 15.7742 258.233 15.7338C258.443 15.6805 258.523 15.5638 258.535 15.2906C258.569 14.6452 258.572 13.4342 258.559 12.5831V12.5582C258.559 12.4664 258.559 12.3417 258.448 12.2539C258.252 12.1289 258.039 12.0335 257.817 11.9705C257.717 11.9405 257.662 11.8872 257.664 11.8249C257.667 11.7626 257.73 11.6889 257.86 11.6628C258.205 11.6271 259.109 11.4078 259.464 11.2412C259.5 11.2897 259.517 11.3505 259.511 11.4112C259.511 11.4486 259.506 11.4883 259.502 11.5291C259.492 11.6492 259.48 11.7858 259.48 11.9218C259.483 11.9383 259.489 11.9539 259.5 11.9668C259.51 11.9796 259.524 11.9893 259.539 11.9947C259.555 12 259.572 12.0009 259.588 11.9971C259.604 11.9933 259.618 11.9851 259.63 11.9734C260.306 11.4345 260.911 11.2424 261.222 11.2424C261.733 11.2424 262.131 11.4906 262.439 12.0017C262.446 12.014 262.456 12.0243 262.468 12.0316C262.48 12.0388 262.494 12.0428 262.508 12.0431C262.521 12.0429 262.533 12.0397 262.545 12.0336C262.556 12.0274 262.565 12.0187 262.573 12.0079C263.194 11.5285 263.81 11.2424 264.222 11.2424C265.196 11.2424 265.778 11.9841 265.778 13.2257C265.778 13.5827 265.775 14.0355 265.772 14.4576C265.769 14.8282 265.766 15.1756 265.766 15.4159C265.766 15.4725 265.843 15.6357 265.958 15.668C266.101 15.7389 266.307 15.7751 266.567 15.8205H266.577C266.597 15.8919 266.555 16.169 266.516 16.2256C266.451 16.2256 266.362 16.22 266.25 16.2143C266.048 16.2041 265.771 16.1899 265.448 16.1899C264.801 16.1899 264.462 16.2024 264.139 16.2239C264.115 16.1418 264.106 15.8766 264.136 15.821C264.27 15.7997 264.402 15.7704 264.532 15.7332C264.739 15.6641 264.798 15.5689 264.811 15.2906C264.816 15.0929 264.853 13.3504 264.787 12.9367C264.726 12.5077 264.408 12.0057 263.713 12.0057C263.455 12.0057 263.039 12.115 262.642 12.421C262.618 12.4494 262.604 12.4858 262.603 12.5236V12.5321C262.65 12.7554 262.65 13.016 262.65 13.4099C262.65 13.6365 262.65 13.8728 262.647 14.1091C262.645 14.5897 262.642 15.043 262.65 15.3858C262.65 15.6193 262.789 15.6754 262.901 15.7202C262.962 15.7338 263.01 15.7457 263.058 15.757C263.151 15.7802 263.248 15.804 263.392 15.8273C263.414 15.9268 263.412 16.0301 263.387 16.1287C263.381 16.1658 263.367 16.2009 263.345 16.2313C262.985 16.2188 262.616 16.2081 262.082 16.2081C261.921 16.2081 261.657 16.2149 261.424 16.2211C261.235 16.2262 261.057 16.2313 260.956 16.2319C260.928 16.166 260.916 16.0947 260.92 16.0233C260.914 15.9561 260.927 15.8886 260.957 15.8284L261.1 15.8018C261.225 15.7791 261.333 15.7598 261.435 15.7338C261.611 15.6771 261.677 15.5796 261.69 15.3513C261.725 14.8186 261.751 13.2835 261.677 12.8993C261.551 12.2828 261.206 11.97 260.651 11.97C260.326 11.97 259.916 12.1292 259.58 12.3848C259.548 12.4167 259.523 12.4551 259.506 12.4975C259.489 12.5399 259.48 12.5855 259.482 12.6313C259.482 12.8143 259.482 13.0319 259.482 13.2654C259.482 14.036 259.477 14.9954 259.495 15.4102C259.506 15.5383 259.551 15.6901 259.786 15.7457C259.838 15.761 259.927 15.7757 260.031 15.7933C260.091 15.8035 260.156 15.8142 260.223 15.8267C260.245 15.9624 260.234 16.1013 260.192 16.2319C260.088 16.2319 259.96 16.2251 259.814 16.2188C259.591 16.2086 259.313 16.1962 258.998 16.1962C258.626 16.1962 258.367 16.2086 258.159 16.2188C258.019 16.2256 257.898 16.2313 257.777 16.2319" fill="#D6D6D6"/>
<path d="M269.726 11.7545C269.525 11.7502 269.327 11.8068 269.158 11.9171C268.744 12.1727 268.534 12.6833 268.534 13.4335C268.534 14.8377 269.225 15.8186 270.215 15.8186C270.481 15.8272 270.74 15.7339 270.941 15.5574C271.245 15.3052 271.407 14.7896 271.407 14.0676C271.407 12.6844 270.731 11.7545 269.725 11.7545H269.726ZM269.916 16.3394C268.127 16.3394 267.49 15.0049 267.49 13.7565C267.49 12.8844 267.84 12.2027 268.532 11.7296C269.016 11.4246 269.572 11.2575 270.142 11.2456C271.507 11.2456 272.46 12.2435 272.46 13.6732C272.46 14.6445 272.079 15.4118 271.359 15.8912C271.013 16.1065 270.412 16.3394 269.916 16.3394Z" fill="#D6D6D6"/>
<path d="M287.937 11.7545C287.736 11.7498 287.537 11.8065 287.368 11.9171C286.954 12.1727 286.743 12.6833 286.743 13.4335C286.743 14.8377 287.435 15.8186 288.425 15.8186C288.691 15.8278 288.951 15.7345 289.153 15.5574C289.457 15.3052 289.618 14.7896 289.618 14.0676C289.618 12.6844 288.943 11.7545 287.937 11.7545ZM288.128 16.3394C286.339 16.3394 285.702 15.0049 285.702 13.7571C285.702 12.8839 286.052 12.2027 286.745 11.7296C287.229 11.4244 287.784 11.2573 288.354 11.2456C289.719 11.2456 290.672 12.2441 290.672 13.6727C290.672 14.6451 290.291 15.4118 289.571 15.8906C289.225 16.1065 288.624 16.3394 288.128 16.3394Z" fill="#D6D6D6"/>
<path d="M281.914 11.707C281.363 11.707 281.007 12.1496 281.007 12.8347C281.007 13.5198 281.314 14.3341 282.177 14.3341C282.325 14.3341 282.594 14.2672 282.727 14.1182C282.927 13.9306 283.061 13.543 283.061 13.1339C283.061 12.2403 282.633 11.707 281.917 11.707H281.914ZM281.846 16.4353C281.69 16.4336 281.537 16.4726 281.4 16.5486C280.964 16.832 280.761 17.1153 280.761 17.4445C280.761 17.7528 280.879 17.9982 281.132 18.2158C281.439 18.4798 281.852 18.6085 282.395 18.6085C283.465 18.6085 283.944 18.0237 283.944 17.4445C283.944 17.0411 283.745 16.7708 283.335 16.6178C283.02 16.5005 282.493 16.4359 281.848 16.4359L281.846 16.4353ZM281.919 19.2125C281.277 19.2125 280.814 19.0748 280.419 18.7654C280.035 18.464 279.862 18.0163 279.862 17.7069C279.866 17.5075 279.941 17.3163 280.073 17.1686C280.184 17.0394 280.443 16.7974 281.042 16.3786C281.052 16.3746 281.06 16.3679 281.065 16.3593C281.071 16.3508 281.074 16.3407 281.074 16.3305C281.074 16.319 281.07 16.3078 281.063 16.2988C281.056 16.2897 281.047 16.2833 281.036 16.2806C280.542 16.0885 280.394 15.7706 280.349 15.6006C280.349 15.5944 280.349 15.5847 280.344 15.574C280.33 15.5071 280.316 15.4436 280.406 15.3785C280.475 15.3286 280.585 15.2617 280.704 15.1909C280.87 15.097 281.03 14.9912 281.182 14.8741C281.19 14.8652 281.196 14.8545 281.2 14.8428C281.203 14.8312 281.204 14.8188 281.202 14.8068C281.2 14.7948 281.196 14.7833 281.189 14.7734C281.182 14.7635 281.173 14.7553 281.162 14.7495C280.432 14.5001 280.064 13.9488 280.064 13.1061C280.062 12.8434 280.122 12.5839 280.24 12.3498C280.357 12.1157 280.528 11.9139 280.739 11.7614C281.032 11.5251 281.77 11.2412 282.247 11.2412H282.275C282.766 11.2531 283.043 11.358 283.426 11.5019C283.644 11.5821 283.875 11.6194 284.107 11.6118C284.513 11.6118 284.691 11.4809 284.844 11.3285C284.869 11.3972 284.882 11.4696 284.883 11.5427C284.892 11.7169 284.846 11.8895 284.75 12.0346C284.667 12.1519 284.472 12.2369 284.293 12.2369C284.274 12.2369 284.257 12.2369 284.237 12.234C284.143 12.2273 284.05 12.2115 283.958 12.187L283.913 12.2034C283.898 12.225 283.908 12.2488 283.919 12.2794C283.922 12.2853 283.924 12.2916 283.926 12.2981C283.959 12.4493 283.981 12.6027 283.992 12.7571C283.992 13.6382 283.651 14.0219 283.281 14.3063C282.924 14.5789 282.5 14.7459 282.055 14.7891C282.046 14.7891 282 14.7931 281.913 14.801C281.857 14.8061 281.785 14.8129 281.774 14.8129H281.763C281.683 14.8356 281.474 14.937 281.474 15.1257C281.474 15.2821 281.568 15.4765 282.021 15.5116L282.315 15.5326C282.912 15.5751 283.658 15.6278 284.009 15.7485C284.242 15.8318 284.443 15.9876 284.584 16.1938C284.725 16.4 284.798 16.6461 284.793 16.8971C284.793 17.6876 284.24 18.4311 283.315 18.8856C282.878 19.0976 282.4 19.2066 281.917 19.2046" fill="#D6D6D6"/>
<path d="M279.18 15.8099C278.918 15.7742 278.727 15.738 278.502 15.6303C278.457 15.5836 278.428 15.5243 278.418 15.4603C278.394 15.0891 278.394 14.0119 278.394 13.307C278.394 12.7318 278.299 12.2303 278.06 11.8705C277.774 11.463 277.369 11.2239 276.845 11.2239C276.381 11.2239 275.762 11.5469 275.251 11.99C275.238 12.0019 275.16 12.0779 275.161 11.96C275.163 11.8421 275.181 11.603 275.192 11.45C275.197 11.4093 275.193 11.3681 275.179 11.3295C275.166 11.2909 275.143 11.2561 275.114 11.2279C274.78 11.3979 273.842 11.6245 273.495 11.6591C273.242 11.709 273.178 11.9566 273.448 12.0422H273.452C273.668 12.1028 273.875 12.1952 274.065 12.3164C274.172 12.4003 274.16 12.5199 274.16 12.6156C274.172 13.4175 274.172 14.6505 274.136 15.3209C274.124 15.5844 274.053 15.6802 273.862 15.7283L273.88 15.7221C273.735 15.7591 273.587 15.7871 273.439 15.806C273.379 15.8655 273.379 16.2128 273.439 16.2848C273.558 16.2848 274.163 16.2491 274.665 16.2491C275.355 16.2491 275.712 16.2848 275.891 16.2848C275.963 16.2009 275.986 15.8779 275.939 15.806C275.774 15.7984 275.61 15.7743 275.45 15.734C275.26 15.6864 275.212 15.5901 275.2 15.3753C275.177 14.812 275.177 13.6152 275.177 12.8009C275.177 12.5743 275.236 12.466 275.307 12.4043C275.545 12.1889 275.939 12.0456 276.284 12.0456C276.618 12.0456 276.841 12.1532 277.008 12.2966C277.203 12.4694 277.325 12.7116 277.349 12.9732C277.397 13.4265 277.384 14.3383 277.384 15.1265C277.384 15.5578 277.349 15.666 277.194 15.7136C277.123 15.7493 276.932 15.7856 276.706 15.8094C276.635 15.8813 276.658 16.2162 276.706 16.2882C277.015 16.2882 277.375 16.2525 277.896 16.2525C278.551 16.2525 278.968 16.2882 279.135 16.2882C279.206 16.2043 279.23 15.8915 279.183 15.8094" fill="#D6D6D6"/>
<path opacity="0.3" d="M19.7728 24.9999C19.6398 25.0001 19.5091 24.9645 19.3939 24.8966L18.1878 24.1677C18.007 24.0652 18.0974 24.0283 18.1544 24.0071C18.3448 23.9462 18.527 23.8613 18.6968 23.7543C18.7112 23.7473 18.7272 23.7443 18.743 23.7456C18.7589 23.7469 18.7742 23.7524 18.7873 23.7617L19.714 24.3227C19.731 24.3322 19.7502 24.3372 19.7696 24.3372C19.789 24.3372 19.8082 24.3322 19.8252 24.3227L23.4418 22.195C23.4586 22.1846 23.4725 22.17 23.4822 22.1526C23.4918 22.1351 23.4969 22.1154 23.4969 22.0953V17.8409C23.4969 17.8204 23.4917 17.8004 23.4819 17.7826C23.4721 17.7648 23.4579 17.75 23.4409 17.7394L19.8297 15.6172C19.8128 15.6072 19.7936 15.602 19.7741 15.602C19.7546 15.602 19.7354 15.6072 19.7185 15.6172L16.1083 17.744C16.091 17.7542 16.0766 17.7688 16.0666 17.7865C16.0566 17.8041 16.0514 17.8242 16.0513 17.8445V22.099C16.0513 22.1192 16.0566 22.139 16.0666 22.1563C16.0766 22.1737 16.091 22.188 16.1083 22.1977L17.0974 22.7809C17.6345 23.0577 17.9636 22.732 17.9636 22.4118V18.2044C17.9636 18.1904 17.9663 18.1765 17.9716 18.1636C17.9769 18.1506 17.9846 18.1389 17.9944 18.129C18.0041 18.1192 18.0157 18.1114 18.0284 18.1061C18.0411 18.1008 18.0547 18.0982 18.0685 18.0983H18.526C18.5397 18.0982 18.5533 18.1008 18.566 18.1061C18.5788 18.1114 18.5903 18.1192 18.6001 18.129C18.6098 18.1389 18.6176 18.1506 18.6228 18.1636C18.6281 18.1765 18.6308 18.1904 18.6308 18.2044V22.4044C18.6308 23.1361 18.2412 23.555 17.5613 23.555C17.3524 23.555 17.1887 23.555 16.7294 23.3243L15.7819 22.7707C15.6667 22.7022 15.571 22.604 15.5046 22.486C15.4381 22.368 15.4031 22.2342 15.4031 22.0981V17.8409C15.4031 17.7048 15.4381 17.5712 15.5046 17.4533C15.571 17.3355 15.6667 17.2375 15.7819 17.1691L19.3985 15.0387C19.5148 14.9737 19.6452 14.9397 19.7777 14.9397C19.9103 14.9397 20.0407 14.9737 20.157 15.0387L23.7691 17.1691C23.8843 17.2375 23.9801 17.3355 24.0467 17.4533C24.1133 17.5712 24.1485 17.7048 24.1488 17.8409V22.0953C24.1485 22.2315 24.1133 22.3652 24.0467 22.4832C23.9801 22.6012 23.8844 22.6994 23.7691 22.768L20.157 24.8966C20.0403 24.9655 19.9076 25.0012 19.7728 24.9999Z" fill="#333333"/>
<path opacity="0.3" d="M20.8856 22.0688C19.3043 22.0688 18.9734 21.3306 18.9734 20.7069C18.9734 20.6929 18.9761 20.679 18.9814 20.6661C18.9867 20.6531 18.9944 20.6414 19.0042 20.6315C19.0139 20.6217 19.0255 20.6139 19.0382 20.6086C19.0509 20.6033 19.0645 20.6007 19.0783 20.6008H19.5448C19.5701 20.6008 19.5946 20.6101 19.6137 20.627C19.6328 20.644 19.6453 20.6674 19.6488 20.693C19.7193 21.1784 19.9291 21.4229 20.8856 21.4229C21.646 21.4229 21.9706 21.2476 21.9706 20.8351C21.9706 20.598 21.8802 20.4218 20.6958 20.3037C19.7075 20.204 19.0964 19.9807 19.0964 19.1743C19.0964 18.4306 19.7103 17.9868 20.741 17.9868C21.8974 17.9868 22.4706 18.3965 22.5429 19.2786C22.5443 19.2933 22.5427 19.3082 22.5381 19.3223C22.5335 19.3364 22.526 19.3493 22.5162 19.3603C22.5064 19.3712 22.4945 19.38 22.4812 19.3859C22.4679 19.3919 22.4535 19.3949 22.439 19.3948H21.9706C21.947 19.3948 21.9241 19.3865 21.9057 19.3714C21.8873 19.3564 21.8745 19.3353 21.8693 19.3118C21.7572 18.8006 21.4833 18.6373 20.7419 18.6373C19.911 18.6373 19.8142 18.9335 19.8142 19.154C19.8142 19.4225 19.9282 19.5009 21.0502 19.6523C22.1722 19.8036 22.6939 20.0093 22.6939 20.8056C22.6939 21.6019 22.033 22.0688 20.8856 22.0688Z" fill="#333333"/>
<path opacity="0.3" d="M26.0972 17.6076C26.097 17.7481 26.056 17.8854 25.9794 18.0021C25.9028 18.1188 25.794 18.2097 25.6668 18.2634C25.5396 18.317 25.3996 18.3309 25.2646 18.3034C25.1297 18.2759 25.0057 18.2082 24.9084 18.1088C24.8111 18.0094 24.7449 17.8828 24.7181 17.745C24.6914 17.6072 24.7052 17.4644 24.7579 17.3346C24.8106 17.2049 24.8999 17.094 25.0143 17.0159C25.1288 16.9379 25.2634 16.8963 25.401 16.8963C25.5856 16.897 25.7624 16.9722 25.8928 17.1055C26.0232 17.2388 26.0967 17.4193 26.0972 17.6076ZM24.8169 17.6076C24.8164 17.7257 24.8503 17.8413 24.9142 17.9397C24.9781 18.0382 25.0692 18.115 25.176 18.1605C25.2828 18.206 25.4004 18.2181 25.514 18.1952C25.6275 18.1724 25.7318 18.1156 25.8137 18.0322C25.8956 17.9488 25.9513 17.8424 25.9739 17.7266C25.9964 17.6108 25.9848 17.4907 25.9404 17.3817C25.8959 17.2726 25.8208 17.1795 25.7245 17.1141C25.6281 17.0487 25.5149 17.014 25.3992 17.0144C25.2455 17.0148 25.0983 17.0771 24.9893 17.1876C24.8803 17.2982 24.8184 17.4481 24.8169 17.6049V17.6076ZM25.1388 17.2118H25.4101C25.5005 17.2118 25.6813 17.2118 25.6813 17.4222C25.6847 17.4677 25.6714 17.513 25.644 17.5491C25.6166 17.5852 25.5771 17.6097 25.533 17.6178C25.6406 17.6252 25.6478 17.6962 25.6623 17.7977C25.6663 17.8694 25.68 17.9402 25.703 18.0081H25.5375C25.533 17.9712 25.5077 17.7682 25.5077 17.7562C25.4968 17.7119 25.4815 17.6888 25.4263 17.6888H25.2907V18.0081H25.1352L25.1388 17.2118ZM25.2871 17.5615H25.4064C25.4218 17.5635 25.4374 17.5619 25.452 17.557C25.4667 17.5521 25.4802 17.5439 25.4914 17.533C25.5026 17.5222 25.5114 17.5089 25.517 17.4942C25.5226 17.4796 25.525 17.4638 25.524 17.448C25.524 17.3391 25.4507 17.3391 25.4101 17.3391H25.2853L25.2871 17.5615Z" fill="#333333"/>
<path opacity="0.3" fill-rule="evenodd" clip-rule="evenodd" d="M8.58932 8.35473C8.58959 8.27178 8.56843 8.19023 8.52794 8.1183C8.48746 8.04637 8.42911 7.98662 8.35876 7.94506L4.52521 5.69465C4.46076 5.65657 4.38808 5.63533 4.31365 5.63283H4.27477C4.20033 5.63533 4.12766 5.65657 4.0632 5.69465L0.233268 7.94506C0.16248 7.98634 0.103628 8.04596 0.0626672 8.1179C0.0217062 8.18983 8.81967e-05 8.27153 0 8.35473L0.00813692 14.4112C0.00778126 14.4526 0.0183326 14.4934 0.038689 14.5293C0.0590454 14.5652 0.0884613 14.5948 0.123867 14.6151C0.158525 14.6364 0.198225 14.6477 0.238693 14.6477C0.27916 14.6477 0.318861 14.6364 0.353519 14.6151L2.62924 13.2855C2.6995 13.2438 2.75784 13.184 2.79845 13.1122C2.83906 13.0403 2.86052 12.9588 2.86069 12.8759V10.046C2.86048 9.96308 2.88179 9.88159 2.92244 9.80979C2.96309 9.738 3.02165 9.67847 3.09215 9.63726L4.06139 9.06796C4.13169 9.02629 4.21155 9.00432 4.29285 9.0043C4.37391 9.00404 4.45354 9.02603 4.52341 9.06796L5.49174 9.63726C5.56224 9.67847 5.6208 9.738 5.66145 9.80979C5.70211 9.88159 5.72341 9.96308 5.7232 10.046V12.8759C5.72365 12.9589 5.74532 13.0403 5.78607 13.1122C5.82683 13.184 5.88525 13.2438 5.95556 13.2855L8.23037 14.6151C8.26537 14.6364 8.30536 14.6476 8.3461 14.6476C8.38685 14.6476 8.42683 14.6364 8.46183 14.6151C8.49688 14.5945 8.52596 14.5647 8.54613 14.5289C8.56629 14.4931 8.57682 14.4525 8.57666 14.4112L8.58932 8.35473Z" fill="#333333"/>
<path opacity="0.3" fill-rule="evenodd" clip-rule="evenodd" d="M27.0139 0.0295757C26.9788 0.00970232 26.9391 -0.000479727 26.8989 3.3762e-05C26.8587 0.000547251 26.8193 0.0117386 26.7847 0.0325041C26.75 0.0532696 26.7212 0.0828934 26.7012 0.118459C26.6811 0.154025 26.6705 0.194305 26.6704 0.235333V6.23275C26.6701 6.2617 26.6625 6.29008 26.6482 6.31509C26.6339 6.3401 26.6134 6.36086 26.5889 6.37531C26.5643 6.38976 26.5364 6.39741 26.5081 6.39749C26.4797 6.39757 26.4518 6.39008 26.4271 6.37576L25.4678 5.81201C25.3976 5.77053 25.318 5.7487 25.2368 5.7487C25.1557 5.7487 25.076 5.77053 25.0058 5.81201L21.1741 8.06796C21.1039 8.10953 21.0456 8.16914 21.005 8.24085C20.9644 8.31257 20.9429 8.39388 20.9426 8.4767V12.9914C20.9429 13.0742 20.9644 13.1555 21.005 13.2272C21.0456 13.2989 21.1039 13.3585 21.1741 13.4001L25.0049 15.6598C25.0752 15.7015 25.1551 15.7235 25.2364 15.7235C25.3177 15.7235 25.3976 15.7015 25.4678 15.6598L29.2996 13.402C29.3699 13.3605 29.4283 13.301 29.4689 13.2292C29.5096 13.1575 29.531 13.0761 29.531 12.9932V1.74022C29.5312 1.65617 29.5093 1.57361 29.4676 1.50109C29.426 1.42858 29.3661 1.36874 29.2942 1.32778L27.0139 0.0295757ZM26.6586 11.5077C26.6587 11.5285 26.6534 11.5489 26.6432 11.5669C26.6331 11.5849 26.6184 11.5998 26.6007 11.6101L25.2852 12.3843C25.2675 12.3943 25.2476 12.3995 25.2273 12.3995C25.2071 12.3995 25.1872 12.3943 25.1695 12.3843L23.854 11.6101C23.8364 11.5997 23.8218 11.5847 23.8117 11.5668C23.8015 11.5488 23.7962 11.5284 23.7961 11.5077V9.95761C23.7963 9.93691 23.8018 9.91662 23.8119 9.89868C23.822 9.88075 23.8365 9.86577 23.854 9.85519L25.1695 9.08014C25.187 9.06968 25.207 9.06417 25.2273 9.06417C25.2477 9.06417 25.2676 9.06968 25.2852 9.08014L26.6007 9.85519C26.6183 9.86556 26.633 9.88049 26.6431 9.89847C26.6533 9.91645 26.6586 9.93685 26.6586 9.95761V11.5077Z" fill="#333333"/>
<path opacity="0.3" fill-rule="evenodd" clip-rule="evenodd" d="M39.7713 9.9179C39.8415 9.87658 39.8997 9.81713 39.9402 9.74553C39.9807 9.67394 40.002 9.59273 40.0019 9.51008V8.41578C40.002 8.33313 39.9807 8.25192 39.9402 8.18033C39.8997 8.10874 39.8415 8.04929 39.7713 8.00796L35.9649 5.75201C35.8944 5.71055 35.8144 5.68874 35.733 5.68874C35.6516 5.68874 35.5716 5.71055 35.5011 5.75201L31.6712 8.00888C31.6008 8.05031 31.5424 8.10989 31.5018 8.18164C31.4612 8.25338 31.4398 8.33477 31.4397 8.41763V12.9305C31.4396 13.0138 31.4612 13.0957 31.5024 13.1677C31.5435 13.2397 31.6027 13.2992 31.6739 13.3401L35.4794 15.5546C35.5484 15.5942 35.6263 15.615 35.7054 15.615C35.7846 15.615 35.8625 15.5942 35.9315 15.5546L38.2334 14.249C38.2691 14.2284 38.2989 14.1985 38.3196 14.1624C38.3403 14.1262 38.3512 14.0851 38.3512 14.0432C38.3512 14.0013 38.3403 13.9602 38.3196 13.9241C38.2989 13.8879 38.2691 13.858 38.2334 13.8374L34.3845 11.5806C34.3491 11.5602 34.3197 11.5305 34.2992 11.4947C34.2787 11.4589 34.2679 11.4181 34.2678 11.3767V9.96219C34.2679 9.9207 34.2786 9.87995 34.2989 9.84401C34.3192 9.80806 34.3484 9.77818 34.3836 9.75736L35.5834 9.05151C35.6185 9.03113 35.6582 9.02041 35.6986 9.02041C35.7391 9.02041 35.7788 9.03113 35.8139 9.05151L37.0146 9.75459C37.0498 9.77542 37.079 9.80529 37.0993 9.84124C37.1196 9.87718 37.1303 9.91793 37.1304 9.95943V11.0722C37.1302 11.1137 37.1408 11.1545 37.1611 11.1905C37.1814 11.2265 37.2106 11.2563 37.2459 11.2771C37.2812 11.2978 37.3212 11.3086 37.3618 11.3084C37.4025 11.3082 37.4424 11.2971 37.4775 11.2761L39.7713 9.9179Z" fill="#333333"/>
<path opacity="0.3" fill-rule="evenodd" clip-rule="evenodd" d="M35.6765 9.70671C35.6903 9.69861 35.7058 9.69435 35.7217 9.69435C35.7376 9.69435 35.7532 9.69861 35.7669 9.70671L36.502 10.1394C36.5155 10.1474 36.5268 10.1588 36.5347 10.1726C36.5426 10.1863 36.5469 10.2019 36.5472 10.2179V11.0843C36.5469 11.1002 36.5426 11.1158 36.5347 11.1296C36.5268 11.1433 36.5155 11.1547 36.502 11.1627L35.7651 11.6C35.7514 11.6081 35.7358 11.6124 35.7199 11.6124C35.704 11.6124 35.6884 11.6081 35.6747 11.6L34.9405 11.1673C34.9272 11.1592 34.9161 11.1478 34.9083 11.134C34.9006 11.1203 34.8964 11.1047 34.8962 11.0889V10.216C34.8964 10.2002 34.9006 10.1846 34.9083 10.1709C34.9161 10.1572 34.9272 10.1457 34.9405 10.1376L35.6765 9.70671Z" fill="#333333"/>
<path opacity="0.3" fill-rule="evenodd" clip-rule="evenodd" d="M14.5351 5.77513C14.6046 5.73343 14.6837 5.71144 14.7643 5.71144C14.8449 5.71144 14.924 5.73343 14.9935 5.77513L18.7909 8.01263C18.8607 8.05377 18.9187 8.11295 18.959 8.18422C18.9993 8.25548 19.0205 8.33632 19.0205 8.41861V12.8982C19.0204 12.9803 18.9991 13.061 18.9588 13.1321C18.9185 13.2032 18.8606 13.2622 18.7909 13.3033L14.9935 15.5435C14.9236 15.5843 14.8444 15.6058 14.7638 15.6058C14.6833 15.6058 14.6041 15.5843 14.5342 15.5435L10.7368 13.3033C10.6672 13.2622 10.6094 13.2031 10.5693 13.132C10.5291 13.0609 10.508 12.9803 10.5081 12.8982V8.41861C10.5079 8.33628 10.529 8.25537 10.5693 8.18407C10.6097 8.11277 10.6678 8.05363 10.7377 8.01263L14.5351 5.77513Z" fill="#333333"/>
<path opacity="0.2" fill-rule="evenodd" clip-rule="evenodd" d="M57 8.11318H59.3149V8.94589C60.2274 7.72992 62.2514 7.68935 62.9583 8.98913H62.9664C63.6968 8.0219 65.2161 7.72885 66.2031 8.28933C66.8252 8.64216 67.1819 9.37612 67.1411 10.417V15.4202H64.7718V11.2567C64.7609 10.6796 64.5353 10.3706 64.0355 10.3989C63.5358 10.4272 63.2802 10.8232 63.2666 11.4083V15.4175H60.8788V11.2166C60.8582 10.6663 60.632 10.3759 60.1442 10.3999C59.3285 10.4394 59.3715 11.4408 59.3709 11.4408V15.4186H57.0011V8.11318H57ZM71.1929 8.00002C73.275 8.00002 74.963 9.68625 74.963 11.7664C74.963 13.8466 73.2772 15.5328 71.1929 15.5328C69.1085 15.5328 67.4255 13.8466 67.4255 11.7664C67.4255 9.68625 69.1113 8.00002 71.1956 8.00002H71.1929ZM71.1929 10.4101C71.8998 10.4101 72.4762 11.0175 72.4762 11.7664C72.4762 12.5153 71.9014 13.1228 71.1929 13.1228C70.4843 13.1228 69.9095 12.5153 69.9095 11.7664C69.9095 11.0175 70.4838 10.4101 71.1929 10.4101ZM75.4785 8.11478H77.7934V8.73237C78.5786 7.97226 79.9098 7.77956 80.8038 8.28719C81.4259 8.64003 81.7826 9.37399 81.7424 10.4149V15.4181H79.3731V11.2545C79.3622 10.6775 79.1365 10.3684 78.6368 10.3967C78.1371 10.425 77.9337 10.7448 77.8679 11.4061V15.4154H75.4785V8.11318V8.11478ZM92.5203 8.00162C94.6024 8.00162 96.2903 9.68786 96.2903 11.768C96.2903 13.8482 94.6046 15.5344 92.5203 15.5344C90.4359 15.5344 88.7502 13.8482 88.7502 11.768C88.7502 9.68786 90.4359 8.00162 92.5203 8.00162ZM92.5203 10.4117C93.2272 10.4117 93.8036 11.0191 93.8036 11.768C93.8036 12.5169 93.2288 13.1244 92.5203 13.1244C91.8117 13.1244 91.2369 12.5169 91.2369 11.768C91.2369 11.0191 91.8112 10.4117 92.5203 10.4117ZM85.3662 8.02724C85.6898 8.02635 86.0119 8.07074 86.3227 8.15908H88.7333L87.9595 9.25228L87.9883 9.28911C88.4092 9.84105 88.6409 10.5414 88.674 11.2716C88.7072 12.0018 88.437 12.6797 87.9775 13.2285C88.7801 14.4845 88.8258 15.7501 87.7904 17.0291C86.1715 18.568 83.3857 18.0694 81.8484 16.6084L83.1241 14.8709C84.371 16.1419 86.5777 16.167 86.1112 14.3943C85.8293 14.467 85.5391 14.5041 85.2476 14.5048C84.0932 14.5048 83.0801 13.9512 82.5243 13.0763C82.1981 12.5666 82.0681 11.942 82.0578 11.2695C82.0306 9.44178 83.4754 8.0251 85.3662 8.0251V8.02724ZM85.3118 10.362C85.498 10.3619 85.6801 10.416 85.835 10.5175C85.9898 10.619 86.1106 10.7633 86.1819 10.9322C86.2532 11.101 86.2719 11.2869 86.2356 11.4662C86.1993 11.6454 86.1096 11.8101 85.9779 11.9394C85.8463 12.0686 85.6785 12.1566 85.4958 12.1923C85.3132 12.2279 85.1239 12.2096 84.9519 12.1396C84.7799 12.0696 84.6328 11.9511 84.5295 11.799C84.4261 11.647 84.3709 11.4683 84.371 11.2855C84.3712 11.0406 84.4704 10.8058 84.6467 10.6327C84.8231 10.4595 85.0623 10.3622 85.3118 10.362ZM100.12 8.00002C102.202 8.00002 103.89 9.68625 103.89 11.7664C103.89 13.8466 102.204 15.5328 100.12 15.5328C98.0354 15.5328 96.3496 13.8466 96.3496 11.7664C96.3496 9.68625 98.0354 8.00002 100.12 8.00002ZM100.12 10.4101C100.827 10.4101 101.403 11.0175 101.403 11.7664C101.403 12.5153 100.828 13.1228 100.12 13.1228C99.4111 13.1228 98.8364 12.5153 98.8364 11.7664C98.8364 11.0175 99.4111 10.4101 100.12 10.4101ZM107.927 8.16816V10.2569C107.621 10.1117 107.008 10.0055 106.706 10.1667C106.524 10.2638 106.425 10.6652 106.686 10.9097C107.215 11.4045 107.97 11.9506 108.084 12.9696C108.416 15.9465 105.11 15.4912 104.186 15.3359L104.14 13.0998C105.128 13.4495 105.531 13.1174 105.492 12.7134C105.455 12.3264 104.782 11.9202 104.522 11.6047C103.938 11.0319 103.582 9.51918 104.716 8.64376C105.463 8.06727 106.858 7.96265 107.931 8.16602L107.927 8.16816ZM112.022 8.01122C113.653 8.01122 114.884 9.04357 115.41 10.4885L111.455 13.2696C112.394 13.6859 113.694 13.3283 114.79 12.3557C114.82 12.9963 114.938 14.1199 114.965 14.7284C114.067 15.274 113.017 15.5328 111.986 15.5328C109.702 15.5328 108.234 13.9715 108.253 11.8022C108.271 9.63288 109.938 8.00909 112.023 8.00909L112.022 8.01122ZM112.744 10.2211L110.494 11.8283C110.187 10.4405 111.776 9.40388 112.745 10.2179L112.744 10.2211ZM116.119 13.2482C116.231 13.2481 116.342 13.2703 116.445 13.3133C116.547 13.3572 116.639 13.4201 116.717 13.4986C116.849 13.634 116.934 13.8075 116.959 13.9937C116.984 14.1799 116.948 14.369 116.856 14.5336C116.783 14.663 116.676 14.7709 116.546 14.8464C116.417 14.9215 116.27 14.9611 116.12 14.9611C115.97 14.9611 115.822 14.9215 115.693 14.8464C115.564 14.7709 115.457 14.663 115.384 14.5336C115.309 14.402 115.27 14.2539 115.27 14.1034C115.27 13.9528 115.309 13.8047 115.384 13.6731C115.457 13.5439 115.564 13.4361 115.693 13.3609C115.822 13.2849 115.97 13.2452 116.12 13.2461L116.119 13.2482ZM116.119 13.4164C115.998 13.4157 115.879 13.4477 115.775 13.5087C115.671 13.5695 115.585 13.6562 115.526 13.7601C115.465 13.866 115.433 13.9855 115.433 14.1071C115.433 14.2287 115.465 14.3482 115.526 14.4541C115.585 14.558 115.671 14.6447 115.776 14.7055C115.88 14.7657 115.998 14.7975 116.119 14.7975C116.239 14.7975 116.357 14.7657 116.461 14.7055C116.564 14.6442 116.649 14.5575 116.708 14.4541C116.768 14.3478 116.799 14.2284 116.799 14.1071C116.799 13.9857 116.768 13.8664 116.708 13.7601C116.649 13.6567 116.564 13.5704 116.461 13.5098C116.357 13.4487 116.239 13.4169 116.118 13.418L116.119 13.4164ZM116.499 14.5907H116.336L116.259 14.3308C116.254 14.3133 116.246 14.2966 116.237 14.2811C116.228 14.2667 116.217 14.2535 116.204 14.2421C116.193 14.2312 116.179 14.2225 116.164 14.2165C116.149 14.2102 116.133 14.2069 116.117 14.2069H115.954V14.5907H115.804V13.6352H116.164C116.186 13.6352 116.207 13.6352 116.226 13.6352C116.245 13.6364 116.263 13.6393 116.281 13.6438C116.299 13.6478 116.318 13.6542 116.335 13.663C116.352 13.6723 116.368 13.6844 116.382 13.6987C116.395 13.7123 116.407 13.7273 116.417 13.7436C116.426 13.7605 116.435 13.7784 116.441 13.797C116.448 13.8158 116.453 13.835 116.456 13.8546C116.459 13.8742 116.461 13.894 116.461 13.9139C116.463 13.9661 116.45 14.0178 116.425 14.0639C116.403 14.1045 116.369 14.1379 116.327 14.1599C116.368 14.2012 116.396 14.252 116.411 14.3073L116.498 14.5896L116.499 14.5907ZM115.955 14.0425H116.155C116.179 14.0429 116.202 14.0407 116.225 14.0361C116.242 14.0327 116.258 14.0252 116.272 14.0142C116.284 14.0038 116.294 13.9901 116.298 13.9747C116.305 13.9554 116.308 13.9352 116.307 13.9149C116.309 13.8979 116.306 13.8807 116.301 13.8646C116.295 13.8485 116.286 13.8338 116.273 13.8215C116.244 13.7994 116.208 13.7887 116.171 13.7916H115.953V14.0425H115.955Z" fill="#333333"/>
</svg>
